G04 #@! TF.GenerationSoftware,KiCad,Pcbnew,5.0.1-33cea8e~68~ubuntu16.04.1*
G04 #@! TF.CreationDate,2018-11-29T12:11:28+01:00*
G04 #@! TF.ProjectId,midi_controller_pcb,6D6964695F636F6E74726F6C6C65725F,rev?*
G04 #@! TF.SameCoordinates,Original*
G04 #@! TF.FileFunction,Copper,L1,Top,Signal*
G04 #@! TF.FilePolarity,Positive*
%FSLAX46Y46*%
G04 Gerber Fmt 4.6, Leading zero omitted, Abs format (unit mm)*
G04 Created by KiCad (PCBNEW 5.0.1-33cea8e~68~ubuntu16.04.1) date Do 29 Nov 2018 12:11:28 CET*
%MOMM*%
%LPD*%
G01*
G04 APERTURE LIST*
G04 #@! TA.AperFunction,Conductor*
%ADD10C,0.100000*%
G04 #@! TD*
G04 #@! TA.AperFunction,SMDPad,CuDef*
%ADD11C,0.590000*%
G04 #@! TD*
G04 #@! TA.AperFunction,ComponentPad*
%ADD12R,1.800000X1.800000*%
G04 #@! TD*
G04 #@! TA.AperFunction,ComponentPad*
%ADD13C,1.800000*%
G04 #@! TD*
G04 #@! TA.AperFunction,ComponentPad*
%ADD14R,1.665000X1.665000*%
G04 #@! TD*
G04 #@! TA.AperFunction,ComponentPad*
%ADD15C,1.665000*%
G04 #@! TD*
G04 #@! TA.AperFunction,ComponentPad*
%ADD16C,3.810000*%
G04 #@! TD*
G04 #@! TA.AperFunction,WasherPad*
%ADD17C,4.000000*%
G04 #@! TD*
G04 #@! TA.AperFunction,ComponentPad*
%ADD18R,1.750000X1.750000*%
G04 #@! TD*
G04 #@! TA.AperFunction,ComponentPad*
%ADD19C,1.750000*%
G04 #@! TD*
G04 #@! TA.AperFunction,ComponentPad*
%ADD20C,2.700000*%
G04 #@! TD*
G04 #@! TA.AperFunction,ComponentPad*
%ADD21O,1.700000X1.700000*%
G04 #@! TD*
G04 #@! TA.AperFunction,ComponentPad*
%ADD22R,1.700000X1.700000*%
G04 #@! TD*
G04 #@! TA.AperFunction,ViaPad*
%ADD23C,0.800000*%
G04 #@! TD*
G04 #@! TA.AperFunction,Conductor*
%ADD24C,0.250000*%
G04 #@! TD*
G04 #@! TA.AperFunction,Conductor*
%ADD25C,0.254000*%
G04 #@! TD*
G04 APERTURE END LIST*
D10*
G04 #@! TO.N,Net-(C1-Pad1)*
G04 #@! TO.C,C1*
G36*
X105571958Y-81214710D02*
X105586276Y-81216834D01*
X105600317Y-81220351D01*
X105613946Y-81225228D01*
X105627031Y-81231417D01*
X105639447Y-81238858D01*
X105651073Y-81247481D01*
X105661798Y-81257202D01*
X105671519Y-81267927D01*
X105680142Y-81279553D01*
X105687583Y-81291969D01*
X105693772Y-81305054D01*
X105698649Y-81318683D01*
X105702166Y-81332724D01*
X105704290Y-81347042D01*
X105705000Y-81361500D01*
X105705000Y-81706500D01*
X105704290Y-81720958D01*
X105702166Y-81735276D01*
X105698649Y-81749317D01*
X105693772Y-81762946D01*
X105687583Y-81776031D01*
X105680142Y-81788447D01*
X105671519Y-81800073D01*
X105661798Y-81810798D01*
X105651073Y-81820519D01*
X105639447Y-81829142D01*
X105627031Y-81836583D01*
X105613946Y-81842772D01*
X105600317Y-81847649D01*
X105586276Y-81851166D01*
X105571958Y-81853290D01*
X105557500Y-81854000D01*
X105262500Y-81854000D01*
X105248042Y-81853290D01*
X105233724Y-81851166D01*
X105219683Y-81847649D01*
X105206054Y-81842772D01*
X105192969Y-81836583D01*
X105180553Y-81829142D01*
X105168927Y-81820519D01*
X105158202Y-81810798D01*
X105148481Y-81800073D01*
X105139858Y-81788447D01*
X105132417Y-81776031D01*
X105126228Y-81762946D01*
X105121351Y-81749317D01*
X105117834Y-81735276D01*
X105115710Y-81720958D01*
X105115000Y-81706500D01*
X105115000Y-81361500D01*
X105115710Y-81347042D01*
X105117834Y-81332724D01*
X105121351Y-81318683D01*
X105126228Y-81305054D01*
X105132417Y-81291969D01*
X105139858Y-81279553D01*
X105148481Y-81267927D01*
X105158202Y-81257202D01*
X105168927Y-81247481D01*
X105180553Y-81238858D01*
X105192969Y-81231417D01*
X105206054Y-81225228D01*
X105219683Y-81220351D01*
X105233724Y-81216834D01*
X105248042Y-81214710D01*
X105262500Y-81214000D01*
X105557500Y-81214000D01*
X105571958Y-81214710D01*
X105571958Y-81214710D01*
G37*
D11*
G04 #@! TD*
G04 #@! TO.P,C1,1*
G04 #@! TO.N,Net-(C1-Pad1)*
X105410000Y-81534000D03*
D10*
G04 #@! TO.N,GND*
G04 #@! TO.C,C1*
G36*
X104601958Y-81214710D02*
X104616276Y-81216834D01*
X104630317Y-81220351D01*
X104643946Y-81225228D01*
X104657031Y-81231417D01*
X104669447Y-81238858D01*
X104681073Y-81247481D01*
X104691798Y-81257202D01*
X104701519Y-81267927D01*
X104710142Y-81279553D01*
X104717583Y-81291969D01*
X104723772Y-81305054D01*
X104728649Y-81318683D01*
X104732166Y-81332724D01*
X104734290Y-81347042D01*
X104735000Y-81361500D01*
X104735000Y-81706500D01*
X104734290Y-81720958D01*
X104732166Y-81735276D01*
X104728649Y-81749317D01*
X104723772Y-81762946D01*
X104717583Y-81776031D01*
X104710142Y-81788447D01*
X104701519Y-81800073D01*
X104691798Y-81810798D01*
X104681073Y-81820519D01*
X104669447Y-81829142D01*
X104657031Y-81836583D01*
X104643946Y-81842772D01*
X104630317Y-81847649D01*
X104616276Y-81851166D01*
X104601958Y-81853290D01*
X104587500Y-81854000D01*
X104292500Y-81854000D01*
X104278042Y-81853290D01*
X104263724Y-81851166D01*
X104249683Y-81847649D01*
X104236054Y-81842772D01*
X104222969Y-81836583D01*
X104210553Y-81829142D01*
X104198927Y-81820519D01*
X104188202Y-81810798D01*
X104178481Y-81800073D01*
X104169858Y-81788447D01*
X104162417Y-81776031D01*
X104156228Y-81762946D01*
X104151351Y-81749317D01*
X104147834Y-81735276D01*
X104145710Y-81720958D01*
X104145000Y-81706500D01*
X104145000Y-81361500D01*
X104145710Y-81347042D01*
X104147834Y-81332724D01*
X104151351Y-81318683D01*
X104156228Y-81305054D01*
X104162417Y-81291969D01*
X104169858Y-81279553D01*
X104178481Y-81267927D01*
X104188202Y-81257202D01*
X104198927Y-81247481D01*
X104210553Y-81238858D01*
X104222969Y-81231417D01*
X104236054Y-81225228D01*
X104249683Y-81220351D01*
X104263724Y-81216834D01*
X104278042Y-81214710D01*
X104292500Y-81214000D01*
X104587500Y-81214000D01*
X104601958Y-81214710D01*
X104601958Y-81214710D01*
G37*
D11*
G04 #@! TD*
G04 #@! TO.P,C1,2*
G04 #@! TO.N,GND*
X104440000Y-81534000D03*
D10*
G04 #@! TO.N,GND*
G04 #@! TO.C,C2*
G36*
X103943958Y-113218710D02*
X103958276Y-113220834D01*
X103972317Y-113224351D01*
X103985946Y-113229228D01*
X103999031Y-113235417D01*
X104011447Y-113242858D01*
X104023073Y-113251481D01*
X104033798Y-113261202D01*
X104043519Y-113271927D01*
X104052142Y-113283553D01*
X104059583Y-113295969D01*
X104065772Y-113309054D01*
X104070649Y-113322683D01*
X104074166Y-113336724D01*
X104076290Y-113351042D01*
X104077000Y-113365500D01*
X104077000Y-113710500D01*
X104076290Y-113724958D01*
X104074166Y-113739276D01*
X104070649Y-113753317D01*
X104065772Y-113766946D01*
X104059583Y-113780031D01*
X104052142Y-113792447D01*
X104043519Y-113804073D01*
X104033798Y-113814798D01*
X104023073Y-113824519D01*
X104011447Y-113833142D01*
X103999031Y-113840583D01*
X103985946Y-113846772D01*
X103972317Y-113851649D01*
X103958276Y-113855166D01*
X103943958Y-113857290D01*
X103929500Y-113858000D01*
X103634500Y-113858000D01*
X103620042Y-113857290D01*
X103605724Y-113855166D01*
X103591683Y-113851649D01*
X103578054Y-113846772D01*
X103564969Y-113840583D01*
X103552553Y-113833142D01*
X103540927Y-113824519D01*
X103530202Y-113814798D01*
X103520481Y-113804073D01*
X103511858Y-113792447D01*
X103504417Y-113780031D01*
X103498228Y-113766946D01*
X103493351Y-113753317D01*
X103489834Y-113739276D01*
X103487710Y-113724958D01*
X103487000Y-113710500D01*
X103487000Y-113365500D01*
X103487710Y-113351042D01*
X103489834Y-113336724D01*
X103493351Y-113322683D01*
X103498228Y-113309054D01*
X103504417Y-113295969D01*
X103511858Y-113283553D01*
X103520481Y-113271927D01*
X103530202Y-113261202D01*
X103540927Y-113251481D01*
X103552553Y-113242858D01*
X103564969Y-113235417D01*
X103578054Y-113229228D01*
X103591683Y-113224351D01*
X103605724Y-113220834D01*
X103620042Y-113218710D01*
X103634500Y-113218000D01*
X103929500Y-113218000D01*
X103943958Y-113218710D01*
X103943958Y-113218710D01*
G37*
D11*
G04 #@! TD*
G04 #@! TO.P,C2,2*
G04 #@! TO.N,GND*
X103782000Y-113538000D03*
D10*
G04 #@! TO.N,Net-(C2-Pad1)*
G04 #@! TO.C,C2*
G36*
X104913958Y-113218710D02*
X104928276Y-113220834D01*
X104942317Y-113224351D01*
X104955946Y-113229228D01*
X104969031Y-113235417D01*
X104981447Y-113242858D01*
X104993073Y-113251481D01*
X105003798Y-113261202D01*
X105013519Y-113271927D01*
X105022142Y-113283553D01*
X105029583Y-113295969D01*
X105035772Y-113309054D01*
X105040649Y-113322683D01*
X105044166Y-113336724D01*
X105046290Y-113351042D01*
X105047000Y-113365500D01*
X105047000Y-113710500D01*
X105046290Y-113724958D01*
X105044166Y-113739276D01*
X105040649Y-113753317D01*
X105035772Y-113766946D01*
X105029583Y-113780031D01*
X105022142Y-113792447D01*
X105013519Y-113804073D01*
X105003798Y-113814798D01*
X104993073Y-113824519D01*
X104981447Y-113833142D01*
X104969031Y-113840583D01*
X104955946Y-113846772D01*
X104942317Y-113851649D01*
X104928276Y-113855166D01*
X104913958Y-113857290D01*
X104899500Y-113858000D01*
X104604500Y-113858000D01*
X104590042Y-113857290D01*
X104575724Y-113855166D01*
X104561683Y-113851649D01*
X104548054Y-113846772D01*
X104534969Y-113840583D01*
X104522553Y-113833142D01*
X104510927Y-113824519D01*
X104500202Y-113814798D01*
X104490481Y-113804073D01*
X104481858Y-113792447D01*
X104474417Y-113780031D01*
X104468228Y-113766946D01*
X104463351Y-113753317D01*
X104459834Y-113739276D01*
X104457710Y-113724958D01*
X104457000Y-113710500D01*
X104457000Y-113365500D01*
X104457710Y-113351042D01*
X104459834Y-113336724D01*
X104463351Y-113322683D01*
X104468228Y-113309054D01*
X104474417Y-113295969D01*
X104481858Y-113283553D01*
X104490481Y-113271927D01*
X104500202Y-113261202D01*
X104510927Y-113251481D01*
X104522553Y-113242858D01*
X104534969Y-113235417D01*
X104548054Y-113229228D01*
X104561683Y-113224351D01*
X104575724Y-113220834D01*
X104590042Y-113218710D01*
X104604500Y-113218000D01*
X104899500Y-113218000D01*
X104913958Y-113218710D01*
X104913958Y-113218710D01*
G37*
D11*
G04 #@! TD*
G04 #@! TO.P,C2,1*
G04 #@! TO.N,Net-(C2-Pad1)*
X104752000Y-113538000D03*
D10*
G04 #@! TO.N,Net-(C3-Pad1)*
G04 #@! TO.C,C3*
G36*
X109254958Y-122362710D02*
X109269276Y-122364834D01*
X109283317Y-122368351D01*
X109296946Y-122373228D01*
X109310031Y-122379417D01*
X109322447Y-122386858D01*
X109334073Y-122395481D01*
X109344798Y-122405202D01*
X109354519Y-122415927D01*
X109363142Y-122427553D01*
X109370583Y-122439969D01*
X109376772Y-122453054D01*
X109381649Y-122466683D01*
X109385166Y-122480724D01*
X109387290Y-122495042D01*
X109388000Y-122509500D01*
X109388000Y-122854500D01*
X109387290Y-122868958D01*
X109385166Y-122883276D01*
X109381649Y-122897317D01*
X109376772Y-122910946D01*
X109370583Y-122924031D01*
X109363142Y-122936447D01*
X109354519Y-122948073D01*
X109344798Y-122958798D01*
X109334073Y-122968519D01*
X109322447Y-122977142D01*
X109310031Y-122984583D01*
X109296946Y-122990772D01*
X109283317Y-122995649D01*
X109269276Y-122999166D01*
X109254958Y-123001290D01*
X109240500Y-123002000D01*
X108945500Y-123002000D01*
X108931042Y-123001290D01*
X108916724Y-122999166D01*
X108902683Y-122995649D01*
X108889054Y-122990772D01*
X108875969Y-122984583D01*
X108863553Y-122977142D01*
X108851927Y-122968519D01*
X108841202Y-122958798D01*
X108831481Y-122948073D01*
X108822858Y-122936447D01*
X108815417Y-122924031D01*
X108809228Y-122910946D01*
X108804351Y-122897317D01*
X108800834Y-122883276D01*
X108798710Y-122868958D01*
X108798000Y-122854500D01*
X108798000Y-122509500D01*
X108798710Y-122495042D01*
X108800834Y-122480724D01*
X108804351Y-122466683D01*
X108809228Y-122453054D01*
X108815417Y-122439969D01*
X108822858Y-122427553D01*
X108831481Y-122415927D01*
X108841202Y-122405202D01*
X108851927Y-122395481D01*
X108863553Y-122386858D01*
X108875969Y-122379417D01*
X108889054Y-122373228D01*
X108902683Y-122368351D01*
X108916724Y-122364834D01*
X108931042Y-122362710D01*
X108945500Y-122362000D01*
X109240500Y-122362000D01*
X109254958Y-122362710D01*
X109254958Y-122362710D01*
G37*
D11*
G04 #@! TD*
G04 #@! TO.P,C3,1*
G04 #@! TO.N,Net-(C3-Pad1)*
X109093000Y-122682000D03*
D10*
G04 #@! TO.N,GND*
G04 #@! TO.C,C3*
G36*
X108284958Y-122362710D02*
X108299276Y-122364834D01*
X108313317Y-122368351D01*
X108326946Y-122373228D01*
X108340031Y-122379417D01*
X108352447Y-122386858D01*
X108364073Y-122395481D01*
X108374798Y-122405202D01*
X108384519Y-122415927D01*
X108393142Y-122427553D01*
X108400583Y-122439969D01*
X108406772Y-122453054D01*
X108411649Y-122466683D01*
X108415166Y-122480724D01*
X108417290Y-122495042D01*
X108418000Y-122509500D01*
X108418000Y-122854500D01*
X108417290Y-122868958D01*
X108415166Y-122883276D01*
X108411649Y-122897317D01*
X108406772Y-122910946D01*
X108400583Y-122924031D01*
X108393142Y-122936447D01*
X108384519Y-122948073D01*
X108374798Y-122958798D01*
X108364073Y-122968519D01*
X108352447Y-122977142D01*
X108340031Y-122984583D01*
X108326946Y-122990772D01*
X108313317Y-122995649D01*
X108299276Y-122999166D01*
X108284958Y-123001290D01*
X108270500Y-123002000D01*
X107975500Y-123002000D01*
X107961042Y-123001290D01*
X107946724Y-122999166D01*
X107932683Y-122995649D01*
X107919054Y-122990772D01*
X107905969Y-122984583D01*
X107893553Y-122977142D01*
X107881927Y-122968519D01*
X107871202Y-122958798D01*
X107861481Y-122948073D01*
X107852858Y-122936447D01*
X107845417Y-122924031D01*
X107839228Y-122910946D01*
X107834351Y-122897317D01*
X107830834Y-122883276D01*
X107828710Y-122868958D01*
X107828000Y-122854500D01*
X107828000Y-122509500D01*
X107828710Y-122495042D01*
X107830834Y-122480724D01*
X107834351Y-122466683D01*
X107839228Y-122453054D01*
X107845417Y-122439969D01*
X107852858Y-122427553D01*
X107861481Y-122415927D01*
X107871202Y-122405202D01*
X107881927Y-122395481D01*
X107893553Y-122386858D01*
X107905969Y-122379417D01*
X107919054Y-122373228D01*
X107932683Y-122368351D01*
X107946724Y-122364834D01*
X107961042Y-122362710D01*
X107975500Y-122362000D01*
X108270500Y-122362000D01*
X108284958Y-122362710D01*
X108284958Y-122362710D01*
G37*
D11*
G04 #@! TD*
G04 #@! TO.P,C3,2*
G04 #@! TO.N,GND*
X108123000Y-122682000D03*
D12*
G04 #@! TO.P,D1,1*
G04 #@! TO.N,Net-(D1-Pad1)*
X131572000Y-58928000D03*
D13*
G04 #@! TO.P,D1,2*
G04 #@! TO.N,+3V3*
X134112000Y-58928000D03*
G04 #@! TD*
D14*
G04 #@! TO.P,IC1,1*
G04 #@! TO.N,Net-(IC1-Pad1)*
X156210000Y-89535000D03*
D15*
G04 #@! TO.P,IC1,2*
G04 #@! TO.N,Net-(IC1-Pad2)*
X153670000Y-89535000D03*
G04 #@! TO.P,IC1,3*
G04 #@! TO.N,Net-(IC1-Pad3)*
X151130000Y-89535000D03*
G04 #@! TO.P,IC1,4*
G04 #@! TO.N,Net-(IC1-Pad4)*
X148590000Y-89535000D03*
G04 #@! TO.P,IC1,5*
G04 #@! TO.N,Net-(IC1-Pad5)*
X146050000Y-89535000D03*
G04 #@! TO.P,IC1,6*
G04 #@! TO.N,Net-(IC1-Pad6)*
X143510000Y-89535000D03*
G04 #@! TO.P,IC1,7*
G04 #@! TO.N,Net-(IC1-Pad7)*
X140970000Y-89535000D03*
G04 #@! TO.P,IC1,8*
G04 #@! TO.N,Net-(IC1-Pad8)*
X138430000Y-89535000D03*
G04 #@! TO.P,IC1,9*
G04 #@! TO.N,Net-(IC1-Pad9)*
X135890000Y-89535000D03*
G04 #@! TO.P,IC1,10*
G04 #@! TO.N,Net-(C1-Pad1)*
X133350000Y-89535000D03*
G04 #@! TO.P,IC1,11*
G04 #@! TO.N,Net-(C2-Pad1)*
X130810000Y-89535000D03*
G04 #@! TO.P,IC1,12*
G04 #@! TO.N,Net-(C3-Pad1)*
X128270000Y-89535000D03*
G04 #@! TO.P,IC1,13*
G04 #@! TO.N,GND*
X125730000Y-89535000D03*
G04 #@! TO.P,IC1,14*
G04 #@! TO.N,Net-(IC1-Pad14)*
X123190000Y-89535000D03*
G04 #@! TO.P,IC1,15*
G04 #@! TO.N,+3V3*
X120650000Y-89535000D03*
G04 #@! TO.P,IC1,16*
G04 #@! TO.N,Net-(IC1-Pad16)*
X118110000Y-89535000D03*
D14*
G04 #@! TO.P,IC1,17*
G04 #@! TO.N,Net-(IC1-Pad17)*
X128270000Y-109855000D03*
D15*
G04 #@! TO.P,IC1,18*
G04 #@! TO.N,Net-(IC1-Pad18)*
X130810000Y-109855000D03*
G04 #@! TO.P,IC1,19*
G04 #@! TO.N,Net-(IC1-Pad19)*
X133350000Y-109855000D03*
G04 #@! TO.P,IC1,20*
G04 #@! TO.N,Net-(C4-Pad1)*
X135890000Y-109855000D03*
G04 #@! TO.P,IC1,21*
G04 #@! TO.N,Net-(C5-Pad1)*
X138430000Y-109855000D03*
G04 #@! TO.P,IC1,22*
G04 #@! TO.N,Net-(C6-Pad1)*
X140970000Y-109855000D03*
G04 #@! TO.P,IC1,23*
G04 #@! TO.N,Net-(C7-Pad1)*
X143510000Y-109855000D03*
G04 #@! TO.P,IC1,24*
G04 #@! TO.N,Net-(D2-Pad2)*
X146050000Y-109855000D03*
G04 #@! TO.P,IC1,25*
G04 #@! TO.N,Net-(IC1-Pad25)*
X148590000Y-109855000D03*
G04 #@! TO.P,IC1,26*
G04 #@! TO.N,Net-(IC1-Pad26)*
X151130000Y-109855000D03*
G04 #@! TO.P,IC1,27*
G04 #@! TO.N,Net-(IC1-Pad27)*
X153670000Y-109855000D03*
G04 #@! TO.P,IC1,28*
G04 #@! TO.N,Net-(IC1-Pad28)*
X156210000Y-109855000D03*
D16*
G04 #@! TO.P,IC1,M1*
G04 #@! TO.N,N/C*
X160020000Y-108585000D03*
G04 #@! TO.P,IC1,M2*
X160020000Y-90805000D03*
G04 #@! TO.P,IC1,M3*
X114300000Y-90805000D03*
G04 #@! TO.P,IC1,M4*
X114300000Y-108585000D03*
G04 #@! TD*
D10*
G04 #@! TO.N,Net-(C1-Pad1)*
G04 #@! TO.C,R1*
G36*
X108411958Y-81214710D02*
X108426276Y-81216834D01*
X108440317Y-81220351D01*
X108453946Y-81225228D01*
X108467031Y-81231417D01*
X108479447Y-81238858D01*
X108491073Y-81247481D01*
X108501798Y-81257202D01*
X108511519Y-81267927D01*
X108520142Y-81279553D01*
X108527583Y-81291969D01*
X108533772Y-81305054D01*
X108538649Y-81318683D01*
X108542166Y-81332724D01*
X108544290Y-81347042D01*
X108545000Y-81361500D01*
X108545000Y-81706500D01*
X108544290Y-81720958D01*
X108542166Y-81735276D01*
X108538649Y-81749317D01*
X108533772Y-81762946D01*
X108527583Y-81776031D01*
X108520142Y-81788447D01*
X108511519Y-81800073D01*
X108501798Y-81810798D01*
X108491073Y-81820519D01*
X108479447Y-81829142D01*
X108467031Y-81836583D01*
X108453946Y-81842772D01*
X108440317Y-81847649D01*
X108426276Y-81851166D01*
X108411958Y-81853290D01*
X108397500Y-81854000D01*
X108102500Y-81854000D01*
X108088042Y-81853290D01*
X108073724Y-81851166D01*
X108059683Y-81847649D01*
X108046054Y-81842772D01*
X108032969Y-81836583D01*
X108020553Y-81829142D01*
X108008927Y-81820519D01*
X107998202Y-81810798D01*
X107988481Y-81800073D01*
X107979858Y-81788447D01*
X107972417Y-81776031D01*
X107966228Y-81762946D01*
X107961351Y-81749317D01*
X107957834Y-81735276D01*
X107955710Y-81720958D01*
X107955000Y-81706500D01*
X107955000Y-81361500D01*
X107955710Y-81347042D01*
X107957834Y-81332724D01*
X107961351Y-81318683D01*
X107966228Y-81305054D01*
X107972417Y-81291969D01*
X107979858Y-81279553D01*
X107988481Y-81267927D01*
X107998202Y-81257202D01*
X108008927Y-81247481D01*
X108020553Y-81238858D01*
X108032969Y-81231417D01*
X108046054Y-81225228D01*
X108059683Y-81220351D01*
X108073724Y-81216834D01*
X108088042Y-81214710D01*
X108102500Y-81214000D01*
X108397500Y-81214000D01*
X108411958Y-81214710D01*
X108411958Y-81214710D01*
G37*
D11*
G04 #@! TD*
G04 #@! TO.P,R1,1*
G04 #@! TO.N,Net-(C1-Pad1)*
X108250000Y-81534000D03*
D10*
G04 #@! TO.N,Net-(R1-Pad2)*
G04 #@! TO.C,R1*
G36*
X109381958Y-81214710D02*
X109396276Y-81216834D01*
X109410317Y-81220351D01*
X109423946Y-81225228D01*
X109437031Y-81231417D01*
X109449447Y-81238858D01*
X109461073Y-81247481D01*
X109471798Y-81257202D01*
X109481519Y-81267927D01*
X109490142Y-81279553D01*
X109497583Y-81291969D01*
X109503772Y-81305054D01*
X109508649Y-81318683D01*
X109512166Y-81332724D01*
X109514290Y-81347042D01*
X109515000Y-81361500D01*
X109515000Y-81706500D01*
X109514290Y-81720958D01*
X109512166Y-81735276D01*
X109508649Y-81749317D01*
X109503772Y-81762946D01*
X109497583Y-81776031D01*
X109490142Y-81788447D01*
X109481519Y-81800073D01*
X109471798Y-81810798D01*
X109461073Y-81820519D01*
X109449447Y-81829142D01*
X109437031Y-81836583D01*
X109423946Y-81842772D01*
X109410317Y-81847649D01*
X109396276Y-81851166D01*
X109381958Y-81853290D01*
X109367500Y-81854000D01*
X109072500Y-81854000D01*
X109058042Y-81853290D01*
X109043724Y-81851166D01*
X109029683Y-81847649D01*
X109016054Y-81842772D01*
X109002969Y-81836583D01*
X108990553Y-81829142D01*
X108978927Y-81820519D01*
X108968202Y-81810798D01*
X108958481Y-81800073D01*
X108949858Y-81788447D01*
X108942417Y-81776031D01*
X108936228Y-81762946D01*
X108931351Y-81749317D01*
X108927834Y-81735276D01*
X108925710Y-81720958D01*
X108925000Y-81706500D01*
X108925000Y-81361500D01*
X108925710Y-81347042D01*
X108927834Y-81332724D01*
X108931351Y-81318683D01*
X108936228Y-81305054D01*
X108942417Y-81291969D01*
X108949858Y-81279553D01*
X108958481Y-81267927D01*
X108968202Y-81257202D01*
X108978927Y-81247481D01*
X108990553Y-81238858D01*
X109002969Y-81231417D01*
X109016054Y-81225228D01*
X109029683Y-81220351D01*
X109043724Y-81216834D01*
X109058042Y-81214710D01*
X109072500Y-81214000D01*
X109367500Y-81214000D01*
X109381958Y-81214710D01*
X109381958Y-81214710D01*
G37*
D11*
G04 #@! TD*
G04 #@! TO.P,R1,2*
G04 #@! TO.N,Net-(R1-Pad2)*
X109220000Y-81534000D03*
D10*
G04 #@! TO.N,Net-(R2-Pad2)*
G04 #@! TO.C,R2*
G36*
X106993958Y-110876710D02*
X107008276Y-110878834D01*
X107022317Y-110882351D01*
X107035946Y-110887228D01*
X107049031Y-110893417D01*
X107061447Y-110900858D01*
X107073073Y-110909481D01*
X107083798Y-110919202D01*
X107093519Y-110929927D01*
X107102142Y-110941553D01*
X107109583Y-110953969D01*
X107115772Y-110967054D01*
X107120649Y-110980683D01*
X107124166Y-110994724D01*
X107126290Y-111009042D01*
X107127000Y-111023500D01*
X107127000Y-111318500D01*
X107126290Y-111332958D01*
X107124166Y-111347276D01*
X107120649Y-111361317D01*
X107115772Y-111374946D01*
X107109583Y-111388031D01*
X107102142Y-111400447D01*
X107093519Y-111412073D01*
X107083798Y-111422798D01*
X107073073Y-111432519D01*
X107061447Y-111441142D01*
X107049031Y-111448583D01*
X107035946Y-111454772D01*
X107022317Y-111459649D01*
X107008276Y-111463166D01*
X106993958Y-111465290D01*
X106979500Y-111466000D01*
X106634500Y-111466000D01*
X106620042Y-111465290D01*
X106605724Y-111463166D01*
X106591683Y-111459649D01*
X106578054Y-111454772D01*
X106564969Y-111448583D01*
X106552553Y-111441142D01*
X106540927Y-111432519D01*
X106530202Y-111422798D01*
X106520481Y-111412073D01*
X106511858Y-111400447D01*
X106504417Y-111388031D01*
X106498228Y-111374946D01*
X106493351Y-111361317D01*
X106489834Y-111347276D01*
X106487710Y-111332958D01*
X106487000Y-111318500D01*
X106487000Y-111023500D01*
X106487710Y-111009042D01*
X106489834Y-110994724D01*
X106493351Y-110980683D01*
X106498228Y-110967054D01*
X106504417Y-110953969D01*
X106511858Y-110941553D01*
X106520481Y-110929927D01*
X106530202Y-110919202D01*
X106540927Y-110909481D01*
X106552553Y-110900858D01*
X106564969Y-110893417D01*
X106578054Y-110887228D01*
X106591683Y-110882351D01*
X106605724Y-110878834D01*
X106620042Y-110876710D01*
X106634500Y-110876000D01*
X106979500Y-110876000D01*
X106993958Y-110876710D01*
X106993958Y-110876710D01*
G37*
D11*
G04 #@! TD*
G04 #@! TO.P,R2,2*
G04 #@! TO.N,Net-(R2-Pad2)*
X106807000Y-111171000D03*
D10*
G04 #@! TO.N,Net-(C2-Pad1)*
G04 #@! TO.C,R2*
G36*
X106993958Y-111846710D02*
X107008276Y-111848834D01*
X107022317Y-111852351D01*
X107035946Y-111857228D01*
X107049031Y-111863417D01*
X107061447Y-111870858D01*
X107073073Y-111879481D01*
X107083798Y-111889202D01*
X107093519Y-111899927D01*
X107102142Y-111911553D01*
X107109583Y-111923969D01*
X107115772Y-111937054D01*
X107120649Y-111950683D01*
X107124166Y-111964724D01*
X107126290Y-111979042D01*
X107127000Y-111993500D01*
X107127000Y-112288500D01*
X107126290Y-112302958D01*
X107124166Y-112317276D01*
X107120649Y-112331317D01*
X107115772Y-112344946D01*
X107109583Y-112358031D01*
X107102142Y-112370447D01*
X107093519Y-112382073D01*
X107083798Y-112392798D01*
X107073073Y-112402519D01*
X107061447Y-112411142D01*
X107049031Y-112418583D01*
X107035946Y-112424772D01*
X107022317Y-112429649D01*
X107008276Y-112433166D01*
X106993958Y-112435290D01*
X106979500Y-112436000D01*
X106634500Y-112436000D01*
X106620042Y-112435290D01*
X106605724Y-112433166D01*
X106591683Y-112429649D01*
X106578054Y-112424772D01*
X106564969Y-112418583D01*
X106552553Y-112411142D01*
X106540927Y-112402519D01*
X106530202Y-112392798D01*
X106520481Y-112382073D01*
X106511858Y-112370447D01*
X106504417Y-112358031D01*
X106498228Y-112344946D01*
X106493351Y-112331317D01*
X106489834Y-112317276D01*
X106487710Y-112302958D01*
X106487000Y-112288500D01*
X106487000Y-111993500D01*
X106487710Y-111979042D01*
X106489834Y-111964724D01*
X106493351Y-111950683D01*
X106498228Y-111937054D01*
X106504417Y-111923969D01*
X106511858Y-111911553D01*
X106520481Y-111899927D01*
X106530202Y-111889202D01*
X106540927Y-111879481D01*
X106552553Y-111870858D01*
X106564969Y-111863417D01*
X106578054Y-111857228D01*
X106591683Y-111852351D01*
X106605724Y-111848834D01*
X106620042Y-111846710D01*
X106634500Y-111846000D01*
X106979500Y-111846000D01*
X106993958Y-111846710D01*
X106993958Y-111846710D01*
G37*
D11*
G04 #@! TD*
G04 #@! TO.P,R2,1*
G04 #@! TO.N,Net-(C2-Pad1)*
X106807000Y-112141000D03*
D10*
G04 #@! TO.N,Net-(C3-Pad1)*
G04 #@! TO.C,R3*
G36*
X111309958Y-122362710D02*
X111324276Y-122364834D01*
X111338317Y-122368351D01*
X111351946Y-122373228D01*
X111365031Y-122379417D01*
X111377447Y-122386858D01*
X111389073Y-122395481D01*
X111399798Y-122405202D01*
X111409519Y-122415927D01*
X111418142Y-122427553D01*
X111425583Y-122439969D01*
X111431772Y-122453054D01*
X111436649Y-122466683D01*
X111440166Y-122480724D01*
X111442290Y-122495042D01*
X111443000Y-122509500D01*
X111443000Y-122854500D01*
X111442290Y-122868958D01*
X111440166Y-122883276D01*
X111436649Y-122897317D01*
X111431772Y-122910946D01*
X111425583Y-122924031D01*
X111418142Y-122936447D01*
X111409519Y-122948073D01*
X111399798Y-122958798D01*
X111389073Y-122968519D01*
X111377447Y-122977142D01*
X111365031Y-122984583D01*
X111351946Y-122990772D01*
X111338317Y-122995649D01*
X111324276Y-122999166D01*
X111309958Y-123001290D01*
X111295500Y-123002000D01*
X111000500Y-123002000D01*
X110986042Y-123001290D01*
X110971724Y-122999166D01*
X110957683Y-122995649D01*
X110944054Y-122990772D01*
X110930969Y-122984583D01*
X110918553Y-122977142D01*
X110906927Y-122968519D01*
X110896202Y-122958798D01*
X110886481Y-122948073D01*
X110877858Y-122936447D01*
X110870417Y-122924031D01*
X110864228Y-122910946D01*
X110859351Y-122897317D01*
X110855834Y-122883276D01*
X110853710Y-122868958D01*
X110853000Y-122854500D01*
X110853000Y-122509500D01*
X110853710Y-122495042D01*
X110855834Y-122480724D01*
X110859351Y-122466683D01*
X110864228Y-122453054D01*
X110870417Y-122439969D01*
X110877858Y-122427553D01*
X110886481Y-122415927D01*
X110896202Y-122405202D01*
X110906927Y-122395481D01*
X110918553Y-122386858D01*
X110930969Y-122379417D01*
X110944054Y-122373228D01*
X110957683Y-122368351D01*
X110971724Y-122364834D01*
X110986042Y-122362710D01*
X111000500Y-122362000D01*
X111295500Y-122362000D01*
X111309958Y-122362710D01*
X111309958Y-122362710D01*
G37*
D11*
G04 #@! TD*
G04 #@! TO.P,R3,1*
G04 #@! TO.N,Net-(C3-Pad1)*
X111148000Y-122682000D03*
D10*
G04 #@! TO.N,Net-(R3-Pad2)*
G04 #@! TO.C,R3*
G36*
X112279958Y-122362710D02*
X112294276Y-122364834D01*
X112308317Y-122368351D01*
X112321946Y-122373228D01*
X112335031Y-122379417D01*
X112347447Y-122386858D01*
X112359073Y-122395481D01*
X112369798Y-122405202D01*
X112379519Y-122415927D01*
X112388142Y-122427553D01*
X112395583Y-122439969D01*
X112401772Y-122453054D01*
X112406649Y-122466683D01*
X112410166Y-122480724D01*
X112412290Y-122495042D01*
X112413000Y-122509500D01*
X112413000Y-122854500D01*
X112412290Y-122868958D01*
X112410166Y-122883276D01*
X112406649Y-122897317D01*
X112401772Y-122910946D01*
X112395583Y-122924031D01*
X112388142Y-122936447D01*
X112379519Y-122948073D01*
X112369798Y-122958798D01*
X112359073Y-122968519D01*
X112347447Y-122977142D01*
X112335031Y-122984583D01*
X112321946Y-122990772D01*
X112308317Y-122995649D01*
X112294276Y-122999166D01*
X112279958Y-123001290D01*
X112265500Y-123002000D01*
X111970500Y-123002000D01*
X111956042Y-123001290D01*
X111941724Y-122999166D01*
X111927683Y-122995649D01*
X111914054Y-122990772D01*
X111900969Y-122984583D01*
X111888553Y-122977142D01*
X111876927Y-122968519D01*
X111866202Y-122958798D01*
X111856481Y-122948073D01*
X111847858Y-122936447D01*
X111840417Y-122924031D01*
X111834228Y-122910946D01*
X111829351Y-122897317D01*
X111825834Y-122883276D01*
X111823710Y-122868958D01*
X111823000Y-122854500D01*
X111823000Y-122509500D01*
X111823710Y-122495042D01*
X111825834Y-122480724D01*
X111829351Y-122466683D01*
X111834228Y-122453054D01*
X111840417Y-122439969D01*
X111847858Y-122427553D01*
X111856481Y-122415927D01*
X111866202Y-122405202D01*
X111876927Y-122395481D01*
X111888553Y-122386858D01*
X111900969Y-122379417D01*
X111914054Y-122373228D01*
X111927683Y-122368351D01*
X111941724Y-122364834D01*
X111956042Y-122362710D01*
X111970500Y-122362000D01*
X112265500Y-122362000D01*
X112279958Y-122362710D01*
X112279958Y-122362710D01*
G37*
D11*
G04 #@! TD*
G04 #@! TO.P,R3,2*
G04 #@! TO.N,Net-(R3-Pad2)*
X112118000Y-122682000D03*
D10*
G04 #@! TO.N,Net-(C4-Pad1)*
G04 #@! TO.C,R4*
G36*
X100006958Y-81214710D02*
X100021276Y-81216834D01*
X100035317Y-81220351D01*
X100048946Y-81225228D01*
X100062031Y-81231417D01*
X100074447Y-81238858D01*
X100086073Y-81247481D01*
X100096798Y-81257202D01*
X100106519Y-81267927D01*
X100115142Y-81279553D01*
X100122583Y-81291969D01*
X100128772Y-81305054D01*
X100133649Y-81318683D01*
X100137166Y-81332724D01*
X100139290Y-81347042D01*
X100140000Y-81361500D01*
X100140000Y-81706500D01*
X100139290Y-81720958D01*
X100137166Y-81735276D01*
X100133649Y-81749317D01*
X100128772Y-81762946D01*
X100122583Y-81776031D01*
X100115142Y-81788447D01*
X100106519Y-81800073D01*
X100096798Y-81810798D01*
X100086073Y-81820519D01*
X100074447Y-81829142D01*
X100062031Y-81836583D01*
X100048946Y-81842772D01*
X100035317Y-81847649D01*
X100021276Y-81851166D01*
X100006958Y-81853290D01*
X99992500Y-81854000D01*
X99697500Y-81854000D01*
X99683042Y-81853290D01*
X99668724Y-81851166D01*
X99654683Y-81847649D01*
X99641054Y-81842772D01*
X99627969Y-81836583D01*
X99615553Y-81829142D01*
X99603927Y-81820519D01*
X99593202Y-81810798D01*
X99583481Y-81800073D01*
X99574858Y-81788447D01*
X99567417Y-81776031D01*
X99561228Y-81762946D01*
X99556351Y-81749317D01*
X99552834Y-81735276D01*
X99550710Y-81720958D01*
X99550000Y-81706500D01*
X99550000Y-81361500D01*
X99550710Y-81347042D01*
X99552834Y-81332724D01*
X99556351Y-81318683D01*
X99561228Y-81305054D01*
X99567417Y-81291969D01*
X99574858Y-81279553D01*
X99583481Y-81267927D01*
X99593202Y-81257202D01*
X99603927Y-81247481D01*
X99615553Y-81238858D01*
X99627969Y-81231417D01*
X99641054Y-81225228D01*
X99654683Y-81220351D01*
X99668724Y-81216834D01*
X99683042Y-81214710D01*
X99697500Y-81214000D01*
X99992500Y-81214000D01*
X100006958Y-81214710D01*
X100006958Y-81214710D01*
G37*
D11*
G04 #@! TD*
G04 #@! TO.P,R4,2*
G04 #@! TO.N,Net-(C4-Pad1)*
X99845000Y-81534000D03*
D10*
G04 #@! TO.N,GND*
G04 #@! TO.C,R4*
G36*
X100976958Y-81214710D02*
X100991276Y-81216834D01*
X101005317Y-81220351D01*
X101018946Y-81225228D01*
X101032031Y-81231417D01*
X101044447Y-81238858D01*
X101056073Y-81247481D01*
X101066798Y-81257202D01*
X101076519Y-81267927D01*
X101085142Y-81279553D01*
X101092583Y-81291969D01*
X101098772Y-81305054D01*
X101103649Y-81318683D01*
X101107166Y-81332724D01*
X101109290Y-81347042D01*
X101110000Y-81361500D01*
X101110000Y-81706500D01*
X101109290Y-81720958D01*
X101107166Y-81735276D01*
X101103649Y-81749317D01*
X101098772Y-81762946D01*
X101092583Y-81776031D01*
X101085142Y-81788447D01*
X101076519Y-81800073D01*
X101066798Y-81810798D01*
X101056073Y-81820519D01*
X101044447Y-81829142D01*
X101032031Y-81836583D01*
X101018946Y-81842772D01*
X101005317Y-81847649D01*
X100991276Y-81851166D01*
X100976958Y-81853290D01*
X100962500Y-81854000D01*
X100667500Y-81854000D01*
X100653042Y-81853290D01*
X100638724Y-81851166D01*
X100624683Y-81847649D01*
X100611054Y-81842772D01*
X100597969Y-81836583D01*
X100585553Y-81829142D01*
X100573927Y-81820519D01*
X100563202Y-81810798D01*
X100553481Y-81800073D01*
X100544858Y-81788447D01*
X100537417Y-81776031D01*
X100531228Y-81762946D01*
X100526351Y-81749317D01*
X100522834Y-81735276D01*
X100520710Y-81720958D01*
X100520000Y-81706500D01*
X100520000Y-81361500D01*
X100520710Y-81347042D01*
X100522834Y-81332724D01*
X100526351Y-81318683D01*
X100531228Y-81305054D01*
X100537417Y-81291969D01*
X100544858Y-81279553D01*
X100553481Y-81267927D01*
X100563202Y-81257202D01*
X100573927Y-81247481D01*
X100585553Y-81238858D01*
X100597969Y-81231417D01*
X100611054Y-81225228D01*
X100624683Y-81220351D01*
X100638724Y-81216834D01*
X100653042Y-81214710D01*
X100667500Y-81214000D01*
X100962500Y-81214000D01*
X100976958Y-81214710D01*
X100976958Y-81214710D01*
G37*
D11*
G04 #@! TD*
G04 #@! TO.P,R4,1*
G04 #@! TO.N,GND*
X100815000Y-81534000D03*
D10*
G04 #@! TO.N,GND*
G04 #@! TO.C,R5*
G36*
X101914358Y-110932710D02*
X101928676Y-110934834D01*
X101942717Y-110938351D01*
X101956346Y-110943228D01*
X101969431Y-110949417D01*
X101981847Y-110956858D01*
X101993473Y-110965481D01*
X102004198Y-110975202D01*
X102013919Y-110985927D01*
X102022542Y-110997553D01*
X102029983Y-111009969D01*
X102036172Y-111023054D01*
X102041049Y-111036683D01*
X102044566Y-111050724D01*
X102046690Y-111065042D01*
X102047400Y-111079500D01*
X102047400Y-111424500D01*
X102046690Y-111438958D01*
X102044566Y-111453276D01*
X102041049Y-111467317D01*
X102036172Y-111480946D01*
X102029983Y-111494031D01*
X102022542Y-111506447D01*
X102013919Y-111518073D01*
X102004198Y-111528798D01*
X101993473Y-111538519D01*
X101981847Y-111547142D01*
X101969431Y-111554583D01*
X101956346Y-111560772D01*
X101942717Y-111565649D01*
X101928676Y-111569166D01*
X101914358Y-111571290D01*
X101899900Y-111572000D01*
X101604900Y-111572000D01*
X101590442Y-111571290D01*
X101576124Y-111569166D01*
X101562083Y-111565649D01*
X101548454Y-111560772D01*
X101535369Y-111554583D01*
X101522953Y-111547142D01*
X101511327Y-111538519D01*
X101500602Y-111528798D01*
X101490881Y-111518073D01*
X101482258Y-111506447D01*
X101474817Y-111494031D01*
X101468628Y-111480946D01*
X101463751Y-111467317D01*
X101460234Y-111453276D01*
X101458110Y-111438958D01*
X101457400Y-111424500D01*
X101457400Y-111079500D01*
X101458110Y-111065042D01*
X101460234Y-111050724D01*
X101463751Y-111036683D01*
X101468628Y-111023054D01*
X101474817Y-111009969D01*
X101482258Y-110997553D01*
X101490881Y-110985927D01*
X101500602Y-110975202D01*
X101511327Y-110965481D01*
X101522953Y-110956858D01*
X101535369Y-110949417D01*
X101548454Y-110943228D01*
X101562083Y-110938351D01*
X101576124Y-110934834D01*
X101590442Y-110932710D01*
X101604900Y-110932000D01*
X101899900Y-110932000D01*
X101914358Y-110932710D01*
X101914358Y-110932710D01*
G37*
D11*
G04 #@! TD*
G04 #@! TO.P,R5,1*
G04 #@! TO.N,GND*
X101752400Y-111252000D03*
D10*
G04 #@! TO.N,Net-(C5-Pad1)*
G04 #@! TO.C,R5*
G36*
X100944358Y-110932710D02*
X100958676Y-110934834D01*
X100972717Y-110938351D01*
X100986346Y-110943228D01*
X100999431Y-110949417D01*
X101011847Y-110956858D01*
X101023473Y-110965481D01*
X101034198Y-110975202D01*
X101043919Y-110985927D01*
X101052542Y-110997553D01*
X101059983Y-111009969D01*
X101066172Y-111023054D01*
X101071049Y-111036683D01*
X101074566Y-111050724D01*
X101076690Y-111065042D01*
X101077400Y-111079500D01*
X101077400Y-111424500D01*
X101076690Y-111438958D01*
X101074566Y-111453276D01*
X101071049Y-111467317D01*
X101066172Y-111480946D01*
X101059983Y-111494031D01*
X101052542Y-111506447D01*
X101043919Y-111518073D01*
X101034198Y-111528798D01*
X101023473Y-111538519D01*
X101011847Y-111547142D01*
X100999431Y-111554583D01*
X100986346Y-111560772D01*
X100972717Y-111565649D01*
X100958676Y-111569166D01*
X100944358Y-111571290D01*
X100929900Y-111572000D01*
X100634900Y-111572000D01*
X100620442Y-111571290D01*
X100606124Y-111569166D01*
X100592083Y-111565649D01*
X100578454Y-111560772D01*
X100565369Y-111554583D01*
X100552953Y-111547142D01*
X100541327Y-111538519D01*
X100530602Y-111528798D01*
X100520881Y-111518073D01*
X100512258Y-111506447D01*
X100504817Y-111494031D01*
X100498628Y-111480946D01*
X100493751Y-111467317D01*
X100490234Y-111453276D01*
X100488110Y-111438958D01*
X100487400Y-111424500D01*
X100487400Y-111079500D01*
X100488110Y-111065042D01*
X100490234Y-111050724D01*
X100493751Y-111036683D01*
X100498628Y-111023054D01*
X100504817Y-111009969D01*
X100512258Y-110997553D01*
X100520881Y-110985927D01*
X100530602Y-110975202D01*
X100541327Y-110965481D01*
X100552953Y-110956858D01*
X100565369Y-110949417D01*
X100578454Y-110943228D01*
X100592083Y-110938351D01*
X100606124Y-110934834D01*
X100620442Y-110932710D01*
X100634900Y-110932000D01*
X100929900Y-110932000D01*
X100944358Y-110932710D01*
X100944358Y-110932710D01*
G37*
D11*
G04 #@! TD*
G04 #@! TO.P,R5,2*
G04 #@! TO.N,Net-(C5-Pad1)*
X100782400Y-111252000D03*
D10*
G04 #@! TO.N,Net-(C6-Pad1)*
G04 #@! TO.C,R6*
G36*
X109660958Y-119743710D02*
X109675276Y-119745834D01*
X109689317Y-119749351D01*
X109702946Y-119754228D01*
X109716031Y-119760417D01*
X109728447Y-119767858D01*
X109740073Y-119776481D01*
X109750798Y-119786202D01*
X109760519Y-119796927D01*
X109769142Y-119808553D01*
X109776583Y-119820969D01*
X109782772Y-119834054D01*
X109787649Y-119847683D01*
X109791166Y-119861724D01*
X109793290Y-119876042D01*
X109794000Y-119890500D01*
X109794000Y-120185500D01*
X109793290Y-120199958D01*
X109791166Y-120214276D01*
X109787649Y-120228317D01*
X109782772Y-120241946D01*
X109776583Y-120255031D01*
X109769142Y-120267447D01*
X109760519Y-120279073D01*
X109750798Y-120289798D01*
X109740073Y-120299519D01*
X109728447Y-120308142D01*
X109716031Y-120315583D01*
X109702946Y-120321772D01*
X109689317Y-120326649D01*
X109675276Y-120330166D01*
X109660958Y-120332290D01*
X109646500Y-120333000D01*
X109301500Y-120333000D01*
X109287042Y-120332290D01*
X109272724Y-120330166D01*
X109258683Y-120326649D01*
X109245054Y-120321772D01*
X109231969Y-120315583D01*
X109219553Y-120308142D01*
X109207927Y-120299519D01*
X109197202Y-120289798D01*
X109187481Y-120279073D01*
X109178858Y-120267447D01*
X109171417Y-120255031D01*
X109165228Y-120241946D01*
X109160351Y-120228317D01*
X109156834Y-120214276D01*
X109154710Y-120199958D01*
X109154000Y-120185500D01*
X109154000Y-119890500D01*
X109154710Y-119876042D01*
X109156834Y-119861724D01*
X109160351Y-119847683D01*
X109165228Y-119834054D01*
X109171417Y-119820969D01*
X109178858Y-119808553D01*
X109187481Y-119796927D01*
X109197202Y-119786202D01*
X109207927Y-119776481D01*
X109219553Y-119767858D01*
X109231969Y-119760417D01*
X109245054Y-119754228D01*
X109258683Y-119749351D01*
X109272724Y-119745834D01*
X109287042Y-119743710D01*
X109301500Y-119743000D01*
X109646500Y-119743000D01*
X109660958Y-119743710D01*
X109660958Y-119743710D01*
G37*
D11*
G04 #@! TD*
G04 #@! TO.P,R6,2*
G04 #@! TO.N,Net-(C6-Pad1)*
X109474000Y-120038000D03*
D10*
G04 #@! TO.N,GND*
G04 #@! TO.C,R6*
G36*
X109660958Y-120713710D02*
X109675276Y-120715834D01*
X109689317Y-120719351D01*
X109702946Y-120724228D01*
X109716031Y-120730417D01*
X109728447Y-120737858D01*
X109740073Y-120746481D01*
X109750798Y-120756202D01*
X109760519Y-120766927D01*
X109769142Y-120778553D01*
X109776583Y-120790969D01*
X109782772Y-120804054D01*
X109787649Y-120817683D01*
X109791166Y-120831724D01*
X109793290Y-120846042D01*
X109794000Y-120860500D01*
X109794000Y-121155500D01*
X109793290Y-121169958D01*
X109791166Y-121184276D01*
X109787649Y-121198317D01*
X109782772Y-121211946D01*
X109776583Y-121225031D01*
X109769142Y-121237447D01*
X109760519Y-121249073D01*
X109750798Y-121259798D01*
X109740073Y-121269519D01*
X109728447Y-121278142D01*
X109716031Y-121285583D01*
X109702946Y-121291772D01*
X109689317Y-121296649D01*
X109675276Y-121300166D01*
X109660958Y-121302290D01*
X109646500Y-121303000D01*
X109301500Y-121303000D01*
X109287042Y-121302290D01*
X109272724Y-121300166D01*
X109258683Y-121296649D01*
X109245054Y-121291772D01*
X109231969Y-121285583D01*
X109219553Y-121278142D01*
X109207927Y-121269519D01*
X109197202Y-121259798D01*
X109187481Y-121249073D01*
X109178858Y-121237447D01*
X109171417Y-121225031D01*
X109165228Y-121211946D01*
X109160351Y-121198317D01*
X109156834Y-121184276D01*
X109154710Y-121169958D01*
X109154000Y-121155500D01*
X109154000Y-120860500D01*
X109154710Y-120846042D01*
X109156834Y-120831724D01*
X109160351Y-120817683D01*
X109165228Y-120804054D01*
X109171417Y-120790969D01*
X109178858Y-120778553D01*
X109187481Y-120766927D01*
X109197202Y-120756202D01*
X109207927Y-120746481D01*
X109219553Y-120737858D01*
X109231969Y-120730417D01*
X109245054Y-120724228D01*
X109258683Y-120719351D01*
X109272724Y-120715834D01*
X109287042Y-120713710D01*
X109301500Y-120713000D01*
X109646500Y-120713000D01*
X109660958Y-120713710D01*
X109660958Y-120713710D01*
G37*
D11*
G04 #@! TD*
G04 #@! TO.P,R6,1*
G04 #@! TO.N,GND*
X109474000Y-121008000D03*
D10*
G04 #@! TO.N,GND*
G04 #@! TO.C,R7*
G36*
X107882958Y-59903710D02*
X107897276Y-59905834D01*
X107911317Y-59909351D01*
X107924946Y-59914228D01*
X107938031Y-59920417D01*
X107950447Y-59927858D01*
X107962073Y-59936481D01*
X107972798Y-59946202D01*
X107982519Y-59956927D01*
X107991142Y-59968553D01*
X107998583Y-59980969D01*
X108004772Y-59994054D01*
X108009649Y-60007683D01*
X108013166Y-60021724D01*
X108015290Y-60036042D01*
X108016000Y-60050500D01*
X108016000Y-60345500D01*
X108015290Y-60359958D01*
X108013166Y-60374276D01*
X108009649Y-60388317D01*
X108004772Y-60401946D01*
X107998583Y-60415031D01*
X107991142Y-60427447D01*
X107982519Y-60439073D01*
X107972798Y-60449798D01*
X107962073Y-60459519D01*
X107950447Y-60468142D01*
X107938031Y-60475583D01*
X107924946Y-60481772D01*
X107911317Y-60486649D01*
X107897276Y-60490166D01*
X107882958Y-60492290D01*
X107868500Y-60493000D01*
X107523500Y-60493000D01*
X107509042Y-60492290D01*
X107494724Y-60490166D01*
X107480683Y-60486649D01*
X107467054Y-60481772D01*
X107453969Y-60475583D01*
X107441553Y-60468142D01*
X107429927Y-60459519D01*
X107419202Y-60449798D01*
X107409481Y-60439073D01*
X107400858Y-60427447D01*
X107393417Y-60415031D01*
X107387228Y-60401946D01*
X107382351Y-60388317D01*
X107378834Y-60374276D01*
X107376710Y-60359958D01*
X107376000Y-60345500D01*
X107376000Y-60050500D01*
X107376710Y-60036042D01*
X107378834Y-60021724D01*
X107382351Y-60007683D01*
X107387228Y-59994054D01*
X107393417Y-59980969D01*
X107400858Y-59968553D01*
X107409481Y-59956927D01*
X107419202Y-59946202D01*
X107429927Y-59936481D01*
X107441553Y-59927858D01*
X107453969Y-59920417D01*
X107467054Y-59914228D01*
X107480683Y-59909351D01*
X107494724Y-59905834D01*
X107509042Y-59903710D01*
X107523500Y-59903000D01*
X107868500Y-59903000D01*
X107882958Y-59903710D01*
X107882958Y-59903710D01*
G37*
D11*
G04 #@! TD*
G04 #@! TO.P,R7,1*
G04 #@! TO.N,GND*
X107696000Y-60198000D03*
D10*
G04 #@! TO.N,Net-(C7-Pad1)*
G04 #@! TO.C,R7*
G36*
X107882958Y-58933710D02*
X107897276Y-58935834D01*
X107911317Y-58939351D01*
X107924946Y-58944228D01*
X107938031Y-58950417D01*
X107950447Y-58957858D01*
X107962073Y-58966481D01*
X107972798Y-58976202D01*
X107982519Y-58986927D01*
X107991142Y-58998553D01*
X107998583Y-59010969D01*
X108004772Y-59024054D01*
X108009649Y-59037683D01*
X108013166Y-59051724D01*
X108015290Y-59066042D01*
X108016000Y-59080500D01*
X108016000Y-59375500D01*
X108015290Y-59389958D01*
X108013166Y-59404276D01*
X108009649Y-59418317D01*
X108004772Y-59431946D01*
X107998583Y-59445031D01*
X107991142Y-59457447D01*
X107982519Y-59469073D01*
X107972798Y-59479798D01*
X107962073Y-59489519D01*
X107950447Y-59498142D01*
X107938031Y-59505583D01*
X107924946Y-59511772D01*
X107911317Y-59516649D01*
X107897276Y-59520166D01*
X107882958Y-59522290D01*
X107868500Y-59523000D01*
X107523500Y-59523000D01*
X107509042Y-59522290D01*
X107494724Y-59520166D01*
X107480683Y-59516649D01*
X107467054Y-59511772D01*
X107453969Y-59505583D01*
X107441553Y-59498142D01*
X107429927Y-59489519D01*
X107419202Y-59479798D01*
X107409481Y-59469073D01*
X107400858Y-59457447D01*
X107393417Y-59445031D01*
X107387228Y-59431946D01*
X107382351Y-59418317D01*
X107378834Y-59404276D01*
X107376710Y-59389958D01*
X107376000Y-59375500D01*
X107376000Y-59080500D01*
X107376710Y-59066042D01*
X107378834Y-59051724D01*
X107382351Y-59037683D01*
X107387228Y-59024054D01*
X107393417Y-59010969D01*
X107400858Y-58998553D01*
X107409481Y-58986927D01*
X107419202Y-58976202D01*
X107429927Y-58966481D01*
X107441553Y-58957858D01*
X107453969Y-58950417D01*
X107467054Y-58944228D01*
X107480683Y-58939351D01*
X107494724Y-58935834D01*
X107509042Y-58933710D01*
X107523500Y-58933000D01*
X107868500Y-58933000D01*
X107882958Y-58933710D01*
X107882958Y-58933710D01*
G37*
D11*
G04 #@! TD*
G04 #@! TO.P,R7,2*
G04 #@! TO.N,Net-(C7-Pad1)*
X107696000Y-59228000D03*
D17*
G04 #@! TO.P,RV1,*
G04 #@! TO.N,*
X189484000Y-73762000D03*
X189484000Y-64262000D03*
D13*
G04 #@! TO.P,RV1,1*
G04 #@! TO.N,+3V3*
X181984000Y-71512000D03*
G04 #@! TO.P,RV1,2*
G04 #@! TO.N,Net-(IC1-Pad9)*
X181984000Y-69012000D03*
G04 #@! TO.P,RV1,3*
G04 #@! TO.N,GND*
X181984000Y-66512000D03*
G04 #@! TD*
D18*
G04 #@! TO.P,RV2,1*
G04 #@! TO.N,+3V3*
X99060000Y-67310000D03*
D19*
G04 #@! TO.P,RV2,2*
G04 #@! TO.N,Net-(R1-Pad2)*
X99060000Y-70810000D03*
G04 #@! TO.P,RV2,3*
G04 #@! TO.N,GND*
X172560000Y-67310000D03*
D20*
G04 #@! TO.P,RV2,MP*
G04 #@! TO.N,N/C*
X104410000Y-64860000D03*
X167210000Y-64860000D03*
X103210000Y-73260000D03*
X168410000Y-73260000D03*
G04 #@! TD*
G04 #@! TO.P,RV3,MP*
G04 #@! TO.N,N/C*
X168410000Y-103740000D03*
X103210000Y-103740000D03*
X167210000Y-95340000D03*
X104410000Y-95340000D03*
D19*
G04 #@! TO.P,RV3,3*
G04 #@! TO.N,GND*
X172560000Y-97790000D03*
G04 #@! TO.P,RV3,2*
G04 #@! TO.N,Net-(R2-Pad2)*
X99060000Y-101290000D03*
D18*
G04 #@! TO.P,RV3,1*
G04 #@! TO.N,+3V3*
X99060000Y-97790000D03*
G04 #@! TD*
G04 #@! TO.P,RV4,1*
G04 #@! TO.N,+3V3*
X99060000Y-128270000D03*
D19*
G04 #@! TO.P,RV4,2*
G04 #@! TO.N,Net-(R3-Pad2)*
X99060000Y-131770000D03*
G04 #@! TO.P,RV4,3*
G04 #@! TO.N,GND*
X172560000Y-128270000D03*
D20*
G04 #@! TO.P,RV4,MP*
G04 #@! TO.N,N/C*
X104410000Y-125820000D03*
X167210000Y-125820000D03*
X103210000Y-134220000D03*
X168410000Y-134220000D03*
G04 #@! TD*
D13*
G04 #@! TO.P,RV5,3*
G04 #@! TO.N,GND*
X181984000Y-97398000D03*
G04 #@! TO.P,RV5,2*
G04 #@! TO.N,Net-(IC1-Pad8)*
X181984000Y-99898000D03*
G04 #@! TO.P,RV5,1*
G04 #@! TO.N,+3V3*
X181984000Y-102398000D03*
D17*
G04 #@! TO.P,RV5,*
G04 #@! TO.N,*
X189484000Y-95148000D03*
X189484000Y-104648000D03*
G04 #@! TD*
D13*
G04 #@! TO.P,RV6,3*
G04 #@! TO.N,GND*
X181984000Y-127472000D03*
G04 #@! TO.P,RV6,2*
G04 #@! TO.N,Net-(IC1-Pad7)*
X181984000Y-129972000D03*
G04 #@! TO.P,RV6,1*
G04 #@! TO.N,+3V3*
X181984000Y-132472000D03*
D17*
G04 #@! TO.P,RV6,*
G04 #@! TO.N,*
X189484000Y-125222000D03*
X189484000Y-134722000D03*
G04 #@! TD*
D21*
G04 #@! TO.P,SW1,2*
G04 #@! TO.N,GND*
X128270000Y-115570000D03*
D22*
G04 #@! TO.P,SW1,1*
G04 #@! TO.N,Net-(IC1-Pad18)*
X130810000Y-115570000D03*
G04 #@! TD*
G04 #@! TO.P,SW2,1*
G04 #@! TO.N,+3V3*
X101981000Y-78105000D03*
D21*
G04 #@! TO.P,SW2,2*
G04 #@! TO.N,Net-(C4-Pad1)*
X99441000Y-78105000D03*
G04 #@! TD*
G04 #@! TO.P,SW3,2*
G04 #@! TO.N,Net-(C5-Pad1)*
X100076000Y-108458000D03*
D22*
G04 #@! TO.P,SW3,1*
G04 #@! TO.N,+3V3*
X102616000Y-108458000D03*
G04 #@! TD*
G04 #@! TO.P,SW4,1*
G04 #@! TO.N,+3V3*
X102108000Y-122809000D03*
D21*
G04 #@! TO.P,SW4,2*
G04 #@! TO.N,Net-(C6-Pad1)*
X99568000Y-122809000D03*
G04 #@! TD*
D22*
G04 #@! TO.P,SW5,1*
G04 #@! TO.N,+3V3*
X102616000Y-60198000D03*
D21*
G04 #@! TO.P,SW5,2*
G04 #@! TO.N,Net-(C7-Pad1)*
X100076000Y-60198000D03*
G04 #@! TD*
D10*
G04 #@! TO.N,Net-(C4-Pad1)*
G04 #@! TO.C,C4*
G36*
X100006958Y-83500710D02*
X100021276Y-83502834D01*
X100035317Y-83506351D01*
X100048946Y-83511228D01*
X100062031Y-83517417D01*
X100074447Y-83524858D01*
X100086073Y-83533481D01*
X100096798Y-83543202D01*
X100106519Y-83553927D01*
X100115142Y-83565553D01*
X100122583Y-83577969D01*
X100128772Y-83591054D01*
X100133649Y-83604683D01*
X100137166Y-83618724D01*
X100139290Y-83633042D01*
X100140000Y-83647500D01*
X100140000Y-83992500D01*
X100139290Y-84006958D01*
X100137166Y-84021276D01*
X100133649Y-84035317D01*
X100128772Y-84048946D01*
X100122583Y-84062031D01*
X100115142Y-84074447D01*
X100106519Y-84086073D01*
X100096798Y-84096798D01*
X100086073Y-84106519D01*
X100074447Y-84115142D01*
X100062031Y-84122583D01*
X100048946Y-84128772D01*
X100035317Y-84133649D01*
X100021276Y-84137166D01*
X100006958Y-84139290D01*
X99992500Y-84140000D01*
X99697500Y-84140000D01*
X99683042Y-84139290D01*
X99668724Y-84137166D01*
X99654683Y-84133649D01*
X99641054Y-84128772D01*
X99627969Y-84122583D01*
X99615553Y-84115142D01*
X99603927Y-84106519D01*
X99593202Y-84096798D01*
X99583481Y-84086073D01*
X99574858Y-84074447D01*
X99567417Y-84062031D01*
X99561228Y-84048946D01*
X99556351Y-84035317D01*
X99552834Y-84021276D01*
X99550710Y-84006958D01*
X99550000Y-83992500D01*
X99550000Y-83647500D01*
X99550710Y-83633042D01*
X99552834Y-83618724D01*
X99556351Y-83604683D01*
X99561228Y-83591054D01*
X99567417Y-83577969D01*
X99574858Y-83565553D01*
X99583481Y-83553927D01*
X99593202Y-83543202D01*
X99603927Y-83533481D01*
X99615553Y-83524858D01*
X99627969Y-83517417D01*
X99641054Y-83511228D01*
X99654683Y-83506351D01*
X99668724Y-83502834D01*
X99683042Y-83500710D01*
X99697500Y-83500000D01*
X99992500Y-83500000D01*
X100006958Y-83500710D01*
X100006958Y-83500710D01*
G37*
D11*
G04 #@! TD*
G04 #@! TO.P,C4,1*
G04 #@! TO.N,Net-(C4-Pad1)*
X99845000Y-83820000D03*
D10*
G04 #@! TO.N,GND*
G04 #@! TO.C,C4*
G36*
X100976958Y-83500710D02*
X100991276Y-83502834D01*
X101005317Y-83506351D01*
X101018946Y-83511228D01*
X101032031Y-83517417D01*
X101044447Y-83524858D01*
X101056073Y-83533481D01*
X101066798Y-83543202D01*
X101076519Y-83553927D01*
X101085142Y-83565553D01*
X101092583Y-83577969D01*
X101098772Y-83591054D01*
X101103649Y-83604683D01*
X101107166Y-83618724D01*
X101109290Y-83633042D01*
X101110000Y-83647500D01*
X101110000Y-83992500D01*
X101109290Y-84006958D01*
X101107166Y-84021276D01*
X101103649Y-84035317D01*
X101098772Y-84048946D01*
X101092583Y-84062031D01*
X101085142Y-84074447D01*
X101076519Y-84086073D01*
X101066798Y-84096798D01*
X101056073Y-84106519D01*
X101044447Y-84115142D01*
X101032031Y-84122583D01*
X101018946Y-84128772D01*
X101005317Y-84133649D01*
X100991276Y-84137166D01*
X100976958Y-84139290D01*
X100962500Y-84140000D01*
X100667500Y-84140000D01*
X100653042Y-84139290D01*
X100638724Y-84137166D01*
X100624683Y-84133649D01*
X100611054Y-84128772D01*
X100597969Y-84122583D01*
X100585553Y-84115142D01*
X100573927Y-84106519D01*
X100563202Y-84096798D01*
X100553481Y-84086073D01*
X100544858Y-84074447D01*
X100537417Y-84062031D01*
X100531228Y-84048946D01*
X100526351Y-84035317D01*
X100522834Y-84021276D01*
X100520710Y-84006958D01*
X100520000Y-83992500D01*
X100520000Y-83647500D01*
X100520710Y-83633042D01*
X100522834Y-83618724D01*
X100526351Y-83604683D01*
X100531228Y-83591054D01*
X100537417Y-83577969D01*
X100544858Y-83565553D01*
X100553481Y-83553927D01*
X100563202Y-83543202D01*
X100573927Y-83533481D01*
X100585553Y-83524858D01*
X100597969Y-83517417D01*
X100611054Y-83511228D01*
X100624683Y-83506351D01*
X100638724Y-83502834D01*
X100653042Y-83500710D01*
X100667500Y-83500000D01*
X100962500Y-83500000D01*
X100976958Y-83500710D01*
X100976958Y-83500710D01*
G37*
D11*
G04 #@! TD*
G04 #@! TO.P,C4,2*
G04 #@! TO.N,GND*
X100815000Y-83820000D03*
D10*
G04 #@! TO.N,GND*
G04 #@! TO.C,C5*
G36*
X101914358Y-113320310D02*
X101928676Y-113322434D01*
X101942717Y-113325951D01*
X101956346Y-113330828D01*
X101969431Y-113337017D01*
X101981847Y-113344458D01*
X101993473Y-113353081D01*
X102004198Y-113362802D01*
X102013919Y-113373527D01*
X102022542Y-113385153D01*
X102029983Y-113397569D01*
X102036172Y-113410654D01*
X102041049Y-113424283D01*
X102044566Y-113438324D01*
X102046690Y-113452642D01*
X102047400Y-113467100D01*
X102047400Y-113812100D01*
X102046690Y-113826558D01*
X102044566Y-113840876D01*
X102041049Y-113854917D01*
X102036172Y-113868546D01*
X102029983Y-113881631D01*
X102022542Y-113894047D01*
X102013919Y-113905673D01*
X102004198Y-113916398D01*
X101993473Y-113926119D01*
X101981847Y-113934742D01*
X101969431Y-113942183D01*
X101956346Y-113948372D01*
X101942717Y-113953249D01*
X101928676Y-113956766D01*
X101914358Y-113958890D01*
X101899900Y-113959600D01*
X101604900Y-113959600D01*
X101590442Y-113958890D01*
X101576124Y-113956766D01*
X101562083Y-113953249D01*
X101548454Y-113948372D01*
X101535369Y-113942183D01*
X101522953Y-113934742D01*
X101511327Y-113926119D01*
X101500602Y-113916398D01*
X101490881Y-113905673D01*
X101482258Y-113894047D01*
X101474817Y-113881631D01*
X101468628Y-113868546D01*
X101463751Y-113854917D01*
X101460234Y-113840876D01*
X101458110Y-113826558D01*
X101457400Y-113812100D01*
X101457400Y-113467100D01*
X101458110Y-113452642D01*
X101460234Y-113438324D01*
X101463751Y-113424283D01*
X101468628Y-113410654D01*
X101474817Y-113397569D01*
X101482258Y-113385153D01*
X101490881Y-113373527D01*
X101500602Y-113362802D01*
X101511327Y-113353081D01*
X101522953Y-113344458D01*
X101535369Y-113337017D01*
X101548454Y-113330828D01*
X101562083Y-113325951D01*
X101576124Y-113322434D01*
X101590442Y-113320310D01*
X101604900Y-113319600D01*
X101899900Y-113319600D01*
X101914358Y-113320310D01*
X101914358Y-113320310D01*
G37*
D11*
G04 #@! TD*
G04 #@! TO.P,C5,2*
G04 #@! TO.N,GND*
X101752400Y-113639600D03*
D10*
G04 #@! TO.N,Net-(C5-Pad1)*
G04 #@! TO.C,C5*
G36*
X100944358Y-113320310D02*
X100958676Y-113322434D01*
X100972717Y-113325951D01*
X100986346Y-113330828D01*
X100999431Y-113337017D01*
X101011847Y-113344458D01*
X101023473Y-113353081D01*
X101034198Y-113362802D01*
X101043919Y-113373527D01*
X101052542Y-113385153D01*
X101059983Y-113397569D01*
X101066172Y-113410654D01*
X101071049Y-113424283D01*
X101074566Y-113438324D01*
X101076690Y-113452642D01*
X101077400Y-113467100D01*
X101077400Y-113812100D01*
X101076690Y-113826558D01*
X101074566Y-113840876D01*
X101071049Y-113854917D01*
X101066172Y-113868546D01*
X101059983Y-113881631D01*
X101052542Y-113894047D01*
X101043919Y-113905673D01*
X101034198Y-113916398D01*
X101023473Y-113926119D01*
X101011847Y-113934742D01*
X100999431Y-113942183D01*
X100986346Y-113948372D01*
X100972717Y-113953249D01*
X100958676Y-113956766D01*
X100944358Y-113958890D01*
X100929900Y-113959600D01*
X100634900Y-113959600D01*
X100620442Y-113958890D01*
X100606124Y-113956766D01*
X100592083Y-113953249D01*
X100578454Y-113948372D01*
X100565369Y-113942183D01*
X100552953Y-113934742D01*
X100541327Y-113926119D01*
X100530602Y-113916398D01*
X100520881Y-113905673D01*
X100512258Y-113894047D01*
X100504817Y-113881631D01*
X100498628Y-113868546D01*
X100493751Y-113854917D01*
X100490234Y-113840876D01*
X100488110Y-113826558D01*
X100487400Y-113812100D01*
X100487400Y-113467100D01*
X100488110Y-113452642D01*
X100490234Y-113438324D01*
X100493751Y-113424283D01*
X100498628Y-113410654D01*
X100504817Y-113397569D01*
X100512258Y-113385153D01*
X100520881Y-113373527D01*
X100530602Y-113362802D01*
X100541327Y-113353081D01*
X100552953Y-113344458D01*
X100565369Y-113337017D01*
X100578454Y-113330828D01*
X100592083Y-113325951D01*
X100606124Y-113322434D01*
X100620442Y-113320310D01*
X100634900Y-113319600D01*
X100929900Y-113319600D01*
X100944358Y-113320310D01*
X100944358Y-113320310D01*
G37*
D11*
G04 #@! TD*
G04 #@! TO.P,C5,1*
G04 #@! TO.N,Net-(C5-Pad1)*
X100782400Y-113639600D03*
D10*
G04 #@! TO.N,Net-(C6-Pad1)*
G04 #@! TO.C,C6*
G36*
X107324158Y-119743710D02*
X107338476Y-119745834D01*
X107352517Y-119749351D01*
X107366146Y-119754228D01*
X107379231Y-119760417D01*
X107391647Y-119767858D01*
X107403273Y-119776481D01*
X107413998Y-119786202D01*
X107423719Y-119796927D01*
X107432342Y-119808553D01*
X107439783Y-119820969D01*
X107445972Y-119834054D01*
X107450849Y-119847683D01*
X107454366Y-119861724D01*
X107456490Y-119876042D01*
X107457200Y-119890500D01*
X107457200Y-120185500D01*
X107456490Y-120199958D01*
X107454366Y-120214276D01*
X107450849Y-120228317D01*
X107445972Y-120241946D01*
X107439783Y-120255031D01*
X107432342Y-120267447D01*
X107423719Y-120279073D01*
X107413998Y-120289798D01*
X107403273Y-120299519D01*
X107391647Y-120308142D01*
X107379231Y-120315583D01*
X107366146Y-120321772D01*
X107352517Y-120326649D01*
X107338476Y-120330166D01*
X107324158Y-120332290D01*
X107309700Y-120333000D01*
X106964700Y-120333000D01*
X106950242Y-120332290D01*
X106935924Y-120330166D01*
X106921883Y-120326649D01*
X106908254Y-120321772D01*
X106895169Y-120315583D01*
X106882753Y-120308142D01*
X106871127Y-120299519D01*
X106860402Y-120289798D01*
X106850681Y-120279073D01*
X106842058Y-120267447D01*
X106834617Y-120255031D01*
X106828428Y-120241946D01*
X106823551Y-120228317D01*
X106820034Y-120214276D01*
X106817910Y-120199958D01*
X106817200Y-120185500D01*
X106817200Y-119890500D01*
X106817910Y-119876042D01*
X106820034Y-119861724D01*
X106823551Y-119847683D01*
X106828428Y-119834054D01*
X106834617Y-119820969D01*
X106842058Y-119808553D01*
X106850681Y-119796927D01*
X106860402Y-119786202D01*
X106871127Y-119776481D01*
X106882753Y-119767858D01*
X106895169Y-119760417D01*
X106908254Y-119754228D01*
X106921883Y-119749351D01*
X106935924Y-119745834D01*
X106950242Y-119743710D01*
X106964700Y-119743000D01*
X107309700Y-119743000D01*
X107324158Y-119743710D01*
X107324158Y-119743710D01*
G37*
D11*
G04 #@! TD*
G04 #@! TO.P,C6,1*
G04 #@! TO.N,Net-(C6-Pad1)*
X107137200Y-120038000D03*
D10*
G04 #@! TO.N,GND*
G04 #@! TO.C,C6*
G36*
X107324158Y-120713710D02*
X107338476Y-120715834D01*
X107352517Y-120719351D01*
X107366146Y-120724228D01*
X107379231Y-120730417D01*
X107391647Y-120737858D01*
X107403273Y-120746481D01*
X107413998Y-120756202D01*
X107423719Y-120766927D01*
X107432342Y-120778553D01*
X107439783Y-120790969D01*
X107445972Y-120804054D01*
X107450849Y-120817683D01*
X107454366Y-120831724D01*
X107456490Y-120846042D01*
X107457200Y-120860500D01*
X107457200Y-121155500D01*
X107456490Y-121169958D01*
X107454366Y-121184276D01*
X107450849Y-121198317D01*
X107445972Y-121211946D01*
X107439783Y-121225031D01*
X107432342Y-121237447D01*
X107423719Y-121249073D01*
X107413998Y-121259798D01*
X107403273Y-121269519D01*
X107391647Y-121278142D01*
X107379231Y-121285583D01*
X107366146Y-121291772D01*
X107352517Y-121296649D01*
X107338476Y-121300166D01*
X107324158Y-121302290D01*
X107309700Y-121303000D01*
X106964700Y-121303000D01*
X106950242Y-121302290D01*
X106935924Y-121300166D01*
X106921883Y-121296649D01*
X106908254Y-121291772D01*
X106895169Y-121285583D01*
X106882753Y-121278142D01*
X106871127Y-121269519D01*
X106860402Y-121259798D01*
X106850681Y-121249073D01*
X106842058Y-121237447D01*
X106834617Y-121225031D01*
X106828428Y-121211946D01*
X106823551Y-121198317D01*
X106820034Y-121184276D01*
X106817910Y-121169958D01*
X106817200Y-121155500D01*
X106817200Y-120860500D01*
X106817910Y-120846042D01*
X106820034Y-120831724D01*
X106823551Y-120817683D01*
X106828428Y-120804054D01*
X106834617Y-120790969D01*
X106842058Y-120778553D01*
X106850681Y-120766927D01*
X106860402Y-120756202D01*
X106871127Y-120746481D01*
X106882753Y-120737858D01*
X106895169Y-120730417D01*
X106908254Y-120724228D01*
X106921883Y-120719351D01*
X106935924Y-120715834D01*
X106950242Y-120713710D01*
X106964700Y-120713000D01*
X107309700Y-120713000D01*
X107324158Y-120713710D01*
X107324158Y-120713710D01*
G37*
D11*
G04 #@! TD*
G04 #@! TO.P,C6,2*
G04 #@! TO.N,GND*
X107137200Y-121008000D03*
D10*
G04 #@! TO.N,GND*
G04 #@! TO.C,C7*
G36*
X110219758Y-59908510D02*
X110234076Y-59910634D01*
X110248117Y-59914151D01*
X110261746Y-59919028D01*
X110274831Y-59925217D01*
X110287247Y-59932658D01*
X110298873Y-59941281D01*
X110309598Y-59951002D01*
X110319319Y-59961727D01*
X110327942Y-59973353D01*
X110335383Y-59985769D01*
X110341572Y-59998854D01*
X110346449Y-60012483D01*
X110349966Y-60026524D01*
X110352090Y-60040842D01*
X110352800Y-60055300D01*
X110352800Y-60350300D01*
X110352090Y-60364758D01*
X110349966Y-60379076D01*
X110346449Y-60393117D01*
X110341572Y-60406746D01*
X110335383Y-60419831D01*
X110327942Y-60432247D01*
X110319319Y-60443873D01*
X110309598Y-60454598D01*
X110298873Y-60464319D01*
X110287247Y-60472942D01*
X110274831Y-60480383D01*
X110261746Y-60486572D01*
X110248117Y-60491449D01*
X110234076Y-60494966D01*
X110219758Y-60497090D01*
X110205300Y-60497800D01*
X109860300Y-60497800D01*
X109845842Y-60497090D01*
X109831524Y-60494966D01*
X109817483Y-60491449D01*
X109803854Y-60486572D01*
X109790769Y-60480383D01*
X109778353Y-60472942D01*
X109766727Y-60464319D01*
X109756002Y-60454598D01*
X109746281Y-60443873D01*
X109737658Y-60432247D01*
X109730217Y-60419831D01*
X109724028Y-60406746D01*
X109719151Y-60393117D01*
X109715634Y-60379076D01*
X109713510Y-60364758D01*
X109712800Y-60350300D01*
X109712800Y-60055300D01*
X109713510Y-60040842D01*
X109715634Y-60026524D01*
X109719151Y-60012483D01*
X109724028Y-59998854D01*
X109730217Y-59985769D01*
X109737658Y-59973353D01*
X109746281Y-59961727D01*
X109756002Y-59951002D01*
X109766727Y-59941281D01*
X109778353Y-59932658D01*
X109790769Y-59925217D01*
X109803854Y-59919028D01*
X109817483Y-59914151D01*
X109831524Y-59910634D01*
X109845842Y-59908510D01*
X109860300Y-59907800D01*
X110205300Y-59907800D01*
X110219758Y-59908510D01*
X110219758Y-59908510D01*
G37*
D11*
G04 #@! TD*
G04 #@! TO.P,C7,2*
G04 #@! TO.N,GND*
X110032800Y-60202800D03*
D10*
G04 #@! TO.N,Net-(C7-Pad1)*
G04 #@! TO.C,C7*
G36*
X110219758Y-58938510D02*
X110234076Y-58940634D01*
X110248117Y-58944151D01*
X110261746Y-58949028D01*
X110274831Y-58955217D01*
X110287247Y-58962658D01*
X110298873Y-58971281D01*
X110309598Y-58981002D01*
X110319319Y-58991727D01*
X110327942Y-59003353D01*
X110335383Y-59015769D01*
X110341572Y-59028854D01*
X110346449Y-59042483D01*
X110349966Y-59056524D01*
X110352090Y-59070842D01*
X110352800Y-59085300D01*
X110352800Y-59380300D01*
X110352090Y-59394758D01*
X110349966Y-59409076D01*
X110346449Y-59423117D01*
X110341572Y-59436746D01*
X110335383Y-59449831D01*
X110327942Y-59462247D01*
X110319319Y-59473873D01*
X110309598Y-59484598D01*
X110298873Y-59494319D01*
X110287247Y-59502942D01*
X110274831Y-59510383D01*
X110261746Y-59516572D01*
X110248117Y-59521449D01*
X110234076Y-59524966D01*
X110219758Y-59527090D01*
X110205300Y-59527800D01*
X109860300Y-59527800D01*
X109845842Y-59527090D01*
X109831524Y-59524966D01*
X109817483Y-59521449D01*
X109803854Y-59516572D01*
X109790769Y-59510383D01*
X109778353Y-59502942D01*
X109766727Y-59494319D01*
X109756002Y-59484598D01*
X109746281Y-59473873D01*
X109737658Y-59462247D01*
X109730217Y-59449831D01*
X109724028Y-59436746D01*
X109719151Y-59423117D01*
X109715634Y-59409076D01*
X109713510Y-59394758D01*
X109712800Y-59380300D01*
X109712800Y-59085300D01*
X109713510Y-59070842D01*
X109715634Y-59056524D01*
X109719151Y-59042483D01*
X109724028Y-59028854D01*
X109730217Y-59015769D01*
X109737658Y-59003353D01*
X109746281Y-58991727D01*
X109756002Y-58981002D01*
X109766727Y-58971281D01*
X109778353Y-58962658D01*
X109790769Y-58955217D01*
X109803854Y-58949028D01*
X109817483Y-58944151D01*
X109831524Y-58940634D01*
X109845842Y-58938510D01*
X109860300Y-58937800D01*
X110205300Y-58937800D01*
X110219758Y-58938510D01*
X110219758Y-58938510D01*
G37*
D11*
G04 #@! TD*
G04 #@! TO.P,C7,1*
G04 #@! TO.N,Net-(C7-Pad1)*
X110032800Y-59232800D03*
D10*
G04 #@! TO.N,Net-(D1-Pad1)*
G04 #@! TO.C,R8*
G36*
X128789958Y-58608710D02*
X128804276Y-58610834D01*
X128818317Y-58614351D01*
X128831946Y-58619228D01*
X128845031Y-58625417D01*
X128857447Y-58632858D01*
X128869073Y-58641481D01*
X128879798Y-58651202D01*
X128889519Y-58661927D01*
X128898142Y-58673553D01*
X128905583Y-58685969D01*
X128911772Y-58699054D01*
X128916649Y-58712683D01*
X128920166Y-58726724D01*
X128922290Y-58741042D01*
X128923000Y-58755500D01*
X128923000Y-59100500D01*
X128922290Y-59114958D01*
X128920166Y-59129276D01*
X128916649Y-59143317D01*
X128911772Y-59156946D01*
X128905583Y-59170031D01*
X128898142Y-59182447D01*
X128889519Y-59194073D01*
X128879798Y-59204798D01*
X128869073Y-59214519D01*
X128857447Y-59223142D01*
X128845031Y-59230583D01*
X128831946Y-59236772D01*
X128818317Y-59241649D01*
X128804276Y-59245166D01*
X128789958Y-59247290D01*
X128775500Y-59248000D01*
X128480500Y-59248000D01*
X128466042Y-59247290D01*
X128451724Y-59245166D01*
X128437683Y-59241649D01*
X128424054Y-59236772D01*
X128410969Y-59230583D01*
X128398553Y-59223142D01*
X128386927Y-59214519D01*
X128376202Y-59204798D01*
X128366481Y-59194073D01*
X128357858Y-59182447D01*
X128350417Y-59170031D01*
X128344228Y-59156946D01*
X128339351Y-59143317D01*
X128335834Y-59129276D01*
X128333710Y-59114958D01*
X128333000Y-59100500D01*
X128333000Y-58755500D01*
X128333710Y-58741042D01*
X128335834Y-58726724D01*
X128339351Y-58712683D01*
X128344228Y-58699054D01*
X128350417Y-58685969D01*
X128357858Y-58673553D01*
X128366481Y-58661927D01*
X128376202Y-58651202D01*
X128386927Y-58641481D01*
X128398553Y-58632858D01*
X128410969Y-58625417D01*
X128424054Y-58619228D01*
X128437683Y-58614351D01*
X128451724Y-58610834D01*
X128466042Y-58608710D01*
X128480500Y-58608000D01*
X128775500Y-58608000D01*
X128789958Y-58608710D01*
X128789958Y-58608710D01*
G37*
D11*
G04 #@! TD*
G04 #@! TO.P,R8,1*
G04 #@! TO.N,Net-(D1-Pad1)*
X128628000Y-58928000D03*
D10*
G04 #@! TO.N,GND*
G04 #@! TO.C,R8*
G36*
X127819958Y-58608710D02*
X127834276Y-58610834D01*
X127848317Y-58614351D01*
X127861946Y-58619228D01*
X127875031Y-58625417D01*
X127887447Y-58632858D01*
X127899073Y-58641481D01*
X127909798Y-58651202D01*
X127919519Y-58661927D01*
X127928142Y-58673553D01*
X127935583Y-58685969D01*
X127941772Y-58699054D01*
X127946649Y-58712683D01*
X127950166Y-58726724D01*
X127952290Y-58741042D01*
X127953000Y-58755500D01*
X127953000Y-59100500D01*
X127952290Y-59114958D01*
X127950166Y-59129276D01*
X127946649Y-59143317D01*
X127941772Y-59156946D01*
X127935583Y-59170031D01*
X127928142Y-59182447D01*
X127919519Y-59194073D01*
X127909798Y-59204798D01*
X127899073Y-59214519D01*
X127887447Y-59223142D01*
X127875031Y-59230583D01*
X127861946Y-59236772D01*
X127848317Y-59241649D01*
X127834276Y-59245166D01*
X127819958Y-59247290D01*
X127805500Y-59248000D01*
X127510500Y-59248000D01*
X127496042Y-59247290D01*
X127481724Y-59245166D01*
X127467683Y-59241649D01*
X127454054Y-59236772D01*
X127440969Y-59230583D01*
X127428553Y-59223142D01*
X127416927Y-59214519D01*
X127406202Y-59204798D01*
X127396481Y-59194073D01*
X127387858Y-59182447D01*
X127380417Y-59170031D01*
X127374228Y-59156946D01*
X127369351Y-59143317D01*
X127365834Y-59129276D01*
X127363710Y-59114958D01*
X127363000Y-59100500D01*
X127363000Y-58755500D01*
X127363710Y-58741042D01*
X127365834Y-58726724D01*
X127369351Y-58712683D01*
X127374228Y-58699054D01*
X127380417Y-58685969D01*
X127387858Y-58673553D01*
X127396481Y-58661927D01*
X127406202Y-58651202D01*
X127416927Y-58641481D01*
X127428553Y-58632858D01*
X127440969Y-58625417D01*
X127454054Y-58619228D01*
X127467683Y-58614351D01*
X127481724Y-58610834D01*
X127496042Y-58608710D01*
X127510500Y-58608000D01*
X127805500Y-58608000D01*
X127819958Y-58608710D01*
X127819958Y-58608710D01*
G37*
D11*
G04 #@! TD*
G04 #@! TO.P,R8,2*
G04 #@! TO.N,GND*
X127658000Y-58928000D03*
D12*
G04 #@! TO.P,D2,1*
G04 #@! TO.N,Net-(D2-Pad1)*
X140748001Y-58979001D03*
D13*
G04 #@! TO.P,D2,2*
G04 #@! TO.N,Net-(D2-Pad2)*
X143288001Y-58979001D03*
G04 #@! TD*
D10*
G04 #@! TO.N,Net-(D2-Pad1)*
G04 #@! TO.C,R9*
G36*
X138822958Y-58608710D02*
X138837276Y-58610834D01*
X138851317Y-58614351D01*
X138864946Y-58619228D01*
X138878031Y-58625417D01*
X138890447Y-58632858D01*
X138902073Y-58641481D01*
X138912798Y-58651202D01*
X138922519Y-58661927D01*
X138931142Y-58673553D01*
X138938583Y-58685969D01*
X138944772Y-58699054D01*
X138949649Y-58712683D01*
X138953166Y-58726724D01*
X138955290Y-58741042D01*
X138956000Y-58755500D01*
X138956000Y-59100500D01*
X138955290Y-59114958D01*
X138953166Y-59129276D01*
X138949649Y-59143317D01*
X138944772Y-59156946D01*
X138938583Y-59170031D01*
X138931142Y-59182447D01*
X138922519Y-59194073D01*
X138912798Y-59204798D01*
X138902073Y-59214519D01*
X138890447Y-59223142D01*
X138878031Y-59230583D01*
X138864946Y-59236772D01*
X138851317Y-59241649D01*
X138837276Y-59245166D01*
X138822958Y-59247290D01*
X138808500Y-59248000D01*
X138513500Y-59248000D01*
X138499042Y-59247290D01*
X138484724Y-59245166D01*
X138470683Y-59241649D01*
X138457054Y-59236772D01*
X138443969Y-59230583D01*
X138431553Y-59223142D01*
X138419927Y-59214519D01*
X138409202Y-59204798D01*
X138399481Y-59194073D01*
X138390858Y-59182447D01*
X138383417Y-59170031D01*
X138377228Y-59156946D01*
X138372351Y-59143317D01*
X138368834Y-59129276D01*
X138366710Y-59114958D01*
X138366000Y-59100500D01*
X138366000Y-58755500D01*
X138366710Y-58741042D01*
X138368834Y-58726724D01*
X138372351Y-58712683D01*
X138377228Y-58699054D01*
X138383417Y-58685969D01*
X138390858Y-58673553D01*
X138399481Y-58661927D01*
X138409202Y-58651202D01*
X138419927Y-58641481D01*
X138431553Y-58632858D01*
X138443969Y-58625417D01*
X138457054Y-58619228D01*
X138470683Y-58614351D01*
X138484724Y-58610834D01*
X138499042Y-58608710D01*
X138513500Y-58608000D01*
X138808500Y-58608000D01*
X138822958Y-58608710D01*
X138822958Y-58608710D01*
G37*
D11*
G04 #@! TD*
G04 #@! TO.P,R9,1*
G04 #@! TO.N,Net-(D2-Pad1)*
X138661000Y-58928000D03*
D10*
G04 #@! TO.N,GND*
G04 #@! TO.C,R9*
G36*
X137852958Y-58608710D02*
X137867276Y-58610834D01*
X137881317Y-58614351D01*
X137894946Y-58619228D01*
X137908031Y-58625417D01*
X137920447Y-58632858D01*
X137932073Y-58641481D01*
X137942798Y-58651202D01*
X137952519Y-58661927D01*
X137961142Y-58673553D01*
X137968583Y-58685969D01*
X137974772Y-58699054D01*
X137979649Y-58712683D01*
X137983166Y-58726724D01*
X137985290Y-58741042D01*
X137986000Y-58755500D01*
X137986000Y-59100500D01*
X137985290Y-59114958D01*
X137983166Y-59129276D01*
X137979649Y-59143317D01*
X137974772Y-59156946D01*
X137968583Y-59170031D01*
X137961142Y-59182447D01*
X137952519Y-59194073D01*
X137942798Y-59204798D01*
X137932073Y-59214519D01*
X137920447Y-59223142D01*
X137908031Y-59230583D01*
X137894946Y-59236772D01*
X137881317Y-59241649D01*
X137867276Y-59245166D01*
X137852958Y-59247290D01*
X137838500Y-59248000D01*
X137543500Y-59248000D01*
X137529042Y-59247290D01*
X137514724Y-59245166D01*
X137500683Y-59241649D01*
X137487054Y-59236772D01*
X137473969Y-59230583D01*
X137461553Y-59223142D01*
X137449927Y-59214519D01*
X137439202Y-59204798D01*
X137429481Y-59194073D01*
X137420858Y-59182447D01*
X137413417Y-59170031D01*
X137407228Y-59156946D01*
X137402351Y-59143317D01*
X137398834Y-59129276D01*
X137396710Y-59114958D01*
X137396000Y-59100500D01*
X137396000Y-58755500D01*
X137396710Y-58741042D01*
X137398834Y-58726724D01*
X137402351Y-58712683D01*
X137407228Y-58699054D01*
X137413417Y-58685969D01*
X137420858Y-58673553D01*
X137429481Y-58661927D01*
X137439202Y-58651202D01*
X137449927Y-58641481D01*
X137461553Y-58632858D01*
X137473969Y-58625417D01*
X137487054Y-58619228D01*
X137500683Y-58614351D01*
X137514724Y-58610834D01*
X137529042Y-58608710D01*
X137543500Y-58608000D01*
X137838500Y-58608000D01*
X137852958Y-58608710D01*
X137852958Y-58608710D01*
G37*
D11*
G04 #@! TD*
G04 #@! TO.P,R9,2*
G04 #@! TO.N,GND*
X137691000Y-58928000D03*
D23*
G04 #@! TO.N,Net-(C2-Pad1)*
X115570000Y-99060000D03*
G04 #@! TO.N,Net-(C4-Pad1)*
X132080000Y-86995000D03*
G04 #@! TO.N,Net-(C6-Pad1)*
X111633000Y-128778000D03*
G04 #@! TO.N,Net-(C7-Pad1)*
X134620000Y-83185000D03*
G04 #@! TO.N,Net-(D2-Pad2)*
X147207501Y-75198501D03*
G04 #@! TD*
D24*
G04 #@! TO.N,Net-(C1-Pad1)*
X108250000Y-81534000D02*
X105410000Y-81534000D01*
X108250000Y-81954000D02*
X108250000Y-81534000D01*
X108592000Y-82296000D02*
X108250000Y-81954000D01*
X112522000Y-82296000D02*
X108592000Y-82296000D01*
X133350000Y-89535000D02*
X133350000Y-86868000D01*
X133350000Y-86868000D02*
X128524000Y-82042000D01*
X128524000Y-82042000D02*
X112776000Y-82042000D01*
X112776000Y-82042000D02*
X112522000Y-82296000D01*
G04 #@! TO.N,Net-(C2-Pad1)*
X106807000Y-112903000D02*
X106807000Y-112141000D01*
X106172000Y-113538000D02*
X106807000Y-112903000D01*
X104752000Y-113538000D02*
X106172000Y-113538000D01*
X108839000Y-110744000D02*
X108839000Y-105791000D01*
X107442000Y-112141000D02*
X108839000Y-110744000D01*
X108839000Y-105791000D02*
X115570000Y-99060000D01*
X106807000Y-112141000D02*
X107442000Y-112141000D01*
G04 #@! TO.N,Net-(C3-Pad1)*
X109093000Y-122682000D02*
X111148000Y-122682000D01*
X105537000Y-87630000D02*
X126365000Y-87630000D01*
X97155000Y-117221000D02*
X97155000Y-96012000D01*
X97155000Y-96012000D02*
X105537000Y-87630000D01*
X111148000Y-122682000D02*
X111148000Y-119149000D01*
X111148000Y-119149000D02*
X110363000Y-118364000D01*
X110363000Y-118364000D02*
X98298000Y-118364000D01*
X126365000Y-87630000D02*
X128270000Y-89535000D01*
X98298000Y-118364000D02*
X97155000Y-117221000D01*
G04 #@! TO.N,Net-(IC1-Pad7)*
X179197000Y-128270000D02*
X180899000Y-129972000D01*
X140970000Y-89535000D02*
X143764000Y-86741000D01*
X179197000Y-99695000D02*
X179197000Y-128270000D01*
X180899000Y-129972000D02*
X181984000Y-129972000D01*
X143764000Y-86741000D02*
X166243000Y-86741000D01*
X166243000Y-86741000D02*
X179197000Y-99695000D01*
G04 #@! TO.N,Net-(IC1-Pad8)*
X180797000Y-99898000D02*
X181984000Y-99898000D01*
X180467000Y-99568000D02*
X180797000Y-99898000D01*
X138430000Y-89535000D02*
X143637000Y-84328000D01*
X165735000Y-84328000D02*
X180467000Y-99060000D01*
X143637000Y-84328000D02*
X165735000Y-84328000D01*
X180467000Y-99060000D02*
X180467000Y-99568000D01*
G04 #@! TO.N,Net-(IC1-Pad9)*
X177546000Y-71628000D02*
X180162000Y-69012000D01*
X177546000Y-75946000D02*
X177546000Y-71628000D01*
X144526000Y-80899000D02*
X172593000Y-80899000D01*
X180162000Y-69012000D02*
X181984000Y-69012000D01*
X135890000Y-89535000D02*
X144526000Y-80899000D01*
X172593000Y-80899000D02*
X177546000Y-75946000D01*
G04 #@! TO.N,Net-(IC1-Pad18)*
X130810000Y-111032332D02*
X130810000Y-115570000D01*
X130810000Y-109855000D02*
X130810000Y-111032332D01*
G04 #@! TO.N,Net-(R1-Pad2)*
X110744000Y-81534000D02*
X109728000Y-81534000D01*
X109728000Y-81534000D02*
X109220000Y-81534000D01*
X111252000Y-81026000D02*
X110744000Y-81534000D01*
X111252000Y-78994000D02*
X111252000Y-81026000D01*
X99060000Y-70810000D02*
X103633991Y-70810000D01*
X103633991Y-70810000D02*
X109220000Y-76396009D01*
X109220000Y-76396009D02*
X109220000Y-76962000D01*
X109220000Y-76962000D02*
X111252000Y-78994000D01*
G04 #@! TO.N,Net-(R2-Pad2)*
X99060000Y-101290000D02*
X104338000Y-101290000D01*
X106807000Y-103759000D02*
X104338000Y-101290000D01*
X106807000Y-111171000D02*
X106807000Y-103759000D01*
G04 #@! TO.N,Net-(R3-Pad2)*
X99060000Y-131770000D02*
X100297436Y-131770000D01*
X110236000Y-125349000D02*
X112118000Y-123467000D01*
X112118000Y-123467000D02*
X112118000Y-122682000D01*
X109871000Y-125349000D02*
X110236000Y-125349000D01*
X103450000Y-131770000D02*
X109871000Y-125349000D01*
X99060000Y-131770000D02*
X103450000Y-131770000D01*
G04 #@! TO.N,Net-(C4-Pad1)*
X99845000Y-81534000D02*
X99450000Y-81534000D01*
X99060000Y-81534000D02*
X99845000Y-81534000D01*
X98933000Y-81661000D02*
X98933000Y-83575000D01*
X99060000Y-81534000D02*
X98933000Y-81661000D01*
X99178000Y-83820000D02*
X98933000Y-83575000D01*
X99845000Y-83820000D02*
X99178000Y-83820000D01*
X99441000Y-79629000D02*
X99441000Y-78105000D01*
X98933000Y-80137000D02*
X99441000Y-79629000D01*
X98933000Y-81407000D02*
X98933000Y-80137000D01*
X99060000Y-81534000D02*
X98933000Y-81407000D01*
X128270000Y-83185000D02*
X132080000Y-86995000D01*
X109220000Y-83185000D02*
X128270000Y-83185000D01*
X106553000Y-85852000D02*
X109220000Y-83185000D01*
X99568000Y-85852000D02*
X106553000Y-85852000D01*
X99178000Y-83820000D02*
X99060000Y-83820000D01*
X99060000Y-83820000D02*
X98933000Y-83947000D01*
X98933000Y-83947000D02*
X98933000Y-85217000D01*
X98933000Y-85217000D02*
X99568000Y-85852000D01*
G04 #@! TO.N,Net-(C5-Pad1)*
X100228400Y-113639600D02*
X100782400Y-113639600D01*
X99314000Y-112725200D02*
X100228400Y-113639600D01*
X99314000Y-111506000D02*
X99314000Y-112725200D01*
X99568000Y-111252000D02*
X99314000Y-111506000D01*
X100782400Y-111252000D02*
X99568000Y-111252000D01*
X100228400Y-113639600D02*
X99822000Y-114046000D01*
X138430000Y-113411000D02*
X138430000Y-109855000D01*
X100076000Y-108458000D02*
X99822000Y-108712000D01*
X98298000Y-108712000D02*
X98552000Y-108458000D01*
X100076000Y-108458000D02*
X98552000Y-108458000D01*
X99568000Y-111252000D02*
X98298000Y-109982000D01*
X98298000Y-109982000D02*
X98298000Y-108712000D01*
X99822000Y-114046000D02*
X99822000Y-115189000D01*
X99822000Y-115189000D02*
X100203000Y-115570000D01*
X100203000Y-115570000D02*
X123190000Y-115570000D01*
X123190000Y-115570000D02*
X125730000Y-118110000D01*
X133731000Y-118110000D02*
X138430000Y-113411000D01*
X125730000Y-118110000D02*
X133731000Y-118110000D01*
G04 #@! TO.N,Net-(C6-Pad1)*
X109474000Y-120038000D02*
X109514500Y-120078500D01*
X109474000Y-119570500D02*
X109474000Y-120038000D01*
X109156500Y-119253000D02*
X109474000Y-119570500D01*
X107137200Y-120038000D02*
X107188000Y-119987200D01*
X107442000Y-119253000D02*
X109156500Y-119253000D01*
X107188000Y-119987200D02*
X107188000Y-119507000D01*
X107188000Y-119507000D02*
X107442000Y-119253000D01*
X99568000Y-120904000D02*
X101092000Y-119380000D01*
X107061000Y-119380000D02*
X107188000Y-119507000D01*
X101092000Y-119380000D02*
X107061000Y-119380000D01*
X99568000Y-120904000D02*
X99568000Y-122809000D01*
X140970000Y-113538000D02*
X140970000Y-109855000D01*
X125730000Y-128778000D02*
X140970000Y-113538000D01*
X111633000Y-128778000D02*
X125730000Y-128778000D01*
G04 #@! TO.N,Net-(C7-Pad1)*
X110028000Y-59228000D02*
X110032800Y-59232800D01*
X107696000Y-59228000D02*
X110028000Y-59228000D01*
X110032800Y-59232800D02*
X110032800Y-58470800D01*
X110032800Y-58470800D02*
X110337600Y-58166000D01*
X110337600Y-58166000D02*
X111760000Y-58166000D01*
X134620000Y-81026000D02*
X134620000Y-83185000D01*
X111760000Y-58166000D02*
X134620000Y-81026000D01*
X107315000Y-58166000D02*
X107696000Y-58547000D01*
X107696000Y-58547000D02*
X107696000Y-59228000D01*
X102108000Y-58166000D02*
X107315000Y-58166000D01*
X100076000Y-60198000D02*
X102108000Y-58166000D01*
G04 #@! TO.N,Net-(D1-Pad1)*
X128628000Y-58928000D02*
X131572000Y-58928000D01*
G04 #@! TO.N,Net-(D2-Pad1)*
X140697000Y-58928000D02*
X140748001Y-58979001D01*
X138661000Y-58928000D02*
X140697000Y-58928000D01*
G04 #@! TO.N,Net-(D2-Pad2)*
X147207501Y-62898501D02*
X143288001Y-58979001D01*
X147207501Y-75198501D02*
X147207501Y-62898501D01*
G04 #@! TD*
D25*
G04 #@! TO.N,GND*
G36*
X186563000Y-138303000D02*
X95884609Y-138303000D01*
X95851047Y-127395000D01*
X97537560Y-127395000D01*
X97537560Y-129145000D01*
X97586843Y-129392765D01*
X97727191Y-129602809D01*
X97937235Y-129743157D01*
X98185000Y-129792440D01*
X99935000Y-129792440D01*
X100182765Y-129743157D01*
X100392809Y-129602809D01*
X100533157Y-129392765D01*
X100582440Y-129145000D01*
X100582440Y-127395000D01*
X100533157Y-127147235D01*
X100392809Y-126937191D01*
X100182765Y-126796843D01*
X99935000Y-126747560D01*
X98185000Y-126747560D01*
X97937235Y-126796843D01*
X97727191Y-126937191D01*
X97586843Y-127147235D01*
X97537560Y-127395000D01*
X95851047Y-127395000D01*
X95754484Y-96012000D01*
X96380112Y-96012000D01*
X96395001Y-96086852D01*
X96395000Y-117146153D01*
X96380112Y-117221000D01*
X96395000Y-117295847D01*
X96395000Y-117295851D01*
X96439096Y-117517536D01*
X96607071Y-117768929D01*
X96670530Y-117811331D01*
X97707670Y-118848472D01*
X97750071Y-118911929D01*
X98001463Y-119079904D01*
X98223148Y-119124000D01*
X98223152Y-119124000D01*
X98297999Y-119138888D01*
X98372846Y-119124000D01*
X100273197Y-119124000D01*
X99083530Y-120313669D01*
X99020071Y-120356071D01*
X98852096Y-120607464D01*
X98808000Y-120829149D01*
X98808000Y-120829153D01*
X98793112Y-120904000D01*
X98808000Y-120978847D01*
X98808000Y-121530822D01*
X98497375Y-121738375D01*
X98169161Y-122229582D01*
X98053908Y-122809000D01*
X98169161Y-123388418D01*
X98497375Y-123879625D01*
X98988582Y-124207839D01*
X99421744Y-124294000D01*
X99714256Y-124294000D01*
X100147418Y-124207839D01*
X100638625Y-123879625D01*
X100650816Y-123861381D01*
X100659843Y-123906765D01*
X100800191Y-124116809D01*
X101010235Y-124257157D01*
X101258000Y-124306440D01*
X102958000Y-124306440D01*
X103155664Y-124267123D01*
X102727199Y-124695588D01*
X102425000Y-125425159D01*
X102425000Y-126214841D01*
X102727199Y-126944412D01*
X103285588Y-127502801D01*
X104015159Y-127805000D01*
X104804841Y-127805000D01*
X105534412Y-127502801D01*
X106092801Y-126944412D01*
X106395000Y-126214841D01*
X106395000Y-125425159D01*
X106092801Y-124695588D01*
X105534412Y-124137199D01*
X104804841Y-123835000D01*
X104015159Y-123835000D01*
X103446805Y-124070421D01*
X103556157Y-123906765D01*
X103605440Y-123659000D01*
X103605440Y-122967750D01*
X107193000Y-122967750D01*
X107193000Y-123128310D01*
X107289673Y-123361699D01*
X107468302Y-123540327D01*
X107701691Y-123637000D01*
X107837250Y-123637000D01*
X107996000Y-123478250D01*
X107996000Y-122809000D01*
X107351750Y-122809000D01*
X107193000Y-122967750D01*
X103605440Y-122967750D01*
X103605440Y-122235690D01*
X107193000Y-122235690D01*
X107193000Y-122396250D01*
X107351750Y-122555000D01*
X107996000Y-122555000D01*
X107996000Y-121885750D01*
X107884238Y-121773988D01*
X107995527Y-121662698D01*
X108092200Y-121429309D01*
X108092200Y-121293750D01*
X107933450Y-121135000D01*
X107264200Y-121135000D01*
X107264200Y-121779250D01*
X107388462Y-121903512D01*
X107289673Y-122002301D01*
X107193000Y-122235690D01*
X103605440Y-122235690D01*
X103605440Y-121959000D01*
X103556157Y-121711235D01*
X103415809Y-121501191D01*
X103205765Y-121360843D01*
X102958000Y-121311560D01*
X101258000Y-121311560D01*
X101010235Y-121360843D01*
X100800191Y-121501191D01*
X100659843Y-121711235D01*
X100650816Y-121756619D01*
X100638625Y-121738375D01*
X100328000Y-121530822D01*
X100328000Y-121293750D01*
X106182200Y-121293750D01*
X106182200Y-121429309D01*
X106278873Y-121662698D01*
X106457501Y-121841327D01*
X106690890Y-121938000D01*
X106851450Y-121938000D01*
X107010200Y-121779250D01*
X107010200Y-121135000D01*
X106340950Y-121135000D01*
X106182200Y-121293750D01*
X100328000Y-121293750D01*
X100328000Y-121218801D01*
X101406803Y-120140000D01*
X106169760Y-120140000D01*
X106169760Y-120185500D01*
X106227708Y-120476825D01*
X106182200Y-120586691D01*
X106182200Y-120722250D01*
X106340950Y-120881000D01*
X106602229Y-120881000D01*
X106660490Y-120919929D01*
X106964700Y-120980440D01*
X107309700Y-120980440D01*
X107613910Y-120919929D01*
X107672171Y-120881000D01*
X107933450Y-120881000D01*
X108092200Y-120722250D01*
X108092200Y-120586691D01*
X108046692Y-120476825D01*
X108104640Y-120185500D01*
X108104640Y-120013000D01*
X108506560Y-120013000D01*
X108506560Y-120185500D01*
X108564508Y-120476825D01*
X108519000Y-120586691D01*
X108519000Y-120722250D01*
X108677750Y-120881000D01*
X108939029Y-120881000D01*
X108997290Y-120919929D01*
X109301500Y-120980440D01*
X109621000Y-120980440D01*
X109621000Y-121135000D01*
X109601000Y-121135000D01*
X109601000Y-121155000D01*
X109347000Y-121155000D01*
X109347000Y-121135000D01*
X108677750Y-121135000D01*
X108519000Y-121293750D01*
X108519000Y-121429309D01*
X108615673Y-121662698D01*
X108713652Y-121760677D01*
X108654175Y-121772508D01*
X108544309Y-121727000D01*
X108408750Y-121727000D01*
X108250000Y-121885750D01*
X108250000Y-122147029D01*
X108211071Y-122205290D01*
X108150560Y-122509500D01*
X108150560Y-122854500D01*
X108211071Y-123158710D01*
X108250000Y-123216971D01*
X108250000Y-123478250D01*
X108408750Y-123637000D01*
X108544309Y-123637000D01*
X108654175Y-123591492D01*
X108945500Y-123649440D01*
X109240500Y-123649440D01*
X109544710Y-123588929D01*
X109764604Y-123442000D01*
X110476396Y-123442000D01*
X110696290Y-123588929D01*
X110883943Y-123626255D01*
X109925288Y-124584911D01*
X109870999Y-124574112D01*
X109796152Y-124589000D01*
X109796148Y-124589000D01*
X109574463Y-124633096D01*
X109323071Y-124801071D01*
X109280671Y-124864527D01*
X103135199Y-131010000D01*
X100379610Y-131010000D01*
X100340116Y-130914654D01*
X99915346Y-130489884D01*
X99360358Y-130260000D01*
X98759642Y-130260000D01*
X98204654Y-130489884D01*
X97779884Y-130914654D01*
X97550000Y-131469642D01*
X97550000Y-132070358D01*
X97779884Y-132625346D01*
X98204654Y-133050116D01*
X98759642Y-133280000D01*
X99360358Y-133280000D01*
X99915346Y-133050116D01*
X100340116Y-132625346D01*
X100379610Y-132530000D01*
X102102968Y-132530000D01*
X102085588Y-132537199D01*
X101527199Y-133095588D01*
X101225000Y-133825159D01*
X101225000Y-134614841D01*
X101527199Y-135344412D01*
X102085588Y-135902801D01*
X102815159Y-136205000D01*
X103604841Y-136205000D01*
X104334412Y-135902801D01*
X104892801Y-135344412D01*
X105195000Y-134614841D01*
X105195000Y-133825159D01*
X166425000Y-133825159D01*
X166425000Y-134614841D01*
X166727199Y-135344412D01*
X167285588Y-135902801D01*
X168015159Y-136205000D01*
X168804841Y-136205000D01*
X169534412Y-135902801D01*
X170092801Y-135344412D01*
X170395000Y-134614841D01*
X170395000Y-133825159D01*
X170092801Y-133095588D01*
X169534412Y-132537199D01*
X168804841Y-132235000D01*
X168015159Y-132235000D01*
X167285588Y-132537199D01*
X166727199Y-133095588D01*
X166425000Y-133825159D01*
X105195000Y-133825159D01*
X104892801Y-133095588D01*
X104334412Y-132537199D01*
X103924117Y-132367249D01*
X103997929Y-132317929D01*
X104040331Y-132254470D01*
X110181712Y-126113090D01*
X110236000Y-126123888D01*
X110310847Y-126109000D01*
X110310852Y-126109000D01*
X110532537Y-126064904D01*
X110783929Y-125896929D01*
X110826331Y-125833470D01*
X112602473Y-124057329D01*
X112665929Y-124014929D01*
X112833904Y-123763537D01*
X112878000Y-123541852D01*
X112878000Y-123541847D01*
X112892888Y-123467000D01*
X112878000Y-123392153D01*
X112878000Y-123341189D01*
X112999929Y-123158710D01*
X113060440Y-122854500D01*
X113060440Y-122509500D01*
X112999929Y-122205290D01*
X112827607Y-121947393D01*
X112569710Y-121775071D01*
X112265500Y-121714560D01*
X111970500Y-121714560D01*
X111908000Y-121726992D01*
X111908000Y-119223848D01*
X111922888Y-119149000D01*
X111908000Y-119074152D01*
X111908000Y-119074148D01*
X111863904Y-118852463D01*
X111695929Y-118601071D01*
X111632473Y-118558671D01*
X110953331Y-117879530D01*
X110910929Y-117816071D01*
X110659537Y-117648096D01*
X110437852Y-117604000D01*
X110437847Y-117604000D01*
X110363000Y-117589112D01*
X110288153Y-117604000D01*
X98612802Y-117604000D01*
X97915000Y-116906199D01*
X97915000Y-110673801D01*
X98573635Y-111332437D01*
X98554000Y-111431149D01*
X98554000Y-111431153D01*
X98539112Y-111506000D01*
X98554000Y-111580847D01*
X98554001Y-112650349D01*
X98539112Y-112725200D01*
X98598097Y-113021737D01*
X98716899Y-113199536D01*
X98766072Y-113273129D01*
X98829528Y-113315529D01*
X99169128Y-113655130D01*
X99106096Y-113749464D01*
X99062000Y-113971149D01*
X99062000Y-113971153D01*
X99047112Y-114046000D01*
X99062000Y-114120847D01*
X99062001Y-115114149D01*
X99047112Y-115189000D01*
X99062001Y-115263852D01*
X99106097Y-115485537D01*
X99274072Y-115736929D01*
X99337527Y-115779329D01*
X99612671Y-116054472D01*
X99655071Y-116117929D01*
X99906463Y-116285904D01*
X100128148Y-116330000D01*
X100128152Y-116330000D01*
X100202999Y-116344888D01*
X100277846Y-116330000D01*
X122875199Y-116330000D01*
X125139673Y-118594476D01*
X125182071Y-118657929D01*
X125245524Y-118700327D01*
X125245526Y-118700329D01*
X125370902Y-118784102D01*
X125433463Y-118825904D01*
X125655148Y-118870000D01*
X125655152Y-118870000D01*
X125729999Y-118884888D01*
X125804846Y-118870000D01*
X133656153Y-118870000D01*
X133731000Y-118884888D01*
X133805847Y-118870000D01*
X133805852Y-118870000D01*
X134027537Y-118825904D01*
X134278929Y-118657929D01*
X134321331Y-118594470D01*
X138914473Y-114001329D01*
X138977929Y-113958929D01*
X139145904Y-113707537D01*
X139190000Y-113485852D01*
X139190000Y-113485848D01*
X139204888Y-113411000D01*
X139190000Y-113336152D01*
X139190000Y-111128608D01*
X139261272Y-111099086D01*
X139674086Y-110686272D01*
X139700000Y-110623710D01*
X139725914Y-110686272D01*
X140138728Y-111099086D01*
X140210001Y-111128608D01*
X140210000Y-113223198D01*
X125415199Y-128018000D01*
X112336711Y-128018000D01*
X112219280Y-127900569D01*
X111838874Y-127743000D01*
X111427126Y-127743000D01*
X111046720Y-127900569D01*
X110755569Y-128191720D01*
X110598000Y-128572126D01*
X110598000Y-128983874D01*
X110755569Y-129364280D01*
X111046720Y-129655431D01*
X111427126Y-129813000D01*
X111838874Y-129813000D01*
X112219280Y-129655431D01*
X112336711Y-129538000D01*
X125655153Y-129538000D01*
X125730000Y-129552888D01*
X125804847Y-129538000D01*
X125804852Y-129538000D01*
X126026537Y-129493904D01*
X126268753Y-129332060D01*
X171677545Y-129332060D01*
X171760884Y-129585953D01*
X172325306Y-129791590D01*
X172925458Y-129765579D01*
X173359116Y-129585953D01*
X173442455Y-129332060D01*
X172560000Y-128449605D01*
X171677545Y-129332060D01*
X126268753Y-129332060D01*
X126277929Y-129325929D01*
X126320331Y-129262470D01*
X127547495Y-128035306D01*
X171038410Y-128035306D01*
X171064421Y-128635458D01*
X171244047Y-129069116D01*
X171497940Y-129152455D01*
X172380395Y-128270000D01*
X172739605Y-128270000D01*
X173622060Y-129152455D01*
X173875953Y-129069116D01*
X174081590Y-128504694D01*
X174055579Y-127904542D01*
X173875953Y-127470884D01*
X173622060Y-127387545D01*
X172739605Y-128270000D01*
X172380395Y-128270000D01*
X171497940Y-127387545D01*
X171244047Y-127470884D01*
X171038410Y-128035306D01*
X127547495Y-128035306D01*
X130157642Y-125425159D01*
X165225000Y-125425159D01*
X165225000Y-126214841D01*
X165527199Y-126944412D01*
X166085588Y-127502801D01*
X166815159Y-127805000D01*
X167604841Y-127805000D01*
X168334412Y-127502801D01*
X168629273Y-127207940D01*
X171677545Y-127207940D01*
X172560000Y-128090395D01*
X173442455Y-127207940D01*
X173359116Y-126954047D01*
X172794694Y-126748410D01*
X172194542Y-126774421D01*
X171760884Y-126954047D01*
X171677545Y-127207940D01*
X168629273Y-127207940D01*
X168892801Y-126944412D01*
X169195000Y-126214841D01*
X169195000Y-125425159D01*
X168892801Y-124695588D01*
X168334412Y-124137199D01*
X167604841Y-123835000D01*
X166815159Y-123835000D01*
X166085588Y-124137199D01*
X165527199Y-124695588D01*
X165225000Y-125425159D01*
X130157642Y-125425159D01*
X141454473Y-114128329D01*
X141517929Y-114085929D01*
X141594623Y-113971149D01*
X141685904Y-113834538D01*
X141695480Y-113786395D01*
X141730000Y-113612852D01*
X141730000Y-113612848D01*
X141744888Y-113538000D01*
X141730000Y-113463152D01*
X141730000Y-111128608D01*
X141801272Y-111099086D01*
X142214086Y-110686272D01*
X142240000Y-110623710D01*
X142265914Y-110686272D01*
X142678728Y-111099086D01*
X143218096Y-111322500D01*
X143801904Y-111322500D01*
X144341272Y-111099086D01*
X144754086Y-110686272D01*
X144780000Y-110623710D01*
X144805914Y-110686272D01*
X145218728Y-111099086D01*
X145758096Y-111322500D01*
X146341904Y-111322500D01*
X146881272Y-111099086D01*
X147294086Y-110686272D01*
X147320000Y-110623710D01*
X147345914Y-110686272D01*
X147758728Y-111099086D01*
X148298096Y-111322500D01*
X148881904Y-111322500D01*
X149421272Y-111099086D01*
X149834086Y-110686272D01*
X149860000Y-110623710D01*
X149885914Y-110686272D01*
X150298728Y-111099086D01*
X150838096Y-111322500D01*
X151421904Y-111322500D01*
X151961272Y-111099086D01*
X152374086Y-110686272D01*
X152400000Y-110623710D01*
X152425914Y-110686272D01*
X152838728Y-111099086D01*
X153378096Y-111322500D01*
X153961904Y-111322500D01*
X154501272Y-111099086D01*
X154914086Y-110686272D01*
X154940000Y-110623710D01*
X154965914Y-110686272D01*
X155378728Y-111099086D01*
X155918096Y-111322500D01*
X156501904Y-111322500D01*
X157041272Y-111099086D01*
X157454086Y-110686272D01*
X157677500Y-110146904D01*
X157677500Y-109567045D01*
X157866692Y-110023795D01*
X158581205Y-110738308D01*
X159514762Y-111125000D01*
X160525238Y-111125000D01*
X161458795Y-110738308D01*
X162173308Y-110023795D01*
X162560000Y-109090238D01*
X162560000Y-108079762D01*
X162173308Y-107146205D01*
X161458795Y-106431692D01*
X160525238Y-106045000D01*
X159514762Y-106045000D01*
X158581205Y-106431692D01*
X157866692Y-107146205D01*
X157480000Y-108079762D01*
X157480000Y-109086290D01*
X157454086Y-109023728D01*
X157041272Y-108610914D01*
X156501904Y-108387500D01*
X155918096Y-108387500D01*
X155378728Y-108610914D01*
X154965914Y-109023728D01*
X154940000Y-109086290D01*
X154914086Y-109023728D01*
X154501272Y-108610914D01*
X153961904Y-108387500D01*
X153378096Y-108387500D01*
X152838728Y-108610914D01*
X152425914Y-109023728D01*
X152400000Y-109086290D01*
X152374086Y-109023728D01*
X151961272Y-108610914D01*
X151421904Y-108387500D01*
X150838096Y-108387500D01*
X150298728Y-108610914D01*
X149885914Y-109023728D01*
X149860000Y-109086290D01*
X149834086Y-109023728D01*
X149421272Y-108610914D01*
X148881904Y-108387500D01*
X148298096Y-108387500D01*
X147758728Y-108610914D01*
X147345914Y-109023728D01*
X147320000Y-109086290D01*
X147294086Y-109023728D01*
X146881272Y-108610914D01*
X146341904Y-108387500D01*
X145758096Y-108387500D01*
X145218728Y-108610914D01*
X144805914Y-109023728D01*
X144780000Y-109086290D01*
X144754086Y-109023728D01*
X144341272Y-108610914D01*
X143801904Y-108387500D01*
X143218096Y-108387500D01*
X142678728Y-108610914D01*
X142265914Y-109023728D01*
X142240000Y-109086290D01*
X142214086Y-109023728D01*
X141801272Y-108610914D01*
X141261904Y-108387500D01*
X140678096Y-108387500D01*
X140138728Y-108610914D01*
X139725914Y-109023728D01*
X139700000Y-109086290D01*
X139674086Y-109023728D01*
X139261272Y-108610914D01*
X138721904Y-108387500D01*
X138138096Y-108387500D01*
X137598728Y-108610914D01*
X137185914Y-109023728D01*
X137160000Y-109086290D01*
X137134086Y-109023728D01*
X136721272Y-108610914D01*
X136181904Y-108387500D01*
X135598096Y-108387500D01*
X135058728Y-108610914D01*
X134645914Y-109023728D01*
X134620000Y-109086290D01*
X134594086Y-109023728D01*
X134181272Y-108610914D01*
X133641904Y-108387500D01*
X133058096Y-108387500D01*
X132518728Y-108610914D01*
X132105914Y-109023728D01*
X132080000Y-109086290D01*
X132054086Y-109023728D01*
X131641272Y-108610914D01*
X131101904Y-108387500D01*
X130518096Y-108387500D01*
X129978728Y-108610914D01*
X129719612Y-108870030D01*
X129700657Y-108774735D01*
X129560309Y-108564691D01*
X129350265Y-108424343D01*
X129102500Y-108375060D01*
X127437500Y-108375060D01*
X127189735Y-108424343D01*
X126979691Y-108564691D01*
X126839343Y-108774735D01*
X126790060Y-109022500D01*
X126790060Y-110687500D01*
X126839343Y-110935265D01*
X126979691Y-111145309D01*
X127189735Y-111285657D01*
X127437500Y-111334940D01*
X129102500Y-111334940D01*
X129350265Y-111285657D01*
X129560309Y-111145309D01*
X129700657Y-110935265D01*
X129719612Y-110839970D01*
X129978728Y-111099086D01*
X130050000Y-111128608D01*
X130050001Y-114072560D01*
X129960000Y-114072560D01*
X129712235Y-114121843D01*
X129502191Y-114262191D01*
X129361843Y-114472235D01*
X129341261Y-114575708D01*
X129036924Y-114298355D01*
X128626890Y-114128524D01*
X128397000Y-114249845D01*
X128397000Y-115443000D01*
X128417000Y-115443000D01*
X128417000Y-115697000D01*
X128397000Y-115697000D01*
X128397000Y-116890155D01*
X128626890Y-117011476D01*
X129036924Y-116841645D01*
X129341261Y-116564292D01*
X129361843Y-116667765D01*
X129502191Y-116877809D01*
X129712235Y-117018157D01*
X129960000Y-117067440D01*
X131660000Y-117067440D01*
X131907765Y-117018157D01*
X132117809Y-116877809D01*
X132258157Y-116667765D01*
X132307440Y-116420000D01*
X132307440Y-114720000D01*
X132258157Y-114472235D01*
X132117809Y-114262191D01*
X131907765Y-114121843D01*
X131660000Y-114072560D01*
X131570000Y-114072560D01*
X131570000Y-111128608D01*
X131641272Y-111099086D01*
X132054086Y-110686272D01*
X132080000Y-110623710D01*
X132105914Y-110686272D01*
X132518728Y-111099086D01*
X133058096Y-111322500D01*
X133641904Y-111322500D01*
X134181272Y-111099086D01*
X134594086Y-110686272D01*
X134620000Y-110623710D01*
X134645914Y-110686272D01*
X135058728Y-111099086D01*
X135598096Y-111322500D01*
X136181904Y-111322500D01*
X136721272Y-111099086D01*
X137134086Y-110686272D01*
X137160000Y-110623710D01*
X137185914Y-110686272D01*
X137598728Y-111099086D01*
X137670001Y-111128608D01*
X137670000Y-113096198D01*
X133416199Y-117350000D01*
X126044803Y-117350000D01*
X124621694Y-115926892D01*
X126828514Y-115926892D01*
X127074817Y-116451358D01*
X127503076Y-116841645D01*
X127913110Y-117011476D01*
X128143000Y-116890155D01*
X128143000Y-115697000D01*
X126949181Y-115697000D01*
X126828514Y-115926892D01*
X124621694Y-115926892D01*
X123907910Y-115213108D01*
X126828514Y-115213108D01*
X126949181Y-115443000D01*
X128143000Y-115443000D01*
X128143000Y-114249845D01*
X127913110Y-114128524D01*
X127503076Y-114298355D01*
X127074817Y-114688642D01*
X126828514Y-115213108D01*
X123907910Y-115213108D01*
X123780331Y-115085530D01*
X123737929Y-115022071D01*
X123486537Y-114854096D01*
X123264852Y-114810000D01*
X123264847Y-114810000D01*
X123190000Y-114795112D01*
X123115153Y-114810000D01*
X100582000Y-114810000D01*
X100582000Y-114596518D01*
X100634900Y-114607040D01*
X100929900Y-114607040D01*
X101221225Y-114549092D01*
X101331091Y-114594600D01*
X101466650Y-114594600D01*
X101625400Y-114435850D01*
X101625400Y-114174571D01*
X101664329Y-114116310D01*
X101724840Y-113812100D01*
X101724840Y-113766600D01*
X101879400Y-113766600D01*
X101879400Y-114435850D01*
X102038150Y-114594600D01*
X102173709Y-114594600D01*
X102407098Y-114497927D01*
X102585727Y-114319299D01*
X102682400Y-114085910D01*
X102682400Y-113925350D01*
X102580800Y-113823750D01*
X102852000Y-113823750D01*
X102852000Y-113984310D01*
X102948673Y-114217699D01*
X103127302Y-114396327D01*
X103360691Y-114493000D01*
X103496250Y-114493000D01*
X103655000Y-114334250D01*
X103655000Y-113665000D01*
X103010750Y-113665000D01*
X102852000Y-113823750D01*
X102580800Y-113823750D01*
X102523650Y-113766600D01*
X101879400Y-113766600D01*
X101724840Y-113766600D01*
X101724840Y-113467100D01*
X101664329Y-113162890D01*
X101625400Y-113104629D01*
X101625400Y-112843350D01*
X101879400Y-112843350D01*
X101879400Y-113512600D01*
X102523650Y-113512600D01*
X102682400Y-113353850D01*
X102682400Y-113193290D01*
X102640316Y-113091690D01*
X102852000Y-113091690D01*
X102852000Y-113252250D01*
X103010750Y-113411000D01*
X103655000Y-113411000D01*
X103655000Y-112741750D01*
X103496250Y-112583000D01*
X103360691Y-112583000D01*
X103127302Y-112679673D01*
X102948673Y-112858301D01*
X102852000Y-113091690D01*
X102640316Y-113091690D01*
X102585727Y-112959901D01*
X102407098Y-112781273D01*
X102173709Y-112684600D01*
X102038150Y-112684600D01*
X101879400Y-112843350D01*
X101625400Y-112843350D01*
X101466650Y-112684600D01*
X101331091Y-112684600D01*
X101221225Y-112730108D01*
X100929900Y-112672160D01*
X100634900Y-112672160D01*
X100385392Y-112721790D01*
X100074000Y-112410399D01*
X100074000Y-112012000D01*
X100110796Y-112012000D01*
X100330690Y-112158929D01*
X100634900Y-112219440D01*
X100929900Y-112219440D01*
X101221225Y-112161492D01*
X101331091Y-112207000D01*
X101466650Y-112207000D01*
X101625400Y-112048250D01*
X101625400Y-111786971D01*
X101664329Y-111728710D01*
X101724840Y-111424500D01*
X101724840Y-111379000D01*
X101879400Y-111379000D01*
X101879400Y-112048250D01*
X102038150Y-112207000D01*
X102173709Y-112207000D01*
X102407098Y-112110327D01*
X102585727Y-111931699D01*
X102682400Y-111698310D01*
X102682400Y-111537750D01*
X102523650Y-111379000D01*
X101879400Y-111379000D01*
X101724840Y-111379000D01*
X101724840Y-111079500D01*
X101664329Y-110775290D01*
X101625400Y-110717029D01*
X101625400Y-110455750D01*
X101879400Y-110455750D01*
X101879400Y-111125000D01*
X102523650Y-111125000D01*
X102682400Y-110966250D01*
X102682400Y-110805690D01*
X102585727Y-110572301D01*
X102407098Y-110393673D01*
X102173709Y-110297000D01*
X102038150Y-110297000D01*
X101879400Y-110455750D01*
X101625400Y-110455750D01*
X101466650Y-110297000D01*
X101331091Y-110297000D01*
X101221225Y-110342508D01*
X100929900Y-110284560D01*
X100634900Y-110284560D01*
X100330690Y-110345071D01*
X100110796Y-110492000D01*
X99882802Y-110492000D01*
X99058000Y-109667199D01*
X99058000Y-109563788D01*
X99496582Y-109856839D01*
X99929744Y-109943000D01*
X100222256Y-109943000D01*
X100655418Y-109856839D01*
X101146625Y-109528625D01*
X101158816Y-109510381D01*
X101167843Y-109555765D01*
X101308191Y-109765809D01*
X101518235Y-109906157D01*
X101766000Y-109955440D01*
X103466000Y-109955440D01*
X103713765Y-109906157D01*
X103923809Y-109765809D01*
X104064157Y-109555765D01*
X104113440Y-109308000D01*
X104113440Y-107608000D01*
X104064157Y-107360235D01*
X103923809Y-107150191D01*
X103713765Y-107009843D01*
X103466000Y-106960560D01*
X101766000Y-106960560D01*
X101518235Y-107009843D01*
X101308191Y-107150191D01*
X101167843Y-107360235D01*
X101158816Y-107405619D01*
X101146625Y-107387375D01*
X100655418Y-107059161D01*
X100222256Y-106973000D01*
X99929744Y-106973000D01*
X99496582Y-107059161D01*
X99005375Y-107387375D01*
X98797822Y-107698000D01*
X98626846Y-107698000D01*
X98551999Y-107683112D01*
X98477152Y-107698000D01*
X98477148Y-107698000D01*
X98255463Y-107742096D01*
X98004071Y-107910071D01*
X97961669Y-107973530D01*
X97915000Y-108020199D01*
X97915000Y-102280462D01*
X98204654Y-102570116D01*
X98759642Y-102800000D01*
X99360358Y-102800000D01*
X99915346Y-102570116D01*
X100340116Y-102145346D01*
X100379610Y-102050000D01*
X102102968Y-102050000D01*
X102085588Y-102057199D01*
X101527199Y-102615588D01*
X101225000Y-103345159D01*
X101225000Y-104134841D01*
X101527199Y-104864412D01*
X102085588Y-105422801D01*
X102815159Y-105725000D01*
X103604841Y-105725000D01*
X104334412Y-105422801D01*
X104892801Y-104864412D01*
X105195000Y-104134841D01*
X105195000Y-103345159D01*
X105107773Y-103134574D01*
X106047001Y-104073803D01*
X106047000Y-110499396D01*
X105900071Y-110719290D01*
X105839560Y-111023500D01*
X105839560Y-111318500D01*
X105900071Y-111622710D01*
X105922315Y-111656000D01*
X105900071Y-111689290D01*
X105839560Y-111993500D01*
X105839560Y-112288500D01*
X105900071Y-112592710D01*
X105957116Y-112678083D01*
X105857199Y-112778000D01*
X105423604Y-112778000D01*
X105203710Y-112631071D01*
X104899500Y-112570560D01*
X104604500Y-112570560D01*
X104313175Y-112628508D01*
X104203309Y-112583000D01*
X104067750Y-112583000D01*
X103909000Y-112741750D01*
X103909000Y-113003029D01*
X103870071Y-113061290D01*
X103809560Y-113365500D01*
X103809560Y-113710500D01*
X103870071Y-114014710D01*
X103909000Y-114072971D01*
X103909000Y-114334250D01*
X104067750Y-114493000D01*
X104203309Y-114493000D01*
X104313175Y-114447492D01*
X104604500Y-114505440D01*
X104899500Y-114505440D01*
X105203710Y-114444929D01*
X105423604Y-114298000D01*
X106097153Y-114298000D01*
X106172000Y-114312888D01*
X106246847Y-114298000D01*
X106246852Y-114298000D01*
X106468537Y-114253904D01*
X106719929Y-114085929D01*
X106762331Y-114022470D01*
X107291473Y-113493329D01*
X107354929Y-113450929D01*
X107522904Y-113199537D01*
X107567000Y-112977852D01*
X107567000Y-112977848D01*
X107581888Y-112903000D01*
X107579030Y-112888632D01*
X107738537Y-112856904D01*
X107989929Y-112688929D01*
X108032331Y-112625470D01*
X109323476Y-111334327D01*
X109386929Y-111291929D01*
X109429327Y-111228476D01*
X109429329Y-111228474D01*
X109554903Y-111040538D01*
X109554904Y-111040537D01*
X109599000Y-110818852D01*
X109599000Y-110818848D01*
X109613888Y-110744001D01*
X109599000Y-110669154D01*
X109599000Y-108079762D01*
X111760000Y-108079762D01*
X111760000Y-109090238D01*
X112146692Y-110023795D01*
X112861205Y-110738308D01*
X113794762Y-111125000D01*
X114805238Y-111125000D01*
X115738795Y-110738308D01*
X116453308Y-110023795D01*
X116840000Y-109090238D01*
X116840000Y-108079762D01*
X116453308Y-107146205D01*
X115738795Y-106431692D01*
X114805238Y-106045000D01*
X113794762Y-106045000D01*
X112861205Y-106431692D01*
X112146692Y-107146205D01*
X111760000Y-108079762D01*
X109599000Y-108079762D01*
X109599000Y-106105801D01*
X112359642Y-103345159D01*
X166425000Y-103345159D01*
X166425000Y-104134841D01*
X166727199Y-104864412D01*
X167285588Y-105422801D01*
X168015159Y-105725000D01*
X168804841Y-105725000D01*
X169534412Y-105422801D01*
X170092801Y-104864412D01*
X170395000Y-104134841D01*
X170395000Y-103345159D01*
X170092801Y-102615588D01*
X169534412Y-102057199D01*
X168804841Y-101755000D01*
X168015159Y-101755000D01*
X167285588Y-102057199D01*
X166727199Y-102615588D01*
X166425000Y-103345159D01*
X112359642Y-103345159D01*
X115609803Y-100095000D01*
X115775874Y-100095000D01*
X116156280Y-99937431D01*
X116447431Y-99646280D01*
X116605000Y-99265874D01*
X116605000Y-98854126D01*
X116604145Y-98852060D01*
X171677545Y-98852060D01*
X171760884Y-99105953D01*
X172325306Y-99311590D01*
X172925458Y-99285579D01*
X173359116Y-99105953D01*
X173442455Y-98852060D01*
X172560000Y-97969605D01*
X171677545Y-98852060D01*
X116604145Y-98852060D01*
X116447431Y-98473720D01*
X116156280Y-98182569D01*
X115775874Y-98025000D01*
X115364126Y-98025000D01*
X114983720Y-98182569D01*
X114692569Y-98473720D01*
X114535000Y-98854126D01*
X114535000Y-99020197D01*
X108354528Y-105200671D01*
X108291072Y-105243071D01*
X108248672Y-105306527D01*
X108248671Y-105306528D01*
X108123097Y-105494463D01*
X108064112Y-105791000D01*
X108079001Y-105865852D01*
X108079000Y-110429197D01*
X107726369Y-110781829D01*
X107713929Y-110719290D01*
X107567000Y-110499396D01*
X107567000Y-103833846D01*
X107581888Y-103758999D01*
X107567000Y-103684152D01*
X107567000Y-103684148D01*
X107522904Y-103462463D01*
X107354929Y-103211071D01*
X107291473Y-103168671D01*
X104928331Y-100805530D01*
X104885929Y-100742071D01*
X104634537Y-100574096D01*
X104412852Y-100530000D01*
X104412847Y-100530000D01*
X104338000Y-100515112D01*
X104263153Y-100530000D01*
X100379610Y-100530000D01*
X100340116Y-100434654D01*
X99915346Y-100009884D01*
X99360358Y-99780000D01*
X98759642Y-99780000D01*
X98204654Y-100009884D01*
X97915000Y-100299538D01*
X97915000Y-99248300D01*
X97937235Y-99263157D01*
X98185000Y-99312440D01*
X99935000Y-99312440D01*
X100182765Y-99263157D01*
X100392809Y-99122809D01*
X100533157Y-98912765D01*
X100582440Y-98665000D01*
X100582440Y-97555306D01*
X171038410Y-97555306D01*
X171064421Y-98155458D01*
X171244047Y-98589116D01*
X171497940Y-98672455D01*
X172380395Y-97790000D01*
X172739605Y-97790000D01*
X173622060Y-98672455D01*
X173875953Y-98589116D01*
X174081590Y-98024694D01*
X174055579Y-97424542D01*
X173875953Y-96990884D01*
X173622060Y-96907545D01*
X172739605Y-97790000D01*
X172380395Y-97790000D01*
X171497940Y-96907545D01*
X171244047Y-96990884D01*
X171038410Y-97555306D01*
X100582440Y-97555306D01*
X100582440Y-96915000D01*
X100533157Y-96667235D01*
X100392809Y-96457191D01*
X100182765Y-96316843D01*
X99935000Y-96267560D01*
X98185000Y-96267560D01*
X97937235Y-96316843D01*
X97915000Y-96331700D01*
X97915000Y-96326801D01*
X99296642Y-94945159D01*
X102425000Y-94945159D01*
X102425000Y-95734841D01*
X102727199Y-96464412D01*
X103285588Y-97022801D01*
X104015159Y-97325000D01*
X104804841Y-97325000D01*
X105534412Y-97022801D01*
X106092801Y-96464412D01*
X106395000Y-95734841D01*
X106395000Y-94945159D01*
X165225000Y-94945159D01*
X165225000Y-95734841D01*
X165527199Y-96464412D01*
X166085588Y-97022801D01*
X166815159Y-97325000D01*
X167604841Y-97325000D01*
X168334412Y-97022801D01*
X168629273Y-96727940D01*
X171677545Y-96727940D01*
X172560000Y-97610395D01*
X173442455Y-96727940D01*
X173359116Y-96474047D01*
X172794694Y-96268410D01*
X172194542Y-96294421D01*
X171760884Y-96474047D01*
X171677545Y-96727940D01*
X168629273Y-96727940D01*
X168892801Y-96464412D01*
X169195000Y-95734841D01*
X169195000Y-94945159D01*
X168892801Y-94215588D01*
X168334412Y-93657199D01*
X167604841Y-93355000D01*
X166815159Y-93355000D01*
X166085588Y-93657199D01*
X165527199Y-94215588D01*
X165225000Y-94945159D01*
X106395000Y-94945159D01*
X106092801Y-94215588D01*
X105534412Y-93657199D01*
X104804841Y-93355000D01*
X104015159Y-93355000D01*
X103285588Y-93657199D01*
X102727199Y-94215588D01*
X102425000Y-94945159D01*
X99296642Y-94945159D01*
X105851802Y-88390000D01*
X113492985Y-88390000D01*
X112861205Y-88651692D01*
X112146692Y-89366205D01*
X111760000Y-90299762D01*
X111760000Y-91310238D01*
X112146692Y-92243795D01*
X112861205Y-92958308D01*
X113794762Y-93345000D01*
X114805238Y-93345000D01*
X115738795Y-92958308D01*
X116453308Y-92243795D01*
X116840000Y-91310238D01*
X116840000Y-90303710D01*
X116865914Y-90366272D01*
X117278728Y-90779086D01*
X117818096Y-91002500D01*
X118401904Y-91002500D01*
X118941272Y-90779086D01*
X119354086Y-90366272D01*
X119380000Y-90303710D01*
X119405914Y-90366272D01*
X119818728Y-90779086D01*
X120358096Y-91002500D01*
X120941904Y-91002500D01*
X121481272Y-90779086D01*
X121894086Y-90366272D01*
X121920000Y-90303710D01*
X121945914Y-90366272D01*
X122358728Y-90779086D01*
X122898096Y-91002500D01*
X123481904Y-91002500D01*
X124021272Y-90779086D01*
X124234073Y-90566285D01*
X124878320Y-90566285D01*
X124956446Y-90815772D01*
X125505460Y-91014306D01*
X126088657Y-90987628D01*
X126503554Y-90815772D01*
X126581680Y-90566285D01*
X125730000Y-89714605D01*
X124878320Y-90566285D01*
X124234073Y-90566285D01*
X124434086Y-90366272D01*
X124456987Y-90310984D01*
X124698715Y-90386680D01*
X125550395Y-89535000D01*
X124698715Y-88683320D01*
X124456987Y-88759016D01*
X124434086Y-88703728D01*
X124120358Y-88390000D01*
X124913929Y-88390000D01*
X124878320Y-88503715D01*
X125730000Y-89355395D01*
X125744143Y-89341253D01*
X125923748Y-89520858D01*
X125909605Y-89535000D01*
X126761285Y-90386680D01*
X127003013Y-90310984D01*
X127025914Y-90366272D01*
X127438728Y-90779086D01*
X127978096Y-91002500D01*
X128561904Y-91002500D01*
X129101272Y-90779086D01*
X129514086Y-90366272D01*
X129540000Y-90303710D01*
X129565914Y-90366272D01*
X129978728Y-90779086D01*
X130518096Y-91002500D01*
X131101904Y-91002500D01*
X131641272Y-90779086D01*
X132054086Y-90366272D01*
X132080000Y-90303710D01*
X132105914Y-90366272D01*
X132518728Y-90779086D01*
X133058096Y-91002500D01*
X133641904Y-91002500D01*
X134181272Y-90779086D01*
X134594086Y-90366272D01*
X134620000Y-90303710D01*
X134645914Y-90366272D01*
X135058728Y-90779086D01*
X135598096Y-91002500D01*
X136181904Y-91002500D01*
X136721272Y-90779086D01*
X137134086Y-90366272D01*
X137160000Y-90303710D01*
X137185914Y-90366272D01*
X137598728Y-90779086D01*
X138138096Y-91002500D01*
X138721904Y-91002500D01*
X139261272Y-90779086D01*
X139674086Y-90366272D01*
X139700000Y-90303710D01*
X139725914Y-90366272D01*
X140138728Y-90779086D01*
X140678096Y-91002500D01*
X141261904Y-91002500D01*
X141801272Y-90779086D01*
X142214086Y-90366272D01*
X142240000Y-90303710D01*
X142265914Y-90366272D01*
X142678728Y-90779086D01*
X143218096Y-91002500D01*
X143801904Y-91002500D01*
X144341272Y-90779086D01*
X144754086Y-90366272D01*
X144780000Y-90303710D01*
X144805914Y-90366272D01*
X145218728Y-90779086D01*
X145758096Y-91002500D01*
X146341904Y-91002500D01*
X146881272Y-90779086D01*
X147294086Y-90366272D01*
X147320000Y-90303710D01*
X147345914Y-90366272D01*
X147758728Y-90779086D01*
X148298096Y-91002500D01*
X148881904Y-91002500D01*
X149421272Y-90779086D01*
X149834086Y-90366272D01*
X149860000Y-90303710D01*
X149885914Y-90366272D01*
X150298728Y-90779086D01*
X150838096Y-91002500D01*
X151421904Y-91002500D01*
X151961272Y-90779086D01*
X152374086Y-90366272D01*
X152400000Y-90303710D01*
X152425914Y-90366272D01*
X152838728Y-90779086D01*
X153378096Y-91002500D01*
X153961904Y-91002500D01*
X154501272Y-90779086D01*
X154760388Y-90519970D01*
X154779343Y-90615265D01*
X154919691Y-90825309D01*
X155129735Y-90965657D01*
X155377500Y-91014940D01*
X157042500Y-91014940D01*
X157290265Y-90965657D01*
X157480000Y-90838879D01*
X157480000Y-91310238D01*
X157866692Y-92243795D01*
X158581205Y-92958308D01*
X159514762Y-93345000D01*
X160525238Y-93345000D01*
X161458795Y-92958308D01*
X162173308Y-92243795D01*
X162560000Y-91310238D01*
X162560000Y-90299762D01*
X162173308Y-89366205D01*
X161458795Y-88651692D01*
X160525238Y-88265000D01*
X159514762Y-88265000D01*
X158581205Y-88651692D01*
X157866692Y-89366205D01*
X157689940Y-89792922D01*
X157689940Y-88702500D01*
X157640657Y-88454735D01*
X157500309Y-88244691D01*
X157290265Y-88104343D01*
X157042500Y-88055060D01*
X155377500Y-88055060D01*
X155129735Y-88104343D01*
X154919691Y-88244691D01*
X154779343Y-88454735D01*
X154760388Y-88550030D01*
X154501272Y-88290914D01*
X153961904Y-88067500D01*
X153378096Y-88067500D01*
X152838728Y-88290914D01*
X152425914Y-88703728D01*
X152400000Y-88766290D01*
X152374086Y-88703728D01*
X151961272Y-88290914D01*
X151421904Y-88067500D01*
X150838096Y-88067500D01*
X150298728Y-88290914D01*
X149885914Y-88703728D01*
X149860000Y-88766290D01*
X149834086Y-88703728D01*
X149421272Y-88290914D01*
X148881904Y-88067500D01*
X148298096Y-88067500D01*
X147758728Y-88290914D01*
X147345914Y-88703728D01*
X147320000Y-88766290D01*
X147294086Y-88703728D01*
X146881272Y-88290914D01*
X146341904Y-88067500D01*
X145758096Y-88067500D01*
X145218728Y-88290914D01*
X144805914Y-88703728D01*
X144780000Y-88766290D01*
X144754086Y-88703728D01*
X144341272Y-88290914D01*
X143801904Y-88067500D01*
X143512302Y-88067500D01*
X144078802Y-87501000D01*
X165928199Y-87501000D01*
X178437000Y-100009803D01*
X178437001Y-128195148D01*
X178422112Y-128270000D01*
X178481097Y-128566537D01*
X178527149Y-128635458D01*
X178649072Y-128817929D01*
X178712528Y-128860329D01*
X180308673Y-130456476D01*
X180351071Y-130519929D01*
X180414524Y-130562327D01*
X180414526Y-130562329D01*
X180539902Y-130646102D01*
X180602463Y-130687904D01*
X180620556Y-130691503D01*
X180682690Y-130841507D01*
X181063183Y-131222000D01*
X180682690Y-131602493D01*
X180449000Y-132166670D01*
X180449000Y-132777330D01*
X180682690Y-133341507D01*
X181114493Y-133773310D01*
X181678670Y-134007000D01*
X182289330Y-134007000D01*
X182853507Y-133773310D01*
X183285310Y-133341507D01*
X183519000Y-132777330D01*
X183519000Y-132166670D01*
X183285310Y-131602493D01*
X182904817Y-131222000D01*
X183285310Y-130841507D01*
X183519000Y-130277330D01*
X183519000Y-129666670D01*
X183285310Y-129102493D01*
X182853507Y-128670690D01*
X182845710Y-128667461D01*
X182884554Y-128552159D01*
X181984000Y-127651605D01*
X181083446Y-128552159D01*
X181122290Y-128667461D01*
X181114493Y-128670690D01*
X180893493Y-128891690D01*
X179957000Y-127955199D01*
X179957000Y-127231336D01*
X180437542Y-127231336D01*
X180463161Y-127841460D01*
X180647357Y-128286148D01*
X180903841Y-128372554D01*
X181804395Y-127472000D01*
X182163605Y-127472000D01*
X183064159Y-128372554D01*
X183320643Y-128286148D01*
X183530458Y-127712664D01*
X183504839Y-127102540D01*
X183320643Y-126657852D01*
X183064159Y-126571446D01*
X182163605Y-127472000D01*
X181804395Y-127472000D01*
X180903841Y-126571446D01*
X180647357Y-126657852D01*
X180437542Y-127231336D01*
X179957000Y-127231336D01*
X179957000Y-126391841D01*
X181083446Y-126391841D01*
X181984000Y-127292395D01*
X182884554Y-126391841D01*
X182798148Y-126135357D01*
X182224664Y-125925542D01*
X181614540Y-125951161D01*
X181169852Y-126135357D01*
X181083446Y-126391841D01*
X179957000Y-126391841D01*
X179957000Y-100141272D01*
X179982527Y-100158329D01*
X180206671Y-100382472D01*
X180249071Y-100445929D01*
X180500463Y-100613904D01*
X180629715Y-100639614D01*
X180682690Y-100767507D01*
X181063183Y-101148000D01*
X180682690Y-101528493D01*
X180449000Y-102092670D01*
X180449000Y-102703330D01*
X180682690Y-103267507D01*
X181114493Y-103699310D01*
X181678670Y-103933000D01*
X182289330Y-103933000D01*
X182853507Y-103699310D01*
X183285310Y-103267507D01*
X183519000Y-102703330D01*
X183519000Y-102092670D01*
X183285310Y-101528493D01*
X182904817Y-101148000D01*
X183285310Y-100767507D01*
X183519000Y-100203330D01*
X183519000Y-99592670D01*
X183285310Y-99028493D01*
X182853507Y-98596690D01*
X182845710Y-98593461D01*
X182884554Y-98478159D01*
X181984000Y-97577605D01*
X181969858Y-97591748D01*
X181790253Y-97412143D01*
X181804395Y-97398000D01*
X182163605Y-97398000D01*
X183064159Y-98298554D01*
X183320643Y-98212148D01*
X183530458Y-97638664D01*
X183504839Y-97028540D01*
X183320643Y-96583852D01*
X183064159Y-96497446D01*
X182163605Y-97398000D01*
X181804395Y-97398000D01*
X180903841Y-96497446D01*
X180647357Y-96583852D01*
X180437542Y-97157336D01*
X180463161Y-97767460D01*
X180614411Y-98132609D01*
X178799643Y-96317841D01*
X181083446Y-96317841D01*
X181984000Y-97218395D01*
X182884554Y-96317841D01*
X182798148Y-96061357D01*
X182224664Y-95851542D01*
X181614540Y-95877161D01*
X181169852Y-96061357D01*
X181083446Y-96317841D01*
X178799643Y-96317841D01*
X166325331Y-83843530D01*
X166282929Y-83780071D01*
X166031537Y-83612096D01*
X165809852Y-83568000D01*
X165809847Y-83568000D01*
X165735000Y-83553112D01*
X165660153Y-83568000D01*
X143711846Y-83568000D01*
X143636999Y-83553112D01*
X143562152Y-83568000D01*
X143562148Y-83568000D01*
X143340463Y-83612096D01*
X143089071Y-83780071D01*
X143046671Y-83843527D01*
X138793177Y-88097022D01*
X138721904Y-88067500D01*
X138432301Y-88067500D01*
X144840803Y-81659000D01*
X172518153Y-81659000D01*
X172593000Y-81673888D01*
X172667847Y-81659000D01*
X172667852Y-81659000D01*
X172889537Y-81614904D01*
X173140929Y-81446929D01*
X173183331Y-81383470D01*
X178030473Y-76536329D01*
X178093929Y-76493929D01*
X178136924Y-76429582D01*
X178261904Y-76242538D01*
X178290361Y-76099472D01*
X178306000Y-76020852D01*
X178306000Y-76020848D01*
X178320888Y-75946000D01*
X178306000Y-75871152D01*
X178306000Y-71942801D01*
X180476802Y-69772000D01*
X180637331Y-69772000D01*
X180682690Y-69881507D01*
X181063183Y-70262000D01*
X180682690Y-70642493D01*
X180449000Y-71206670D01*
X180449000Y-71817330D01*
X180682690Y-72381507D01*
X181114493Y-72813310D01*
X181678670Y-73047000D01*
X182289330Y-73047000D01*
X182853507Y-72813310D01*
X183285310Y-72381507D01*
X183519000Y-71817330D01*
X183519000Y-71206670D01*
X183285310Y-70642493D01*
X182904817Y-70262000D01*
X183285310Y-69881507D01*
X183519000Y-69317330D01*
X183519000Y-68706670D01*
X183285310Y-68142493D01*
X182853507Y-67710690D01*
X182845710Y-67707461D01*
X182884554Y-67592159D01*
X181984000Y-66691605D01*
X181083446Y-67592159D01*
X181122290Y-67707461D01*
X181114493Y-67710690D01*
X180682690Y-68142493D01*
X180637331Y-68252000D01*
X180236848Y-68252000D01*
X180162000Y-68237112D01*
X180087152Y-68252000D01*
X180087148Y-68252000D01*
X179913605Y-68286520D01*
X179865462Y-68296096D01*
X179751775Y-68372060D01*
X179614071Y-68464071D01*
X179571671Y-68527527D01*
X177061528Y-71037671D01*
X176998072Y-71080071D01*
X176955672Y-71143527D01*
X176955671Y-71143528D01*
X176830097Y-71331463D01*
X176771112Y-71628000D01*
X176786001Y-71702852D01*
X176786000Y-75631198D01*
X172278199Y-80139000D01*
X144600846Y-80139000D01*
X144525999Y-80124112D01*
X144451152Y-80139000D01*
X144451148Y-80139000D01*
X144229463Y-80183096D01*
X144229461Y-80183097D01*
X144229462Y-80183097D01*
X144041526Y-80308671D01*
X144041524Y-80308673D01*
X143978071Y-80351071D01*
X143935673Y-80414524D01*
X136253177Y-88097022D01*
X136181904Y-88067500D01*
X135598096Y-88067500D01*
X135058728Y-88290914D01*
X134645914Y-88703728D01*
X134620000Y-88766290D01*
X134594086Y-88703728D01*
X134181272Y-88290914D01*
X134110000Y-88261392D01*
X134110000Y-86942848D01*
X134124888Y-86868000D01*
X134110000Y-86793152D01*
X134110000Y-86793148D01*
X134065904Y-86571463D01*
X134065904Y-86571462D01*
X133940329Y-86383527D01*
X133897929Y-86320071D01*
X133834473Y-86277671D01*
X129114331Y-81557530D01*
X129071929Y-81494071D01*
X128820537Y-81326096D01*
X128598852Y-81282000D01*
X128598847Y-81282000D01*
X128524000Y-81267112D01*
X128449153Y-81282000D01*
X112850846Y-81282000D01*
X112775999Y-81267112D01*
X112701152Y-81282000D01*
X112701148Y-81282000D01*
X112479463Y-81326096D01*
X112228071Y-81494071D01*
X112200055Y-81536000D01*
X111825272Y-81536000D01*
X111842327Y-81510476D01*
X111842329Y-81510474D01*
X111967903Y-81322538D01*
X111967904Y-81322537D01*
X112012000Y-81100852D01*
X112012000Y-81100848D01*
X112026888Y-81026001D01*
X112012000Y-80951154D01*
X112012000Y-79068847D01*
X112026888Y-78994000D01*
X112012000Y-78919153D01*
X112012000Y-78919148D01*
X111967904Y-78697463D01*
X111799929Y-78446071D01*
X111736473Y-78403671D01*
X109980000Y-76647199D01*
X109980000Y-76470857D01*
X109994888Y-76396009D01*
X109980000Y-76321161D01*
X109980000Y-76321157D01*
X109935904Y-76099472D01*
X109935904Y-76099471D01*
X109810329Y-75911536D01*
X109767929Y-75848080D01*
X109704473Y-75805680D01*
X104224322Y-70325530D01*
X104181920Y-70262071D01*
X103930528Y-70094096D01*
X103708843Y-70050000D01*
X103708838Y-70050000D01*
X103633991Y-70035112D01*
X103559144Y-70050000D01*
X100379610Y-70050000D01*
X100340116Y-69954654D01*
X99915346Y-69529884D01*
X99360358Y-69300000D01*
X98759642Y-69300000D01*
X98204654Y-69529884D01*
X97779884Y-69954654D01*
X97550000Y-70509642D01*
X97550000Y-71110358D01*
X97779884Y-71665346D01*
X98204654Y-72090116D01*
X98759642Y-72320000D01*
X99360358Y-72320000D01*
X99915346Y-72090116D01*
X100340116Y-71665346D01*
X100379610Y-71570000D01*
X102102968Y-71570000D01*
X102085588Y-71577199D01*
X101527199Y-72135588D01*
X101225000Y-72865159D01*
X101225000Y-73654841D01*
X101527199Y-74384412D01*
X102085588Y-74942801D01*
X102815159Y-75245000D01*
X103604841Y-75245000D01*
X104334412Y-74942801D01*
X104892801Y-74384412D01*
X105195000Y-73654841D01*
X105195000Y-73445810D01*
X108460000Y-76710811D01*
X108460000Y-76887153D01*
X108445112Y-76962000D01*
X108460000Y-77036847D01*
X108460000Y-77036852D01*
X108504096Y-77258537D01*
X108672072Y-77509929D01*
X108735528Y-77552329D01*
X110492000Y-79308802D01*
X110492001Y-80711197D01*
X110429198Y-80774000D01*
X109891604Y-80774000D01*
X109671710Y-80627071D01*
X109367500Y-80566560D01*
X109072500Y-80566560D01*
X108768290Y-80627071D01*
X108735000Y-80649315D01*
X108701710Y-80627071D01*
X108397500Y-80566560D01*
X108102500Y-80566560D01*
X107798290Y-80627071D01*
X107578396Y-80774000D01*
X106081604Y-80774000D01*
X105861710Y-80627071D01*
X105557500Y-80566560D01*
X105262500Y-80566560D01*
X104971175Y-80624508D01*
X104861309Y-80579000D01*
X104725750Y-80579000D01*
X104567000Y-80737750D01*
X104567000Y-80999029D01*
X104528071Y-81057290D01*
X104467560Y-81361500D01*
X104467560Y-81706500D01*
X104528071Y-82010710D01*
X104567000Y-82068971D01*
X104567000Y-82330250D01*
X104725750Y-82489000D01*
X104861309Y-82489000D01*
X104971175Y-82443492D01*
X105262500Y-82501440D01*
X105557500Y-82501440D01*
X105861710Y-82440929D01*
X106081604Y-82294000D01*
X107563138Y-82294000D01*
X107702071Y-82501929D01*
X107765530Y-82544331D01*
X108001669Y-82780470D01*
X108044071Y-82843929D01*
X108295463Y-83011904D01*
X108314506Y-83015692D01*
X106238199Y-85092000D01*
X99882802Y-85092000D01*
X99693000Y-84902199D01*
X99693000Y-84786545D01*
X99697500Y-84787440D01*
X99992500Y-84787440D01*
X100283825Y-84729492D01*
X100393691Y-84775000D01*
X100529250Y-84775000D01*
X100688000Y-84616250D01*
X100688000Y-84354971D01*
X100726929Y-84296710D01*
X100787440Y-83992500D01*
X100787440Y-83947000D01*
X100942000Y-83947000D01*
X100942000Y-84616250D01*
X101100750Y-84775000D01*
X101236309Y-84775000D01*
X101469698Y-84678327D01*
X101648327Y-84499699D01*
X101745000Y-84266310D01*
X101745000Y-84105750D01*
X101586250Y-83947000D01*
X100942000Y-83947000D01*
X100787440Y-83947000D01*
X100787440Y-83647500D01*
X100726929Y-83343290D01*
X100688000Y-83285029D01*
X100688000Y-83023750D01*
X100942000Y-83023750D01*
X100942000Y-83693000D01*
X101586250Y-83693000D01*
X101745000Y-83534250D01*
X101745000Y-83373690D01*
X101648327Y-83140301D01*
X101469698Y-82961673D01*
X101236309Y-82865000D01*
X101100750Y-82865000D01*
X100942000Y-83023750D01*
X100688000Y-83023750D01*
X100529250Y-82865000D01*
X100393691Y-82865000D01*
X100283825Y-82910508D01*
X99992500Y-82852560D01*
X99697500Y-82852560D01*
X99693000Y-82853455D01*
X99693000Y-82500545D01*
X99697500Y-82501440D01*
X99992500Y-82501440D01*
X100283825Y-82443492D01*
X100393691Y-82489000D01*
X100529250Y-82489000D01*
X100688000Y-82330250D01*
X100688000Y-82068971D01*
X100726929Y-82010710D01*
X100787440Y-81706500D01*
X100787440Y-81661000D01*
X100942000Y-81661000D01*
X100942000Y-82330250D01*
X101100750Y-82489000D01*
X101236309Y-82489000D01*
X101469698Y-82392327D01*
X101648327Y-82213699D01*
X101745000Y-81980310D01*
X101745000Y-81819750D01*
X103510000Y-81819750D01*
X103510000Y-81980310D01*
X103606673Y-82213699D01*
X103785302Y-82392327D01*
X104018691Y-82489000D01*
X104154250Y-82489000D01*
X104313000Y-82330250D01*
X104313000Y-81661000D01*
X103668750Y-81661000D01*
X103510000Y-81819750D01*
X101745000Y-81819750D01*
X101586250Y-81661000D01*
X100942000Y-81661000D01*
X100787440Y-81661000D01*
X100787440Y-81361500D01*
X100726929Y-81057290D01*
X100688000Y-80999029D01*
X100688000Y-80737750D01*
X100942000Y-80737750D01*
X100942000Y-81407000D01*
X101586250Y-81407000D01*
X101745000Y-81248250D01*
X101745000Y-81087690D01*
X103510000Y-81087690D01*
X103510000Y-81248250D01*
X103668750Y-81407000D01*
X104313000Y-81407000D01*
X104313000Y-80737750D01*
X104154250Y-80579000D01*
X104018691Y-80579000D01*
X103785302Y-80675673D01*
X103606673Y-80854301D01*
X103510000Y-81087690D01*
X101745000Y-81087690D01*
X101648327Y-80854301D01*
X101469698Y-80675673D01*
X101236309Y-80579000D01*
X101100750Y-80579000D01*
X100942000Y-80737750D01*
X100688000Y-80737750D01*
X100529250Y-80579000D01*
X100393691Y-80579000D01*
X100283825Y-80624508D01*
X99992500Y-80566560D01*
X99697500Y-80566560D01*
X99693000Y-80567455D01*
X99693000Y-80451802D01*
X99925475Y-80219327D01*
X99988929Y-80176929D01*
X100031327Y-80113476D01*
X100031329Y-80113474D01*
X100156903Y-79925538D01*
X100156904Y-79925537D01*
X100201000Y-79703852D01*
X100201000Y-79703848D01*
X100215888Y-79629001D01*
X100201000Y-79554154D01*
X100201000Y-79383178D01*
X100511625Y-79175625D01*
X100523816Y-79157381D01*
X100532843Y-79202765D01*
X100673191Y-79412809D01*
X100883235Y-79553157D01*
X101131000Y-79602440D01*
X102831000Y-79602440D01*
X103078765Y-79553157D01*
X103288809Y-79412809D01*
X103429157Y-79202765D01*
X103478440Y-78955000D01*
X103478440Y-77255000D01*
X103429157Y-77007235D01*
X103288809Y-76797191D01*
X103078765Y-76656843D01*
X102831000Y-76607560D01*
X101131000Y-76607560D01*
X100883235Y-76656843D01*
X100673191Y-76797191D01*
X100532843Y-77007235D01*
X100523816Y-77052619D01*
X100511625Y-77034375D01*
X100020418Y-76706161D01*
X99587256Y-76620000D01*
X99294744Y-76620000D01*
X98861582Y-76706161D01*
X98370375Y-77034375D01*
X98042161Y-77525582D01*
X97926908Y-78105000D01*
X98042161Y-78684418D01*
X98370375Y-79175625D01*
X98639650Y-79355548D01*
X98448527Y-79546672D01*
X98385072Y-79589071D01*
X98342672Y-79652527D01*
X98342671Y-79652528D01*
X98217097Y-79840463D01*
X98158112Y-80137000D01*
X98173001Y-80211851D01*
X98173000Y-81332153D01*
X98158112Y-81407000D01*
X98173000Y-81481847D01*
X98173000Y-81481851D01*
X98183373Y-81533999D01*
X98173000Y-81586149D01*
X98173000Y-81586153D01*
X98158112Y-81661000D01*
X98173000Y-81735847D01*
X98173001Y-83500148D01*
X98158112Y-83575000D01*
X98173001Y-83649852D01*
X98195109Y-83760998D01*
X98173000Y-83872149D01*
X98173000Y-83872153D01*
X98158112Y-83947000D01*
X98173000Y-84021847D01*
X98173001Y-85142149D01*
X98158112Y-85217000D01*
X98173001Y-85291852D01*
X98217097Y-85513537D01*
X98385072Y-85764929D01*
X98448528Y-85807329D01*
X98977671Y-86336473D01*
X99020071Y-86399929D01*
X99271463Y-86567904D01*
X99493148Y-86612000D01*
X99493152Y-86612000D01*
X99568000Y-86626888D01*
X99642848Y-86612000D01*
X106478153Y-86612000D01*
X106553000Y-86626888D01*
X106627847Y-86612000D01*
X106627852Y-86612000D01*
X106849537Y-86567904D01*
X107100929Y-86399929D01*
X107143331Y-86336470D01*
X109534802Y-83945000D01*
X127955199Y-83945000D01*
X131045000Y-87034802D01*
X131045000Y-87200874D01*
X131202569Y-87581280D01*
X131493720Y-87872431D01*
X131874126Y-88030000D01*
X132285874Y-88030000D01*
X132590001Y-87904027D01*
X132590000Y-88261392D01*
X132518728Y-88290914D01*
X132105914Y-88703728D01*
X132080000Y-88766290D01*
X132054086Y-88703728D01*
X131641272Y-88290914D01*
X131101904Y-88067500D01*
X130518096Y-88067500D01*
X129978728Y-88290914D01*
X129565914Y-88703728D01*
X129540000Y-88766290D01*
X129514086Y-88703728D01*
X129101272Y-88290914D01*
X128561904Y-88067500D01*
X127978096Y-88067500D01*
X127906824Y-88097022D01*
X126955331Y-87145530D01*
X126912929Y-87082071D01*
X126661537Y-86914096D01*
X126439852Y-86870000D01*
X126439847Y-86870000D01*
X126365000Y-86855112D01*
X126290153Y-86870000D01*
X105611846Y-86870000D01*
X105536999Y-86855112D01*
X105462152Y-86870000D01*
X105462148Y-86870000D01*
X105240463Y-86914096D01*
X104989071Y-87082071D01*
X104946671Y-87145527D01*
X96670528Y-95421671D01*
X96607072Y-95464071D01*
X96564672Y-95527527D01*
X96564671Y-95527528D01*
X96439097Y-95715463D01*
X96380112Y-96012000D01*
X95754484Y-96012000D01*
X95663478Y-66435000D01*
X97537560Y-66435000D01*
X97537560Y-68185000D01*
X97586843Y-68432765D01*
X97727191Y-68642809D01*
X97937235Y-68783157D01*
X98185000Y-68832440D01*
X99935000Y-68832440D01*
X100182765Y-68783157D01*
X100392809Y-68642809D01*
X100533157Y-68432765D01*
X100582440Y-68185000D01*
X100582440Y-66435000D01*
X100533157Y-66187235D01*
X100392809Y-65977191D01*
X100182765Y-65836843D01*
X99935000Y-65787560D01*
X98185000Y-65787560D01*
X97937235Y-65836843D01*
X97727191Y-65977191D01*
X97586843Y-66187235D01*
X97537560Y-66435000D01*
X95663478Y-66435000D01*
X95657417Y-64465159D01*
X102425000Y-64465159D01*
X102425000Y-65254841D01*
X102727199Y-65984412D01*
X103285588Y-66542801D01*
X104015159Y-66845000D01*
X104804841Y-66845000D01*
X105534412Y-66542801D01*
X106092801Y-65984412D01*
X106395000Y-65254841D01*
X106395000Y-64465159D01*
X106092801Y-63735588D01*
X105534412Y-63177199D01*
X104804841Y-62875000D01*
X104015159Y-62875000D01*
X103285588Y-63177199D01*
X102727199Y-63735588D01*
X102425000Y-64465159D01*
X95657417Y-64465159D01*
X95644287Y-60198000D01*
X98561908Y-60198000D01*
X98677161Y-60777418D01*
X99005375Y-61268625D01*
X99496582Y-61596839D01*
X99929744Y-61683000D01*
X100222256Y-61683000D01*
X100655418Y-61596839D01*
X101146625Y-61268625D01*
X101158816Y-61250381D01*
X101167843Y-61295765D01*
X101308191Y-61505809D01*
X101518235Y-61646157D01*
X101766000Y-61695440D01*
X103466000Y-61695440D01*
X103713765Y-61646157D01*
X103923809Y-61505809D01*
X104064157Y-61295765D01*
X104113440Y-61048000D01*
X104113440Y-60483750D01*
X106741000Y-60483750D01*
X106741000Y-60619309D01*
X106837673Y-60852698D01*
X107016301Y-61031327D01*
X107249690Y-61128000D01*
X107410250Y-61128000D01*
X107569000Y-60969250D01*
X107569000Y-60325000D01*
X107823000Y-60325000D01*
X107823000Y-60969250D01*
X107981750Y-61128000D01*
X108142310Y-61128000D01*
X108375699Y-61031327D01*
X108554327Y-60852698D01*
X108651000Y-60619309D01*
X108651000Y-60488550D01*
X109077800Y-60488550D01*
X109077800Y-60624109D01*
X109174473Y-60857498D01*
X109353101Y-61036127D01*
X109586490Y-61132800D01*
X109747050Y-61132800D01*
X109905800Y-60974050D01*
X109905800Y-60329800D01*
X110159800Y-60329800D01*
X110159800Y-60974050D01*
X110318550Y-61132800D01*
X110479110Y-61132800D01*
X110712499Y-61036127D01*
X110891127Y-60857498D01*
X110987800Y-60624109D01*
X110987800Y-60488550D01*
X110829050Y-60329800D01*
X110159800Y-60329800D01*
X109905800Y-60329800D01*
X109236550Y-60329800D01*
X109077800Y-60488550D01*
X108651000Y-60488550D01*
X108651000Y-60483750D01*
X108492250Y-60325000D01*
X107823000Y-60325000D01*
X107569000Y-60325000D01*
X106899750Y-60325000D01*
X106741000Y-60483750D01*
X104113440Y-60483750D01*
X104113440Y-59348000D01*
X104064157Y-59100235D01*
X103947736Y-58926000D01*
X106759292Y-58926000D01*
X106728560Y-59080500D01*
X106728560Y-59375500D01*
X106786508Y-59666825D01*
X106741000Y-59776691D01*
X106741000Y-59912250D01*
X106899750Y-60071000D01*
X107161029Y-60071000D01*
X107219290Y-60109929D01*
X107523500Y-60170440D01*
X107868500Y-60170440D01*
X108172710Y-60109929D01*
X108230971Y-60071000D01*
X108492250Y-60071000D01*
X108575250Y-59988000D01*
X109148750Y-59988000D01*
X109236550Y-60075800D01*
X109497829Y-60075800D01*
X109556090Y-60114729D01*
X109860300Y-60175240D01*
X110205300Y-60175240D01*
X110509510Y-60114729D01*
X110567771Y-60075800D01*
X110829050Y-60075800D01*
X110987800Y-59917050D01*
X110987800Y-59781491D01*
X110942292Y-59671625D01*
X111000240Y-59380300D01*
X111000240Y-59085300D01*
X110968553Y-58926000D01*
X111445199Y-58926000D01*
X133860000Y-81340802D01*
X133860001Y-82481288D01*
X133742569Y-82598720D01*
X133585000Y-82979126D01*
X133585000Y-83390874D01*
X133742569Y-83771280D01*
X134033720Y-84062431D01*
X134414126Y-84220000D01*
X134825874Y-84220000D01*
X135206280Y-84062431D01*
X135497431Y-83771280D01*
X135655000Y-83390874D01*
X135655000Y-82979126D01*
X135497431Y-82598720D01*
X135380000Y-82481289D01*
X135380000Y-81100846D01*
X135394888Y-81025999D01*
X135380000Y-80951152D01*
X135380000Y-80951148D01*
X135335904Y-80729463D01*
X135167929Y-80478071D01*
X135104473Y-80435671D01*
X113882552Y-59213750D01*
X126728000Y-59213750D01*
X126728000Y-59374310D01*
X126824673Y-59607699D01*
X127003302Y-59786327D01*
X127236691Y-59883000D01*
X127372250Y-59883000D01*
X127531000Y-59724250D01*
X127531000Y-59055000D01*
X126886750Y-59055000D01*
X126728000Y-59213750D01*
X113882552Y-59213750D01*
X113150492Y-58481690D01*
X126728000Y-58481690D01*
X126728000Y-58642250D01*
X126886750Y-58801000D01*
X127531000Y-58801000D01*
X127531000Y-58755500D01*
X127685560Y-58755500D01*
X127685560Y-59100500D01*
X127746071Y-59404710D01*
X127785000Y-59462971D01*
X127785000Y-59724250D01*
X127943750Y-59883000D01*
X128079309Y-59883000D01*
X128189175Y-59837492D01*
X128480500Y-59895440D01*
X128775500Y-59895440D01*
X129079710Y-59834929D01*
X129299604Y-59688000D01*
X130024560Y-59688000D01*
X130024560Y-59828000D01*
X130073843Y-60075765D01*
X130214191Y-60285809D01*
X130424235Y-60426157D01*
X130672000Y-60475440D01*
X132472000Y-60475440D01*
X132719765Y-60426157D01*
X132929809Y-60285809D01*
X133070157Y-60075765D01*
X133073275Y-60060092D01*
X133242493Y-60229310D01*
X133806670Y-60463000D01*
X134417330Y-60463000D01*
X134981507Y-60229310D01*
X135413310Y-59797507D01*
X135647000Y-59233330D01*
X135647000Y-59213750D01*
X136761000Y-59213750D01*
X136761000Y-59374310D01*
X136857673Y-59607699D01*
X137036302Y-59786327D01*
X137269691Y-59883000D01*
X137405250Y-59883000D01*
X137564000Y-59724250D01*
X137564000Y-59055000D01*
X136919750Y-59055000D01*
X136761000Y-59213750D01*
X135647000Y-59213750D01*
X135647000Y-58622670D01*
X135588605Y-58481690D01*
X136761000Y-58481690D01*
X136761000Y-58642250D01*
X136919750Y-58801000D01*
X137564000Y-58801000D01*
X137564000Y-58755500D01*
X137718560Y-58755500D01*
X137718560Y-59100500D01*
X137779071Y-59404710D01*
X137818000Y-59462971D01*
X137818000Y-59724250D01*
X137976750Y-59883000D01*
X138112309Y-59883000D01*
X138222175Y-59837492D01*
X138513500Y-59895440D01*
X138808500Y-59895440D01*
X139112710Y-59834929D01*
X139200561Y-59776229D01*
X139200561Y-59879001D01*
X139249844Y-60126766D01*
X139390192Y-60336810D01*
X139600236Y-60477158D01*
X139848001Y-60526441D01*
X141648001Y-60526441D01*
X141895766Y-60477158D01*
X142105810Y-60336810D01*
X142246158Y-60126766D01*
X142249276Y-60111093D01*
X142418494Y-60280311D01*
X142982671Y-60514001D01*
X143593331Y-60514001D01*
X143702840Y-60468641D01*
X146447502Y-63213304D01*
X146447501Y-74494790D01*
X146330070Y-74612221D01*
X146172501Y-74992627D01*
X146172501Y-75404375D01*
X146330070Y-75784781D01*
X146621221Y-76075932D01*
X147001627Y-76233501D01*
X147413375Y-76233501D01*
X147793781Y-76075932D01*
X148084932Y-75784781D01*
X148242501Y-75404375D01*
X148242501Y-74992627D01*
X148084932Y-74612221D01*
X147967501Y-74494790D01*
X147967501Y-72865159D01*
X166425000Y-72865159D01*
X166425000Y-73654841D01*
X166727199Y-74384412D01*
X167285588Y-74942801D01*
X168015159Y-75245000D01*
X168804841Y-75245000D01*
X169534412Y-74942801D01*
X170092801Y-74384412D01*
X170395000Y-73654841D01*
X170395000Y-72865159D01*
X170092801Y-72135588D01*
X169534412Y-71577199D01*
X168804841Y-71275000D01*
X168015159Y-71275000D01*
X167285588Y-71577199D01*
X166727199Y-72135588D01*
X166425000Y-72865159D01*
X147967501Y-72865159D01*
X147967501Y-68372060D01*
X171677545Y-68372060D01*
X171760884Y-68625953D01*
X172325306Y-68831590D01*
X172925458Y-68805579D01*
X173359116Y-68625953D01*
X173442455Y-68372060D01*
X172560000Y-67489605D01*
X171677545Y-68372060D01*
X147967501Y-68372060D01*
X147967501Y-67075306D01*
X171038410Y-67075306D01*
X171064421Y-67675458D01*
X171244047Y-68109116D01*
X171497940Y-68192455D01*
X172380395Y-67310000D01*
X172739605Y-67310000D01*
X173622060Y-68192455D01*
X173875953Y-68109116D01*
X174081590Y-67544694D01*
X174055579Y-66944542D01*
X173875953Y-66510884D01*
X173622060Y-66427545D01*
X172739605Y-67310000D01*
X172380395Y-67310000D01*
X171497940Y-66427545D01*
X171244047Y-66510884D01*
X171038410Y-67075306D01*
X147967501Y-67075306D01*
X147967501Y-64465159D01*
X165225000Y-64465159D01*
X165225000Y-65254841D01*
X165527199Y-65984412D01*
X166085588Y-66542801D01*
X166815159Y-66845000D01*
X167604841Y-66845000D01*
X168334412Y-66542801D01*
X168629273Y-66247940D01*
X171677545Y-66247940D01*
X172560000Y-67130395D01*
X173419059Y-66271336D01*
X180437542Y-66271336D01*
X180463161Y-66881460D01*
X180647357Y-67326148D01*
X180903841Y-67412554D01*
X181804395Y-66512000D01*
X182163605Y-66512000D01*
X183064159Y-67412554D01*
X183320643Y-67326148D01*
X183530458Y-66752664D01*
X183504839Y-66142540D01*
X183320643Y-65697852D01*
X183064159Y-65611446D01*
X182163605Y-66512000D01*
X181804395Y-66512000D01*
X180903841Y-65611446D01*
X180647357Y-65697852D01*
X180437542Y-66271336D01*
X173419059Y-66271336D01*
X173442455Y-66247940D01*
X173359116Y-65994047D01*
X172794694Y-65788410D01*
X172194542Y-65814421D01*
X171760884Y-65994047D01*
X171677545Y-66247940D01*
X168629273Y-66247940D01*
X168892801Y-65984412D01*
X169121684Y-65431841D01*
X181083446Y-65431841D01*
X181984000Y-66332395D01*
X182884554Y-65431841D01*
X182798148Y-65175357D01*
X182224664Y-64965542D01*
X181614540Y-64991161D01*
X181169852Y-65175357D01*
X181083446Y-65431841D01*
X169121684Y-65431841D01*
X169195000Y-65254841D01*
X169195000Y-64465159D01*
X168892801Y-63735588D01*
X168334412Y-63177199D01*
X167604841Y-62875000D01*
X166815159Y-62875000D01*
X166085588Y-63177199D01*
X165527199Y-63735588D01*
X165225000Y-64465159D01*
X147967501Y-64465159D01*
X147967501Y-62973347D01*
X147982389Y-62898500D01*
X147967501Y-62823653D01*
X147967501Y-62823649D01*
X147923405Y-62601964D01*
X147755430Y-62350572D01*
X147691974Y-62308172D01*
X144777641Y-59393840D01*
X144823001Y-59284331D01*
X144823001Y-58673671D01*
X144589311Y-58109494D01*
X144157508Y-57677691D01*
X143593331Y-57444001D01*
X142982671Y-57444001D01*
X142418494Y-57677691D01*
X142249276Y-57846909D01*
X142246158Y-57831236D01*
X142105810Y-57621192D01*
X141895766Y-57480844D01*
X141648001Y-57431561D01*
X139848001Y-57431561D01*
X139600236Y-57480844D01*
X139390192Y-57621192D01*
X139249844Y-57831236D01*
X139200561Y-58079001D01*
X139200561Y-58079771D01*
X139112710Y-58021071D01*
X138808500Y-57960560D01*
X138513500Y-57960560D01*
X138222175Y-58018508D01*
X138112309Y-57973000D01*
X137976750Y-57973000D01*
X137818000Y-58131750D01*
X137818000Y-58393029D01*
X137779071Y-58451290D01*
X137718560Y-58755500D01*
X137564000Y-58755500D01*
X137564000Y-58131750D01*
X137405250Y-57973000D01*
X137269691Y-57973000D01*
X137036302Y-58069673D01*
X136857673Y-58248301D01*
X136761000Y-58481690D01*
X135588605Y-58481690D01*
X135413310Y-58058493D01*
X134981507Y-57626690D01*
X134417330Y-57393000D01*
X133806670Y-57393000D01*
X133242493Y-57626690D01*
X133073275Y-57795908D01*
X133070157Y-57780235D01*
X132929809Y-57570191D01*
X132719765Y-57429843D01*
X132472000Y-57380560D01*
X130672000Y-57380560D01*
X130424235Y-57429843D01*
X130214191Y-57570191D01*
X130073843Y-57780235D01*
X130024560Y-58028000D01*
X130024560Y-58168000D01*
X129299604Y-58168000D01*
X129079710Y-58021071D01*
X128775500Y-57960560D01*
X128480500Y-57960560D01*
X128189175Y-58018508D01*
X128079309Y-57973000D01*
X127943750Y-57973000D01*
X127785000Y-58131750D01*
X127785000Y-58393029D01*
X127746071Y-58451290D01*
X127685560Y-58755500D01*
X127531000Y-58755500D01*
X127531000Y-58131750D01*
X127372250Y-57973000D01*
X127236691Y-57973000D01*
X127003302Y-58069673D01*
X126824673Y-58248301D01*
X126728000Y-58481690D01*
X113150492Y-58481690D01*
X112350331Y-57681530D01*
X112307929Y-57618071D01*
X112056537Y-57450096D01*
X111834852Y-57406000D01*
X111834847Y-57406000D01*
X111760000Y-57391112D01*
X111685153Y-57406000D01*
X110412446Y-57406000D01*
X110337599Y-57391112D01*
X110262752Y-57406000D01*
X110262748Y-57406000D01*
X110041063Y-57450096D01*
X109789671Y-57618071D01*
X109747270Y-57681528D01*
X109548327Y-57880472D01*
X109484872Y-57922871D01*
X109442472Y-57986327D01*
X109442471Y-57986328D01*
X109414627Y-58028000D01*
X109316897Y-58174263D01*
X109272800Y-58395948D01*
X109272800Y-58395953D01*
X109258469Y-58468000D01*
X108455175Y-58468000D01*
X108411904Y-58250463D01*
X108243929Y-57999071D01*
X108180473Y-57956671D01*
X107905331Y-57681529D01*
X107862929Y-57618071D01*
X107611537Y-57450096D01*
X107389852Y-57406000D01*
X107389847Y-57406000D01*
X107315000Y-57391112D01*
X107240153Y-57406000D01*
X102182847Y-57406000D01*
X102108000Y-57391112D01*
X102033153Y-57406000D01*
X102033148Y-57406000D01*
X101811463Y-57450096D01*
X101560071Y-57618071D01*
X101517671Y-57681527D01*
X100442408Y-58756791D01*
X100222256Y-58713000D01*
X99929744Y-58713000D01*
X99496582Y-58799161D01*
X99005375Y-59127375D01*
X98677161Y-59618582D01*
X98561908Y-60198000D01*
X95644287Y-60198000D01*
X95631391Y-56007000D01*
X186563000Y-56007000D01*
X186563000Y-138303000D01*
X186563000Y-138303000D01*
G37*
X186563000Y-138303000D02*
X95884609Y-138303000D01*
X95851047Y-127395000D01*
X97537560Y-127395000D01*
X97537560Y-129145000D01*
X97586843Y-129392765D01*
X97727191Y-129602809D01*
X97937235Y-129743157D01*
X98185000Y-129792440D01*
X99935000Y-129792440D01*
X100182765Y-129743157D01*
X100392809Y-129602809D01*
X100533157Y-129392765D01*
X100582440Y-129145000D01*
X100582440Y-127395000D01*
X100533157Y-127147235D01*
X100392809Y-126937191D01*
X100182765Y-126796843D01*
X99935000Y-126747560D01*
X98185000Y-126747560D01*
X97937235Y-126796843D01*
X97727191Y-126937191D01*
X97586843Y-127147235D01*
X97537560Y-127395000D01*
X95851047Y-127395000D01*
X95754484Y-96012000D01*
X96380112Y-96012000D01*
X96395001Y-96086852D01*
X96395000Y-117146153D01*
X96380112Y-117221000D01*
X96395000Y-117295847D01*
X96395000Y-117295851D01*
X96439096Y-117517536D01*
X96607071Y-117768929D01*
X96670530Y-117811331D01*
X97707670Y-118848472D01*
X97750071Y-118911929D01*
X98001463Y-119079904D01*
X98223148Y-119124000D01*
X98223152Y-119124000D01*
X98297999Y-119138888D01*
X98372846Y-119124000D01*
X100273197Y-119124000D01*
X99083530Y-120313669D01*
X99020071Y-120356071D01*
X98852096Y-120607464D01*
X98808000Y-120829149D01*
X98808000Y-120829153D01*
X98793112Y-120904000D01*
X98808000Y-120978847D01*
X98808000Y-121530822D01*
X98497375Y-121738375D01*
X98169161Y-122229582D01*
X98053908Y-122809000D01*
X98169161Y-123388418D01*
X98497375Y-123879625D01*
X98988582Y-124207839D01*
X99421744Y-124294000D01*
X99714256Y-124294000D01*
X100147418Y-124207839D01*
X100638625Y-123879625D01*
X100650816Y-123861381D01*
X100659843Y-123906765D01*
X100800191Y-124116809D01*
X101010235Y-124257157D01*
X101258000Y-124306440D01*
X102958000Y-124306440D01*
X103155664Y-124267123D01*
X102727199Y-124695588D01*
X102425000Y-125425159D01*
X102425000Y-126214841D01*
X102727199Y-126944412D01*
X103285588Y-127502801D01*
X104015159Y-127805000D01*
X104804841Y-127805000D01*
X105534412Y-127502801D01*
X106092801Y-126944412D01*
X106395000Y-126214841D01*
X106395000Y-125425159D01*
X106092801Y-124695588D01*
X105534412Y-124137199D01*
X104804841Y-123835000D01*
X104015159Y-123835000D01*
X103446805Y-124070421D01*
X103556157Y-123906765D01*
X103605440Y-123659000D01*
X103605440Y-122967750D01*
X107193000Y-122967750D01*
X107193000Y-123128310D01*
X107289673Y-123361699D01*
X107468302Y-123540327D01*
X107701691Y-123637000D01*
X107837250Y-123637000D01*
X107996000Y-123478250D01*
X107996000Y-122809000D01*
X107351750Y-122809000D01*
X107193000Y-122967750D01*
X103605440Y-122967750D01*
X103605440Y-122235690D01*
X107193000Y-122235690D01*
X107193000Y-122396250D01*
X107351750Y-122555000D01*
X107996000Y-122555000D01*
X107996000Y-121885750D01*
X107884238Y-121773988D01*
X107995527Y-121662698D01*
X108092200Y-121429309D01*
X108092200Y-121293750D01*
X107933450Y-121135000D01*
X107264200Y-121135000D01*
X107264200Y-121779250D01*
X107388462Y-121903512D01*
X107289673Y-122002301D01*
X107193000Y-122235690D01*
X103605440Y-122235690D01*
X103605440Y-121959000D01*
X103556157Y-121711235D01*
X103415809Y-121501191D01*
X103205765Y-121360843D01*
X102958000Y-121311560D01*
X101258000Y-121311560D01*
X101010235Y-121360843D01*
X100800191Y-121501191D01*
X100659843Y-121711235D01*
X100650816Y-121756619D01*
X100638625Y-121738375D01*
X100328000Y-121530822D01*
X100328000Y-121293750D01*
X106182200Y-121293750D01*
X106182200Y-121429309D01*
X106278873Y-121662698D01*
X106457501Y-121841327D01*
X106690890Y-121938000D01*
X106851450Y-121938000D01*
X107010200Y-121779250D01*
X107010200Y-121135000D01*
X106340950Y-121135000D01*
X106182200Y-121293750D01*
X100328000Y-121293750D01*
X100328000Y-121218801D01*
X101406803Y-120140000D01*
X106169760Y-120140000D01*
X106169760Y-120185500D01*
X106227708Y-120476825D01*
X106182200Y-120586691D01*
X106182200Y-120722250D01*
X106340950Y-120881000D01*
X106602229Y-120881000D01*
X106660490Y-120919929D01*
X106964700Y-120980440D01*
X107309700Y-120980440D01*
X107613910Y-120919929D01*
X107672171Y-120881000D01*
X107933450Y-120881000D01*
X108092200Y-120722250D01*
X108092200Y-120586691D01*
X108046692Y-120476825D01*
X108104640Y-120185500D01*
X108104640Y-120013000D01*
X108506560Y-120013000D01*
X108506560Y-120185500D01*
X108564508Y-120476825D01*
X108519000Y-120586691D01*
X108519000Y-120722250D01*
X108677750Y-120881000D01*
X108939029Y-120881000D01*
X108997290Y-120919929D01*
X109301500Y-120980440D01*
X109621000Y-120980440D01*
X109621000Y-121135000D01*
X109601000Y-121135000D01*
X109601000Y-121155000D01*
X109347000Y-121155000D01*
X109347000Y-121135000D01*
X108677750Y-121135000D01*
X108519000Y-121293750D01*
X108519000Y-121429309D01*
X108615673Y-121662698D01*
X108713652Y-121760677D01*
X108654175Y-121772508D01*
X108544309Y-121727000D01*
X108408750Y-121727000D01*
X108250000Y-121885750D01*
X108250000Y-122147029D01*
X108211071Y-122205290D01*
X108150560Y-122509500D01*
X108150560Y-122854500D01*
X108211071Y-123158710D01*
X108250000Y-123216971D01*
X108250000Y-123478250D01*
X108408750Y-123637000D01*
X108544309Y-123637000D01*
X108654175Y-123591492D01*
X108945500Y-123649440D01*
X109240500Y-123649440D01*
X109544710Y-123588929D01*
X109764604Y-123442000D01*
X110476396Y-123442000D01*
X110696290Y-123588929D01*
X110883943Y-123626255D01*
X109925288Y-124584911D01*
X109870999Y-124574112D01*
X109796152Y-124589000D01*
X109796148Y-124589000D01*
X109574463Y-124633096D01*
X109323071Y-124801071D01*
X109280671Y-124864527D01*
X103135199Y-131010000D01*
X100379610Y-131010000D01*
X100340116Y-130914654D01*
X99915346Y-130489884D01*
X99360358Y-130260000D01*
X98759642Y-130260000D01*
X98204654Y-130489884D01*
X97779884Y-130914654D01*
X97550000Y-131469642D01*
X97550000Y-132070358D01*
X97779884Y-132625346D01*
X98204654Y-133050116D01*
X98759642Y-133280000D01*
X99360358Y-133280000D01*
X99915346Y-133050116D01*
X100340116Y-132625346D01*
X100379610Y-132530000D01*
X102102968Y-132530000D01*
X102085588Y-132537199D01*
X101527199Y-133095588D01*
X101225000Y-133825159D01*
X101225000Y-134614841D01*
X101527199Y-135344412D01*
X102085588Y-135902801D01*
X102815159Y-136205000D01*
X103604841Y-136205000D01*
X104334412Y-135902801D01*
X104892801Y-135344412D01*
X105195000Y-134614841D01*
X105195000Y-133825159D01*
X166425000Y-133825159D01*
X166425000Y-134614841D01*
X166727199Y-135344412D01*
X167285588Y-135902801D01*
X168015159Y-136205000D01*
X168804841Y-136205000D01*
X169534412Y-135902801D01*
X170092801Y-135344412D01*
X170395000Y-134614841D01*
X170395000Y-133825159D01*
X170092801Y-133095588D01*
X169534412Y-132537199D01*
X168804841Y-132235000D01*
X168015159Y-132235000D01*
X167285588Y-132537199D01*
X166727199Y-133095588D01*
X166425000Y-133825159D01*
X105195000Y-133825159D01*
X104892801Y-133095588D01*
X104334412Y-132537199D01*
X103924117Y-132367249D01*
X103997929Y-132317929D01*
X104040331Y-132254470D01*
X110181712Y-126113090D01*
X110236000Y-126123888D01*
X110310847Y-126109000D01*
X110310852Y-126109000D01*
X110532537Y-126064904D01*
X110783929Y-125896929D01*
X110826331Y-125833470D01*
X112602473Y-124057329D01*
X112665929Y-124014929D01*
X112833904Y-123763537D01*
X112878000Y-123541852D01*
X112878000Y-123541847D01*
X112892888Y-123467000D01*
X112878000Y-123392153D01*
X112878000Y-123341189D01*
X112999929Y-123158710D01*
X113060440Y-122854500D01*
X113060440Y-122509500D01*
X112999929Y-122205290D01*
X112827607Y-121947393D01*
X112569710Y-121775071D01*
X112265500Y-121714560D01*
X111970500Y-121714560D01*
X111908000Y-121726992D01*
X111908000Y-119223848D01*
X111922888Y-119149000D01*
X111908000Y-119074152D01*
X111908000Y-119074148D01*
X111863904Y-118852463D01*
X111695929Y-118601071D01*
X111632473Y-118558671D01*
X110953331Y-117879530D01*
X110910929Y-117816071D01*
X110659537Y-117648096D01*
X110437852Y-117604000D01*
X110437847Y-117604000D01*
X110363000Y-117589112D01*
X110288153Y-117604000D01*
X98612802Y-117604000D01*
X97915000Y-116906199D01*
X97915000Y-110673801D01*
X98573635Y-111332437D01*
X98554000Y-111431149D01*
X98554000Y-111431153D01*
X98539112Y-111506000D01*
X98554000Y-111580847D01*
X98554001Y-112650349D01*
X98539112Y-112725200D01*
X98598097Y-113021737D01*
X98716899Y-113199536D01*
X98766072Y-113273129D01*
X98829528Y-113315529D01*
X99169128Y-113655130D01*
X99106096Y-113749464D01*
X99062000Y-113971149D01*
X99062000Y-113971153D01*
X99047112Y-114046000D01*
X99062000Y-114120847D01*
X99062001Y-115114149D01*
X99047112Y-115189000D01*
X99062001Y-115263852D01*
X99106097Y-115485537D01*
X99274072Y-115736929D01*
X99337527Y-115779329D01*
X99612671Y-116054472D01*
X99655071Y-116117929D01*
X99906463Y-116285904D01*
X100128148Y-116330000D01*
X100128152Y-116330000D01*
X100202999Y-116344888D01*
X100277846Y-116330000D01*
X122875199Y-116330000D01*
X125139673Y-118594476D01*
X125182071Y-118657929D01*
X125245524Y-118700327D01*
X125245526Y-118700329D01*
X125370902Y-118784102D01*
X125433463Y-118825904D01*
X125655148Y-118870000D01*
X125655152Y-118870000D01*
X125729999Y-118884888D01*
X125804846Y-118870000D01*
X133656153Y-118870000D01*
X133731000Y-118884888D01*
X133805847Y-118870000D01*
X133805852Y-118870000D01*
X134027537Y-118825904D01*
X134278929Y-118657929D01*
X134321331Y-118594470D01*
X138914473Y-114001329D01*
X138977929Y-113958929D01*
X139145904Y-113707537D01*
X139190000Y-113485852D01*
X139190000Y-113485848D01*
X139204888Y-113411000D01*
X139190000Y-113336152D01*
X139190000Y-111128608D01*
X139261272Y-111099086D01*
X139674086Y-110686272D01*
X139700000Y-110623710D01*
X139725914Y-110686272D01*
X140138728Y-111099086D01*
X140210001Y-111128608D01*
X140210000Y-113223198D01*
X125415199Y-128018000D01*
X112336711Y-128018000D01*
X112219280Y-127900569D01*
X111838874Y-127743000D01*
X111427126Y-127743000D01*
X111046720Y-127900569D01*
X110755569Y-128191720D01*
X110598000Y-128572126D01*
X110598000Y-128983874D01*
X110755569Y-129364280D01*
X111046720Y-129655431D01*
X111427126Y-129813000D01*
X111838874Y-129813000D01*
X112219280Y-129655431D01*
X112336711Y-129538000D01*
X125655153Y-129538000D01*
X125730000Y-129552888D01*
X125804847Y-129538000D01*
X125804852Y-129538000D01*
X126026537Y-129493904D01*
X126268753Y-129332060D01*
X171677545Y-129332060D01*
X171760884Y-129585953D01*
X172325306Y-129791590D01*
X172925458Y-129765579D01*
X173359116Y-129585953D01*
X173442455Y-129332060D01*
X172560000Y-128449605D01*
X171677545Y-129332060D01*
X126268753Y-129332060D01*
X126277929Y-129325929D01*
X126320331Y-129262470D01*
X127547495Y-128035306D01*
X171038410Y-128035306D01*
X171064421Y-128635458D01*
X171244047Y-129069116D01*
X171497940Y-129152455D01*
X172380395Y-128270000D01*
X172739605Y-128270000D01*
X173622060Y-129152455D01*
X173875953Y-129069116D01*
X174081590Y-128504694D01*
X174055579Y-127904542D01*
X173875953Y-127470884D01*
X173622060Y-127387545D01*
X172739605Y-128270000D01*
X172380395Y-128270000D01*
X171497940Y-127387545D01*
X171244047Y-127470884D01*
X171038410Y-128035306D01*
X127547495Y-128035306D01*
X130157642Y-125425159D01*
X165225000Y-125425159D01*
X165225000Y-126214841D01*
X165527199Y-126944412D01*
X166085588Y-127502801D01*
X166815159Y-127805000D01*
X167604841Y-127805000D01*
X168334412Y-127502801D01*
X168629273Y-127207940D01*
X171677545Y-127207940D01*
X172560000Y-128090395D01*
X173442455Y-127207940D01*
X173359116Y-126954047D01*
X172794694Y-126748410D01*
X172194542Y-126774421D01*
X171760884Y-126954047D01*
X171677545Y-127207940D01*
X168629273Y-127207940D01*
X168892801Y-126944412D01*
X169195000Y-126214841D01*
X169195000Y-125425159D01*
X168892801Y-124695588D01*
X168334412Y-124137199D01*
X167604841Y-123835000D01*
X166815159Y-123835000D01*
X166085588Y-124137199D01*
X165527199Y-124695588D01*
X165225000Y-125425159D01*
X130157642Y-125425159D01*
X141454473Y-114128329D01*
X141517929Y-114085929D01*
X141594623Y-113971149D01*
X141685904Y-113834538D01*
X141695480Y-113786395D01*
X141730000Y-113612852D01*
X141730000Y-113612848D01*
X141744888Y-113538000D01*
X141730000Y-113463152D01*
X141730000Y-111128608D01*
X141801272Y-111099086D01*
X142214086Y-110686272D01*
X142240000Y-110623710D01*
X142265914Y-110686272D01*
X142678728Y-111099086D01*
X143218096Y-111322500D01*
X143801904Y-111322500D01*
X144341272Y-111099086D01*
X144754086Y-110686272D01*
X144780000Y-110623710D01*
X144805914Y-110686272D01*
X145218728Y-111099086D01*
X145758096Y-111322500D01*
X146341904Y-111322500D01*
X146881272Y-111099086D01*
X147294086Y-110686272D01*
X147320000Y-110623710D01*
X147345914Y-110686272D01*
X147758728Y-111099086D01*
X148298096Y-111322500D01*
X148881904Y-111322500D01*
X149421272Y-111099086D01*
X149834086Y-110686272D01*
X149860000Y-110623710D01*
X149885914Y-110686272D01*
X150298728Y-111099086D01*
X150838096Y-111322500D01*
X151421904Y-111322500D01*
X151961272Y-111099086D01*
X152374086Y-110686272D01*
X152400000Y-110623710D01*
X152425914Y-110686272D01*
X152838728Y-111099086D01*
X153378096Y-111322500D01*
X153961904Y-111322500D01*
X154501272Y-111099086D01*
X154914086Y-110686272D01*
X154940000Y-110623710D01*
X154965914Y-110686272D01*
X155378728Y-111099086D01*
X155918096Y-111322500D01*
X156501904Y-111322500D01*
X157041272Y-111099086D01*
X157454086Y-110686272D01*
X157677500Y-110146904D01*
X157677500Y-109567045D01*
X157866692Y-110023795D01*
X158581205Y-110738308D01*
X159514762Y-111125000D01*
X160525238Y-111125000D01*
X161458795Y-110738308D01*
X162173308Y-110023795D01*
X162560000Y-109090238D01*
X162560000Y-108079762D01*
X162173308Y-107146205D01*
X161458795Y-106431692D01*
X160525238Y-106045000D01*
X159514762Y-106045000D01*
X158581205Y-106431692D01*
X157866692Y-107146205D01*
X157480000Y-108079762D01*
X157480000Y-109086290D01*
X157454086Y-109023728D01*
X157041272Y-108610914D01*
X156501904Y-108387500D01*
X155918096Y-108387500D01*
X155378728Y-108610914D01*
X154965914Y-109023728D01*
X154940000Y-109086290D01*
X154914086Y-109023728D01*
X154501272Y-108610914D01*
X153961904Y-108387500D01*
X153378096Y-108387500D01*
X152838728Y-108610914D01*
X152425914Y-109023728D01*
X152400000Y-109086290D01*
X152374086Y-109023728D01*
X151961272Y-108610914D01*
X151421904Y-108387500D01*
X150838096Y-108387500D01*
X150298728Y-108610914D01*
X149885914Y-109023728D01*
X149860000Y-109086290D01*
X149834086Y-109023728D01*
X149421272Y-108610914D01*
X148881904Y-108387500D01*
X148298096Y-108387500D01*
X147758728Y-108610914D01*
X147345914Y-109023728D01*
X147320000Y-109086290D01*
X147294086Y-109023728D01*
X146881272Y-108610914D01*
X146341904Y-108387500D01*
X145758096Y-108387500D01*
X145218728Y-108610914D01*
X144805914Y-109023728D01*
X144780000Y-109086290D01*
X144754086Y-109023728D01*
X144341272Y-108610914D01*
X143801904Y-108387500D01*
X143218096Y-108387500D01*
X142678728Y-108610914D01*
X142265914Y-109023728D01*
X142240000Y-109086290D01*
X142214086Y-109023728D01*
X141801272Y-108610914D01*
X141261904Y-108387500D01*
X140678096Y-108387500D01*
X140138728Y-108610914D01*
X139725914Y-109023728D01*
X139700000Y-109086290D01*
X139674086Y-109023728D01*
X139261272Y-108610914D01*
X138721904Y-108387500D01*
X138138096Y-108387500D01*
X137598728Y-108610914D01*
X137185914Y-109023728D01*
X137160000Y-109086290D01*
X137134086Y-109023728D01*
X136721272Y-108610914D01*
X136181904Y-108387500D01*
X135598096Y-108387500D01*
X135058728Y-108610914D01*
X134645914Y-109023728D01*
X134620000Y-109086290D01*
X134594086Y-109023728D01*
X134181272Y-108610914D01*
X133641904Y-108387500D01*
X133058096Y-108387500D01*
X132518728Y-108610914D01*
X132105914Y-109023728D01*
X132080000Y-109086290D01*
X132054086Y-109023728D01*
X131641272Y-108610914D01*
X131101904Y-108387500D01*
X130518096Y-108387500D01*
X129978728Y-108610914D01*
X129719612Y-108870030D01*
X129700657Y-108774735D01*
X129560309Y-108564691D01*
X129350265Y-108424343D01*
X129102500Y-108375060D01*
X127437500Y-108375060D01*
X127189735Y-108424343D01*
X126979691Y-108564691D01*
X126839343Y-108774735D01*
X126790060Y-109022500D01*
X126790060Y-110687500D01*
X126839343Y-110935265D01*
X126979691Y-111145309D01*
X127189735Y-111285657D01*
X127437500Y-111334940D01*
X129102500Y-111334940D01*
X129350265Y-111285657D01*
X129560309Y-111145309D01*
X129700657Y-110935265D01*
X129719612Y-110839970D01*
X129978728Y-111099086D01*
X130050000Y-111128608D01*
X130050001Y-114072560D01*
X129960000Y-114072560D01*
X129712235Y-114121843D01*
X129502191Y-114262191D01*
X129361843Y-114472235D01*
X129341261Y-114575708D01*
X129036924Y-114298355D01*
X128626890Y-114128524D01*
X128397000Y-114249845D01*
X128397000Y-115443000D01*
X128417000Y-115443000D01*
X128417000Y-115697000D01*
X128397000Y-115697000D01*
X128397000Y-116890155D01*
X128626890Y-117011476D01*
X129036924Y-116841645D01*
X129341261Y-116564292D01*
X129361843Y-116667765D01*
X129502191Y-116877809D01*
X129712235Y-117018157D01*
X129960000Y-117067440D01*
X131660000Y-117067440D01*
X131907765Y-117018157D01*
X132117809Y-116877809D01*
X132258157Y-116667765D01*
X132307440Y-116420000D01*
X132307440Y-114720000D01*
X132258157Y-114472235D01*
X132117809Y-114262191D01*
X131907765Y-114121843D01*
X131660000Y-114072560D01*
X131570000Y-114072560D01*
X131570000Y-111128608D01*
X131641272Y-111099086D01*
X132054086Y-110686272D01*
X132080000Y-110623710D01*
X132105914Y-110686272D01*
X132518728Y-111099086D01*
X133058096Y-111322500D01*
X133641904Y-111322500D01*
X134181272Y-111099086D01*
X134594086Y-110686272D01*
X134620000Y-110623710D01*
X134645914Y-110686272D01*
X135058728Y-111099086D01*
X135598096Y-111322500D01*
X136181904Y-111322500D01*
X136721272Y-111099086D01*
X137134086Y-110686272D01*
X137160000Y-110623710D01*
X137185914Y-110686272D01*
X137598728Y-111099086D01*
X137670001Y-111128608D01*
X137670000Y-113096198D01*
X133416199Y-117350000D01*
X126044803Y-117350000D01*
X124621694Y-115926892D01*
X126828514Y-115926892D01*
X127074817Y-116451358D01*
X127503076Y-116841645D01*
X127913110Y-117011476D01*
X128143000Y-116890155D01*
X128143000Y-115697000D01*
X126949181Y-115697000D01*
X126828514Y-115926892D01*
X124621694Y-115926892D01*
X123907910Y-115213108D01*
X126828514Y-115213108D01*
X126949181Y-115443000D01*
X128143000Y-115443000D01*
X128143000Y-114249845D01*
X127913110Y-114128524D01*
X127503076Y-114298355D01*
X127074817Y-114688642D01*
X126828514Y-115213108D01*
X123907910Y-115213108D01*
X123780331Y-115085530D01*
X123737929Y-115022071D01*
X123486537Y-114854096D01*
X123264852Y-114810000D01*
X123264847Y-114810000D01*
X123190000Y-114795112D01*
X123115153Y-114810000D01*
X100582000Y-114810000D01*
X100582000Y-114596518D01*
X100634900Y-114607040D01*
X100929900Y-114607040D01*
X101221225Y-114549092D01*
X101331091Y-114594600D01*
X101466650Y-114594600D01*
X101625400Y-114435850D01*
X101625400Y-114174571D01*
X101664329Y-114116310D01*
X101724840Y-113812100D01*
X101724840Y-113766600D01*
X101879400Y-113766600D01*
X101879400Y-114435850D01*
X102038150Y-114594600D01*
X102173709Y-114594600D01*
X102407098Y-114497927D01*
X102585727Y-114319299D01*
X102682400Y-114085910D01*
X102682400Y-113925350D01*
X102580800Y-113823750D01*
X102852000Y-113823750D01*
X102852000Y-113984310D01*
X102948673Y-114217699D01*
X103127302Y-114396327D01*
X103360691Y-114493000D01*
X103496250Y-114493000D01*
X103655000Y-114334250D01*
X103655000Y-113665000D01*
X103010750Y-113665000D01*
X102852000Y-113823750D01*
X102580800Y-113823750D01*
X102523650Y-113766600D01*
X101879400Y-113766600D01*
X101724840Y-113766600D01*
X101724840Y-113467100D01*
X101664329Y-113162890D01*
X101625400Y-113104629D01*
X101625400Y-112843350D01*
X101879400Y-112843350D01*
X101879400Y-113512600D01*
X102523650Y-113512600D01*
X102682400Y-113353850D01*
X102682400Y-113193290D01*
X102640316Y-113091690D01*
X102852000Y-113091690D01*
X102852000Y-113252250D01*
X103010750Y-113411000D01*
X103655000Y-113411000D01*
X103655000Y-112741750D01*
X103496250Y-112583000D01*
X103360691Y-112583000D01*
X103127302Y-112679673D01*
X102948673Y-112858301D01*
X102852000Y-113091690D01*
X102640316Y-113091690D01*
X102585727Y-112959901D01*
X102407098Y-112781273D01*
X102173709Y-112684600D01*
X102038150Y-112684600D01*
X101879400Y-112843350D01*
X101625400Y-112843350D01*
X101466650Y-112684600D01*
X101331091Y-112684600D01*
X101221225Y-112730108D01*
X100929900Y-112672160D01*
X100634900Y-112672160D01*
X100385392Y-112721790D01*
X100074000Y-112410399D01*
X100074000Y-112012000D01*
X100110796Y-112012000D01*
X100330690Y-112158929D01*
X100634900Y-112219440D01*
X100929900Y-112219440D01*
X101221225Y-112161492D01*
X101331091Y-112207000D01*
X101466650Y-112207000D01*
X101625400Y-112048250D01*
X101625400Y-111786971D01*
X101664329Y-111728710D01*
X101724840Y-111424500D01*
X101724840Y-111379000D01*
X101879400Y-111379000D01*
X101879400Y-112048250D01*
X102038150Y-112207000D01*
X102173709Y-112207000D01*
X102407098Y-112110327D01*
X102585727Y-111931699D01*
X102682400Y-111698310D01*
X102682400Y-111537750D01*
X102523650Y-111379000D01*
X101879400Y-111379000D01*
X101724840Y-111379000D01*
X101724840Y-111079500D01*
X101664329Y-110775290D01*
X101625400Y-110717029D01*
X101625400Y-110455750D01*
X101879400Y-110455750D01*
X101879400Y-111125000D01*
X102523650Y-111125000D01*
X102682400Y-110966250D01*
X102682400Y-110805690D01*
X102585727Y-110572301D01*
X102407098Y-110393673D01*
X102173709Y-110297000D01*
X102038150Y-110297000D01*
X101879400Y-110455750D01*
X101625400Y-110455750D01*
X101466650Y-110297000D01*
X101331091Y-110297000D01*
X101221225Y-110342508D01*
X100929900Y-110284560D01*
X100634900Y-110284560D01*
X100330690Y-110345071D01*
X100110796Y-110492000D01*
X99882802Y-110492000D01*
X99058000Y-109667199D01*
X99058000Y-109563788D01*
X99496582Y-109856839D01*
X99929744Y-109943000D01*
X100222256Y-109943000D01*
X100655418Y-109856839D01*
X101146625Y-109528625D01*
X101158816Y-109510381D01*
X101167843Y-109555765D01*
X101308191Y-109765809D01*
X101518235Y-109906157D01*
X101766000Y-109955440D01*
X103466000Y-109955440D01*
X103713765Y-109906157D01*
X103923809Y-109765809D01*
X104064157Y-109555765D01*
X104113440Y-109308000D01*
X104113440Y-107608000D01*
X104064157Y-107360235D01*
X103923809Y-107150191D01*
X103713765Y-107009843D01*
X103466000Y-106960560D01*
X101766000Y-106960560D01*
X101518235Y-107009843D01*
X101308191Y-107150191D01*
X101167843Y-107360235D01*
X101158816Y-107405619D01*
X101146625Y-107387375D01*
X100655418Y-107059161D01*
X100222256Y-106973000D01*
X99929744Y-106973000D01*
X99496582Y-107059161D01*
X99005375Y-107387375D01*
X98797822Y-107698000D01*
X98626846Y-107698000D01*
X98551999Y-107683112D01*
X98477152Y-107698000D01*
X98477148Y-107698000D01*
X98255463Y-107742096D01*
X98004071Y-107910071D01*
X97961669Y-107973530D01*
X97915000Y-108020199D01*
X97915000Y-102280462D01*
X98204654Y-102570116D01*
X98759642Y-102800000D01*
X99360358Y-102800000D01*
X99915346Y-102570116D01*
X100340116Y-102145346D01*
X100379610Y-102050000D01*
X102102968Y-102050000D01*
X102085588Y-102057199D01*
X101527199Y-102615588D01*
X101225000Y-103345159D01*
X101225000Y-104134841D01*
X101527199Y-104864412D01*
X102085588Y-105422801D01*
X102815159Y-105725000D01*
X103604841Y-105725000D01*
X104334412Y-105422801D01*
X104892801Y-104864412D01*
X105195000Y-104134841D01*
X105195000Y-103345159D01*
X105107773Y-103134574D01*
X106047001Y-104073803D01*
X106047000Y-110499396D01*
X105900071Y-110719290D01*
X105839560Y-111023500D01*
X105839560Y-111318500D01*
X105900071Y-111622710D01*
X105922315Y-111656000D01*
X105900071Y-111689290D01*
X105839560Y-111993500D01*
X105839560Y-112288500D01*
X105900071Y-112592710D01*
X105957116Y-112678083D01*
X105857199Y-112778000D01*
X105423604Y-112778000D01*
X105203710Y-112631071D01*
X104899500Y-112570560D01*
X104604500Y-112570560D01*
X104313175Y-112628508D01*
X104203309Y-112583000D01*
X104067750Y-112583000D01*
X103909000Y-112741750D01*
X103909000Y-113003029D01*
X103870071Y-113061290D01*
X103809560Y-113365500D01*
X103809560Y-113710500D01*
X103870071Y-114014710D01*
X103909000Y-114072971D01*
X103909000Y-114334250D01*
X104067750Y-114493000D01*
X104203309Y-114493000D01*
X104313175Y-114447492D01*
X104604500Y-114505440D01*
X104899500Y-114505440D01*
X105203710Y-114444929D01*
X105423604Y-114298000D01*
X106097153Y-114298000D01*
X106172000Y-114312888D01*
X106246847Y-114298000D01*
X106246852Y-114298000D01*
X106468537Y-114253904D01*
X106719929Y-114085929D01*
X106762331Y-114022470D01*
X107291473Y-113493329D01*
X107354929Y-113450929D01*
X107522904Y-113199537D01*
X107567000Y-112977852D01*
X107567000Y-112977848D01*
X107581888Y-112903000D01*
X107579030Y-112888632D01*
X107738537Y-112856904D01*
X107989929Y-112688929D01*
X108032331Y-112625470D01*
X109323476Y-111334327D01*
X109386929Y-111291929D01*
X109429327Y-111228476D01*
X109429329Y-111228474D01*
X109554903Y-111040538D01*
X109554904Y-111040537D01*
X109599000Y-110818852D01*
X109599000Y-110818848D01*
X109613888Y-110744001D01*
X109599000Y-110669154D01*
X109599000Y-108079762D01*
X111760000Y-108079762D01*
X111760000Y-109090238D01*
X112146692Y-110023795D01*
X112861205Y-110738308D01*
X113794762Y-111125000D01*
X114805238Y-111125000D01*
X115738795Y-110738308D01*
X116453308Y-110023795D01*
X116840000Y-109090238D01*
X116840000Y-108079762D01*
X116453308Y-107146205D01*
X115738795Y-106431692D01*
X114805238Y-106045000D01*
X113794762Y-106045000D01*
X112861205Y-106431692D01*
X112146692Y-107146205D01*
X111760000Y-108079762D01*
X109599000Y-108079762D01*
X109599000Y-106105801D01*
X112359642Y-103345159D01*
X166425000Y-103345159D01*
X166425000Y-104134841D01*
X166727199Y-104864412D01*
X167285588Y-105422801D01*
X168015159Y-105725000D01*
X168804841Y-105725000D01*
X169534412Y-105422801D01*
X170092801Y-104864412D01*
X170395000Y-104134841D01*
X170395000Y-103345159D01*
X170092801Y-102615588D01*
X169534412Y-102057199D01*
X168804841Y-101755000D01*
X168015159Y-101755000D01*
X167285588Y-102057199D01*
X166727199Y-102615588D01*
X166425000Y-103345159D01*
X112359642Y-103345159D01*
X115609803Y-100095000D01*
X115775874Y-100095000D01*
X116156280Y-99937431D01*
X116447431Y-99646280D01*
X116605000Y-99265874D01*
X116605000Y-98854126D01*
X116604145Y-98852060D01*
X171677545Y-98852060D01*
X171760884Y-99105953D01*
X172325306Y-99311590D01*
X172925458Y-99285579D01*
X173359116Y-99105953D01*
X173442455Y-98852060D01*
X172560000Y-97969605D01*
X171677545Y-98852060D01*
X116604145Y-98852060D01*
X116447431Y-98473720D01*
X116156280Y-98182569D01*
X115775874Y-98025000D01*
X115364126Y-98025000D01*
X114983720Y-98182569D01*
X114692569Y-98473720D01*
X114535000Y-98854126D01*
X114535000Y-99020197D01*
X108354528Y-105200671D01*
X108291072Y-105243071D01*
X108248672Y-105306527D01*
X108248671Y-105306528D01*
X108123097Y-105494463D01*
X108064112Y-105791000D01*
X108079001Y-105865852D01*
X108079000Y-110429197D01*
X107726369Y-110781829D01*
X107713929Y-110719290D01*
X107567000Y-110499396D01*
X107567000Y-103833846D01*
X107581888Y-103758999D01*
X107567000Y-103684152D01*
X107567000Y-103684148D01*
X107522904Y-103462463D01*
X107354929Y-103211071D01*
X107291473Y-103168671D01*
X104928331Y-100805530D01*
X104885929Y-100742071D01*
X104634537Y-100574096D01*
X104412852Y-100530000D01*
X104412847Y-100530000D01*
X104338000Y-100515112D01*
X104263153Y-100530000D01*
X100379610Y-100530000D01*
X100340116Y-100434654D01*
X99915346Y-100009884D01*
X99360358Y-99780000D01*
X98759642Y-99780000D01*
X98204654Y-100009884D01*
X97915000Y-100299538D01*
X97915000Y-99248300D01*
X97937235Y-99263157D01*
X98185000Y-99312440D01*
X99935000Y-99312440D01*
X100182765Y-99263157D01*
X100392809Y-99122809D01*
X100533157Y-98912765D01*
X100582440Y-98665000D01*
X100582440Y-97555306D01*
X171038410Y-97555306D01*
X171064421Y-98155458D01*
X171244047Y-98589116D01*
X171497940Y-98672455D01*
X172380395Y-97790000D01*
X172739605Y-97790000D01*
X173622060Y-98672455D01*
X173875953Y-98589116D01*
X174081590Y-98024694D01*
X174055579Y-97424542D01*
X173875953Y-96990884D01*
X173622060Y-96907545D01*
X172739605Y-97790000D01*
X172380395Y-97790000D01*
X171497940Y-96907545D01*
X171244047Y-96990884D01*
X171038410Y-97555306D01*
X100582440Y-97555306D01*
X100582440Y-96915000D01*
X100533157Y-96667235D01*
X100392809Y-96457191D01*
X100182765Y-96316843D01*
X99935000Y-96267560D01*
X98185000Y-96267560D01*
X97937235Y-96316843D01*
X97915000Y-96331700D01*
X97915000Y-96326801D01*
X99296642Y-94945159D01*
X102425000Y-94945159D01*
X102425000Y-95734841D01*
X102727199Y-96464412D01*
X103285588Y-97022801D01*
X104015159Y-97325000D01*
X104804841Y-97325000D01*
X105534412Y-97022801D01*
X106092801Y-96464412D01*
X106395000Y-95734841D01*
X106395000Y-94945159D01*
X165225000Y-94945159D01*
X165225000Y-95734841D01*
X165527199Y-96464412D01*
X166085588Y-97022801D01*
X166815159Y-97325000D01*
X167604841Y-97325000D01*
X168334412Y-97022801D01*
X168629273Y-96727940D01*
X171677545Y-96727940D01*
X172560000Y-97610395D01*
X173442455Y-96727940D01*
X173359116Y-96474047D01*
X172794694Y-96268410D01*
X172194542Y-96294421D01*
X171760884Y-96474047D01*
X171677545Y-96727940D01*
X168629273Y-96727940D01*
X168892801Y-96464412D01*
X169195000Y-95734841D01*
X169195000Y-94945159D01*
X168892801Y-94215588D01*
X168334412Y-93657199D01*
X167604841Y-93355000D01*
X166815159Y-93355000D01*
X166085588Y-93657199D01*
X165527199Y-94215588D01*
X165225000Y-94945159D01*
X106395000Y-94945159D01*
X106092801Y-94215588D01*
X105534412Y-93657199D01*
X104804841Y-93355000D01*
X104015159Y-93355000D01*
X103285588Y-93657199D01*
X102727199Y-94215588D01*
X102425000Y-94945159D01*
X99296642Y-94945159D01*
X105851802Y-88390000D01*
X113492985Y-88390000D01*
X112861205Y-88651692D01*
X112146692Y-89366205D01*
X111760000Y-90299762D01*
X111760000Y-91310238D01*
X112146692Y-92243795D01*
X112861205Y-92958308D01*
X113794762Y-93345000D01*
X114805238Y-93345000D01*
X115738795Y-92958308D01*
X116453308Y-92243795D01*
X116840000Y-91310238D01*
X116840000Y-90303710D01*
X116865914Y-90366272D01*
X117278728Y-90779086D01*
X117818096Y-91002500D01*
X118401904Y-91002500D01*
X118941272Y-90779086D01*
X119354086Y-90366272D01*
X119380000Y-90303710D01*
X119405914Y-90366272D01*
X119818728Y-90779086D01*
X120358096Y-91002500D01*
X120941904Y-91002500D01*
X121481272Y-90779086D01*
X121894086Y-90366272D01*
X121920000Y-90303710D01*
X121945914Y-90366272D01*
X122358728Y-90779086D01*
X122898096Y-91002500D01*
X123481904Y-91002500D01*
X124021272Y-90779086D01*
X124234073Y-90566285D01*
X124878320Y-90566285D01*
X124956446Y-90815772D01*
X125505460Y-91014306D01*
X126088657Y-90987628D01*
X126503554Y-90815772D01*
X126581680Y-90566285D01*
X125730000Y-89714605D01*
X124878320Y-90566285D01*
X124234073Y-90566285D01*
X124434086Y-90366272D01*
X124456987Y-90310984D01*
X124698715Y-90386680D01*
X125550395Y-89535000D01*
X124698715Y-88683320D01*
X124456987Y-88759016D01*
X124434086Y-88703728D01*
X124120358Y-88390000D01*
X124913929Y-88390000D01*
X124878320Y-88503715D01*
X125730000Y-89355395D01*
X125744143Y-89341253D01*
X125923748Y-89520858D01*
X125909605Y-89535000D01*
X126761285Y-90386680D01*
X127003013Y-90310984D01*
X127025914Y-90366272D01*
X127438728Y-90779086D01*
X127978096Y-91002500D01*
X128561904Y-91002500D01*
X129101272Y-90779086D01*
X129514086Y-90366272D01*
X129540000Y-90303710D01*
X129565914Y-90366272D01*
X129978728Y-90779086D01*
X130518096Y-91002500D01*
X131101904Y-91002500D01*
X131641272Y-90779086D01*
X132054086Y-90366272D01*
X132080000Y-90303710D01*
X132105914Y-90366272D01*
X132518728Y-90779086D01*
X133058096Y-91002500D01*
X133641904Y-91002500D01*
X134181272Y-90779086D01*
X134594086Y-90366272D01*
X134620000Y-90303710D01*
X134645914Y-90366272D01*
X135058728Y-90779086D01*
X135598096Y-91002500D01*
X136181904Y-91002500D01*
X136721272Y-90779086D01*
X137134086Y-90366272D01*
X137160000Y-90303710D01*
X137185914Y-90366272D01*
X137598728Y-90779086D01*
X138138096Y-91002500D01*
X138721904Y-91002500D01*
X139261272Y-90779086D01*
X139674086Y-90366272D01*
X139700000Y-90303710D01*
X139725914Y-90366272D01*
X140138728Y-90779086D01*
X140678096Y-91002500D01*
X141261904Y-91002500D01*
X141801272Y-90779086D01*
X142214086Y-90366272D01*
X142240000Y-90303710D01*
X142265914Y-90366272D01*
X142678728Y-90779086D01*
X143218096Y-91002500D01*
X143801904Y-91002500D01*
X144341272Y-90779086D01*
X144754086Y-90366272D01*
X144780000Y-90303710D01*
X144805914Y-90366272D01*
X145218728Y-90779086D01*
X145758096Y-91002500D01*
X146341904Y-91002500D01*
X146881272Y-90779086D01*
X147294086Y-90366272D01*
X147320000Y-90303710D01*
X147345914Y-90366272D01*
X147758728Y-90779086D01*
X148298096Y-91002500D01*
X148881904Y-91002500D01*
X149421272Y-90779086D01*
X149834086Y-90366272D01*
X149860000Y-90303710D01*
X149885914Y-90366272D01*
X150298728Y-90779086D01*
X150838096Y-91002500D01*
X151421904Y-91002500D01*
X151961272Y-90779086D01*
X152374086Y-90366272D01*
X152400000Y-90303710D01*
X152425914Y-90366272D01*
X152838728Y-90779086D01*
X153378096Y-91002500D01*
X153961904Y-91002500D01*
X154501272Y-90779086D01*
X154760388Y-90519970D01*
X154779343Y-90615265D01*
X154919691Y-90825309D01*
X155129735Y-90965657D01*
X155377500Y-91014940D01*
X157042500Y-91014940D01*
X157290265Y-90965657D01*
X157480000Y-90838879D01*
X157480000Y-91310238D01*
X157866692Y-92243795D01*
X158581205Y-92958308D01*
X159514762Y-93345000D01*
X160525238Y-93345000D01*
X161458795Y-92958308D01*
X162173308Y-92243795D01*
X162560000Y-91310238D01*
X162560000Y-90299762D01*
X162173308Y-89366205D01*
X161458795Y-88651692D01*
X160525238Y-88265000D01*
X159514762Y-88265000D01*
X158581205Y-88651692D01*
X157866692Y-89366205D01*
X157689940Y-89792922D01*
X157689940Y-88702500D01*
X157640657Y-88454735D01*
X157500309Y-88244691D01*
X157290265Y-88104343D01*
X157042500Y-88055060D01*
X155377500Y-88055060D01*
X155129735Y-88104343D01*
X154919691Y-88244691D01*
X154779343Y-88454735D01*
X154760388Y-88550030D01*
X154501272Y-88290914D01*
X153961904Y-88067500D01*
X153378096Y-88067500D01*
X152838728Y-88290914D01*
X152425914Y-88703728D01*
X152400000Y-88766290D01*
X152374086Y-88703728D01*
X151961272Y-88290914D01*
X151421904Y-88067500D01*
X150838096Y-88067500D01*
X150298728Y-88290914D01*
X149885914Y-88703728D01*
X149860000Y-88766290D01*
X149834086Y-88703728D01*
X149421272Y-88290914D01*
X148881904Y-88067500D01*
X148298096Y-88067500D01*
X147758728Y-88290914D01*
X147345914Y-88703728D01*
X147320000Y-88766290D01*
X147294086Y-88703728D01*
X146881272Y-88290914D01*
X146341904Y-88067500D01*
X145758096Y-88067500D01*
X145218728Y-88290914D01*
X144805914Y-88703728D01*
X144780000Y-88766290D01*
X144754086Y-88703728D01*
X144341272Y-88290914D01*
X143801904Y-88067500D01*
X143512302Y-88067500D01*
X144078802Y-87501000D01*
X165928199Y-87501000D01*
X178437000Y-100009803D01*
X178437001Y-128195148D01*
X178422112Y-128270000D01*
X178481097Y-128566537D01*
X178527149Y-128635458D01*
X178649072Y-128817929D01*
X178712528Y-128860329D01*
X180308673Y-130456476D01*
X180351071Y-130519929D01*
X180414524Y-130562327D01*
X180414526Y-130562329D01*
X180539902Y-130646102D01*
X180602463Y-130687904D01*
X180620556Y-130691503D01*
X180682690Y-130841507D01*
X181063183Y-131222000D01*
X180682690Y-131602493D01*
X180449000Y-132166670D01*
X180449000Y-132777330D01*
X180682690Y-133341507D01*
X181114493Y-133773310D01*
X181678670Y-134007000D01*
X182289330Y-134007000D01*
X182853507Y-133773310D01*
X183285310Y-133341507D01*
X183519000Y-132777330D01*
X183519000Y-132166670D01*
X183285310Y-131602493D01*
X182904817Y-131222000D01*
X183285310Y-130841507D01*
X183519000Y-130277330D01*
X183519000Y-129666670D01*
X183285310Y-129102493D01*
X182853507Y-128670690D01*
X182845710Y-128667461D01*
X182884554Y-128552159D01*
X181984000Y-127651605D01*
X181083446Y-128552159D01*
X181122290Y-128667461D01*
X181114493Y-128670690D01*
X180893493Y-128891690D01*
X179957000Y-127955199D01*
X179957000Y-127231336D01*
X180437542Y-127231336D01*
X180463161Y-127841460D01*
X180647357Y-128286148D01*
X180903841Y-128372554D01*
X181804395Y-127472000D01*
X182163605Y-127472000D01*
X183064159Y-128372554D01*
X183320643Y-128286148D01*
X183530458Y-127712664D01*
X183504839Y-127102540D01*
X183320643Y-126657852D01*
X183064159Y-126571446D01*
X182163605Y-127472000D01*
X181804395Y-127472000D01*
X180903841Y-126571446D01*
X180647357Y-126657852D01*
X180437542Y-127231336D01*
X179957000Y-127231336D01*
X179957000Y-126391841D01*
X181083446Y-126391841D01*
X181984000Y-127292395D01*
X182884554Y-126391841D01*
X182798148Y-126135357D01*
X182224664Y-125925542D01*
X181614540Y-125951161D01*
X181169852Y-126135357D01*
X181083446Y-126391841D01*
X179957000Y-126391841D01*
X179957000Y-100141272D01*
X179982527Y-100158329D01*
X180206671Y-100382472D01*
X180249071Y-100445929D01*
X180500463Y-100613904D01*
X180629715Y-100639614D01*
X180682690Y-100767507D01*
X181063183Y-101148000D01*
X180682690Y-101528493D01*
X180449000Y-102092670D01*
X180449000Y-102703330D01*
X180682690Y-103267507D01*
X181114493Y-103699310D01*
X181678670Y-103933000D01*
X182289330Y-103933000D01*
X182853507Y-103699310D01*
X183285310Y-103267507D01*
X183519000Y-102703330D01*
X183519000Y-102092670D01*
X183285310Y-101528493D01*
X182904817Y-101148000D01*
X183285310Y-100767507D01*
X183519000Y-100203330D01*
X183519000Y-99592670D01*
X183285310Y-99028493D01*
X182853507Y-98596690D01*
X182845710Y-98593461D01*
X182884554Y-98478159D01*
X181984000Y-97577605D01*
X181969858Y-97591748D01*
X181790253Y-97412143D01*
X181804395Y-97398000D01*
X182163605Y-97398000D01*
X183064159Y-98298554D01*
X183320643Y-98212148D01*
X183530458Y-97638664D01*
X183504839Y-97028540D01*
X183320643Y-96583852D01*
X183064159Y-96497446D01*
X182163605Y-97398000D01*
X181804395Y-97398000D01*
X180903841Y-96497446D01*
X180647357Y-96583852D01*
X180437542Y-97157336D01*
X180463161Y-97767460D01*
X180614411Y-98132609D01*
X178799643Y-96317841D01*
X181083446Y-96317841D01*
X181984000Y-97218395D01*
X182884554Y-96317841D01*
X182798148Y-96061357D01*
X182224664Y-95851542D01*
X181614540Y-95877161D01*
X181169852Y-96061357D01*
X181083446Y-96317841D01*
X178799643Y-96317841D01*
X166325331Y-83843530D01*
X166282929Y-83780071D01*
X166031537Y-83612096D01*
X165809852Y-83568000D01*
X165809847Y-83568000D01*
X165735000Y-83553112D01*
X165660153Y-83568000D01*
X143711846Y-83568000D01*
X143636999Y-83553112D01*
X143562152Y-83568000D01*
X143562148Y-83568000D01*
X143340463Y-83612096D01*
X143089071Y-83780071D01*
X143046671Y-83843527D01*
X138793177Y-88097022D01*
X138721904Y-88067500D01*
X138432301Y-88067500D01*
X144840803Y-81659000D01*
X172518153Y-81659000D01*
X172593000Y-81673888D01*
X172667847Y-81659000D01*
X172667852Y-81659000D01*
X172889537Y-81614904D01*
X173140929Y-81446929D01*
X173183331Y-81383470D01*
X178030473Y-76536329D01*
X178093929Y-76493929D01*
X178136924Y-76429582D01*
X178261904Y-76242538D01*
X178290361Y-76099472D01*
X178306000Y-76020852D01*
X178306000Y-76020848D01*
X178320888Y-75946000D01*
X178306000Y-75871152D01*
X178306000Y-71942801D01*
X180476802Y-69772000D01*
X180637331Y-69772000D01*
X180682690Y-69881507D01*
X181063183Y-70262000D01*
X180682690Y-70642493D01*
X180449000Y-71206670D01*
X180449000Y-71817330D01*
X180682690Y-72381507D01*
X181114493Y-72813310D01*
X181678670Y-73047000D01*
X182289330Y-73047000D01*
X182853507Y-72813310D01*
X183285310Y-72381507D01*
X183519000Y-71817330D01*
X183519000Y-71206670D01*
X183285310Y-70642493D01*
X182904817Y-70262000D01*
X183285310Y-69881507D01*
X183519000Y-69317330D01*
X183519000Y-68706670D01*
X183285310Y-68142493D01*
X182853507Y-67710690D01*
X182845710Y-67707461D01*
X182884554Y-67592159D01*
X181984000Y-66691605D01*
X181083446Y-67592159D01*
X181122290Y-67707461D01*
X181114493Y-67710690D01*
X180682690Y-68142493D01*
X180637331Y-68252000D01*
X180236848Y-68252000D01*
X180162000Y-68237112D01*
X180087152Y-68252000D01*
X180087148Y-68252000D01*
X179913605Y-68286520D01*
X179865462Y-68296096D01*
X179751775Y-68372060D01*
X179614071Y-68464071D01*
X179571671Y-68527527D01*
X177061528Y-71037671D01*
X176998072Y-71080071D01*
X176955672Y-71143527D01*
X176955671Y-71143528D01*
X176830097Y-71331463D01*
X176771112Y-71628000D01*
X176786001Y-71702852D01*
X176786000Y-75631198D01*
X172278199Y-80139000D01*
X144600846Y-80139000D01*
X144525999Y-80124112D01*
X144451152Y-80139000D01*
X144451148Y-80139000D01*
X144229463Y-80183096D01*
X144229461Y-80183097D01*
X144229462Y-80183097D01*
X144041526Y-80308671D01*
X144041524Y-80308673D01*
X143978071Y-80351071D01*
X143935673Y-80414524D01*
X136253177Y-88097022D01*
X136181904Y-88067500D01*
X135598096Y-88067500D01*
X135058728Y-88290914D01*
X134645914Y-88703728D01*
X134620000Y-88766290D01*
X134594086Y-88703728D01*
X134181272Y-88290914D01*
X134110000Y-88261392D01*
X134110000Y-86942848D01*
X134124888Y-86868000D01*
X134110000Y-86793152D01*
X134110000Y-86793148D01*
X134065904Y-86571463D01*
X134065904Y-86571462D01*
X133940329Y-86383527D01*
X133897929Y-86320071D01*
X133834473Y-86277671D01*
X129114331Y-81557530D01*
X129071929Y-81494071D01*
X128820537Y-81326096D01*
X128598852Y-81282000D01*
X128598847Y-81282000D01*
X128524000Y-81267112D01*
X128449153Y-81282000D01*
X112850846Y-81282000D01*
X112775999Y-81267112D01*
X112701152Y-81282000D01*
X112701148Y-81282000D01*
X112479463Y-81326096D01*
X112228071Y-81494071D01*
X112200055Y-81536000D01*
X111825272Y-81536000D01*
X111842327Y-81510476D01*
X111842329Y-81510474D01*
X111967903Y-81322538D01*
X111967904Y-81322537D01*
X112012000Y-81100852D01*
X112012000Y-81100848D01*
X112026888Y-81026001D01*
X112012000Y-80951154D01*
X112012000Y-79068847D01*
X112026888Y-78994000D01*
X112012000Y-78919153D01*
X112012000Y-78919148D01*
X111967904Y-78697463D01*
X111799929Y-78446071D01*
X111736473Y-78403671D01*
X109980000Y-76647199D01*
X109980000Y-76470857D01*
X109994888Y-76396009D01*
X109980000Y-76321161D01*
X109980000Y-76321157D01*
X109935904Y-76099472D01*
X109935904Y-76099471D01*
X109810329Y-75911536D01*
X109767929Y-75848080D01*
X109704473Y-75805680D01*
X104224322Y-70325530D01*
X104181920Y-70262071D01*
X103930528Y-70094096D01*
X103708843Y-70050000D01*
X103708838Y-70050000D01*
X103633991Y-70035112D01*
X103559144Y-70050000D01*
X100379610Y-70050000D01*
X100340116Y-69954654D01*
X99915346Y-69529884D01*
X99360358Y-69300000D01*
X98759642Y-69300000D01*
X98204654Y-69529884D01*
X97779884Y-69954654D01*
X97550000Y-70509642D01*
X97550000Y-71110358D01*
X97779884Y-71665346D01*
X98204654Y-72090116D01*
X98759642Y-72320000D01*
X99360358Y-72320000D01*
X99915346Y-72090116D01*
X100340116Y-71665346D01*
X100379610Y-71570000D01*
X102102968Y-71570000D01*
X102085588Y-71577199D01*
X101527199Y-72135588D01*
X101225000Y-72865159D01*
X101225000Y-73654841D01*
X101527199Y-74384412D01*
X102085588Y-74942801D01*
X102815159Y-75245000D01*
X103604841Y-75245000D01*
X104334412Y-74942801D01*
X104892801Y-74384412D01*
X105195000Y-73654841D01*
X105195000Y-73445810D01*
X108460000Y-76710811D01*
X108460000Y-76887153D01*
X108445112Y-76962000D01*
X108460000Y-77036847D01*
X108460000Y-77036852D01*
X108504096Y-77258537D01*
X108672072Y-77509929D01*
X108735528Y-77552329D01*
X110492000Y-79308802D01*
X110492001Y-80711197D01*
X110429198Y-80774000D01*
X109891604Y-80774000D01*
X109671710Y-80627071D01*
X109367500Y-80566560D01*
X109072500Y-80566560D01*
X108768290Y-80627071D01*
X108735000Y-80649315D01*
X108701710Y-80627071D01*
X108397500Y-80566560D01*
X108102500Y-80566560D01*
X107798290Y-80627071D01*
X107578396Y-80774000D01*
X106081604Y-80774000D01*
X105861710Y-80627071D01*
X105557500Y-80566560D01*
X105262500Y-80566560D01*
X104971175Y-80624508D01*
X104861309Y-80579000D01*
X104725750Y-80579000D01*
X104567000Y-80737750D01*
X104567000Y-80999029D01*
X104528071Y-81057290D01*
X104467560Y-81361500D01*
X104467560Y-81706500D01*
X104528071Y-82010710D01*
X104567000Y-82068971D01*
X104567000Y-82330250D01*
X104725750Y-82489000D01*
X104861309Y-82489000D01*
X104971175Y-82443492D01*
X105262500Y-82501440D01*
X105557500Y-82501440D01*
X105861710Y-82440929D01*
X106081604Y-82294000D01*
X107563138Y-82294000D01*
X107702071Y-82501929D01*
X107765530Y-82544331D01*
X108001669Y-82780470D01*
X108044071Y-82843929D01*
X108295463Y-83011904D01*
X108314506Y-83015692D01*
X106238199Y-85092000D01*
X99882802Y-85092000D01*
X99693000Y-84902199D01*
X99693000Y-84786545D01*
X99697500Y-84787440D01*
X99992500Y-84787440D01*
X100283825Y-84729492D01*
X100393691Y-84775000D01*
X100529250Y-84775000D01*
X100688000Y-84616250D01*
X100688000Y-84354971D01*
X100726929Y-84296710D01*
X100787440Y-83992500D01*
X100787440Y-83947000D01*
X100942000Y-83947000D01*
X100942000Y-84616250D01*
X101100750Y-84775000D01*
X101236309Y-84775000D01*
X101469698Y-84678327D01*
X101648327Y-84499699D01*
X101745000Y-84266310D01*
X101745000Y-84105750D01*
X101586250Y-83947000D01*
X100942000Y-83947000D01*
X100787440Y-83947000D01*
X100787440Y-83647500D01*
X100726929Y-83343290D01*
X100688000Y-83285029D01*
X100688000Y-83023750D01*
X100942000Y-83023750D01*
X100942000Y-83693000D01*
X101586250Y-83693000D01*
X101745000Y-83534250D01*
X101745000Y-83373690D01*
X101648327Y-83140301D01*
X101469698Y-82961673D01*
X101236309Y-82865000D01*
X101100750Y-82865000D01*
X100942000Y-83023750D01*
X100688000Y-83023750D01*
X100529250Y-82865000D01*
X100393691Y-82865000D01*
X100283825Y-82910508D01*
X99992500Y-82852560D01*
X99697500Y-82852560D01*
X99693000Y-82853455D01*
X99693000Y-82500545D01*
X99697500Y-82501440D01*
X99992500Y-82501440D01*
X100283825Y-82443492D01*
X100393691Y-82489000D01*
X100529250Y-82489000D01*
X100688000Y-82330250D01*
X100688000Y-82068971D01*
X100726929Y-82010710D01*
X100787440Y-81706500D01*
X100787440Y-81661000D01*
X100942000Y-81661000D01*
X100942000Y-82330250D01*
X101100750Y-82489000D01*
X101236309Y-82489000D01*
X101469698Y-82392327D01*
X101648327Y-82213699D01*
X101745000Y-81980310D01*
X101745000Y-81819750D01*
X103510000Y-81819750D01*
X103510000Y-81980310D01*
X103606673Y-82213699D01*
X103785302Y-82392327D01*
X104018691Y-82489000D01*
X104154250Y-82489000D01*
X104313000Y-82330250D01*
X104313000Y-81661000D01*
X103668750Y-81661000D01*
X103510000Y-81819750D01*
X101745000Y-81819750D01*
X101586250Y-81661000D01*
X100942000Y-81661000D01*
X100787440Y-81661000D01*
X100787440Y-81361500D01*
X100726929Y-81057290D01*
X100688000Y-80999029D01*
X100688000Y-80737750D01*
X100942000Y-80737750D01*
X100942000Y-81407000D01*
X101586250Y-81407000D01*
X101745000Y-81248250D01*
X101745000Y-81087690D01*
X103510000Y-81087690D01*
X103510000Y-81248250D01*
X103668750Y-81407000D01*
X104313000Y-81407000D01*
X104313000Y-80737750D01*
X104154250Y-80579000D01*
X104018691Y-80579000D01*
X103785302Y-80675673D01*
X103606673Y-80854301D01*
X103510000Y-81087690D01*
X101745000Y-81087690D01*
X101648327Y-80854301D01*
X101469698Y-80675673D01*
X101236309Y-80579000D01*
X101100750Y-80579000D01*
X100942000Y-80737750D01*
X100688000Y-80737750D01*
X100529250Y-80579000D01*
X100393691Y-80579000D01*
X100283825Y-80624508D01*
X99992500Y-80566560D01*
X99697500Y-80566560D01*
X99693000Y-80567455D01*
X99693000Y-80451802D01*
X99925475Y-80219327D01*
X99988929Y-80176929D01*
X100031327Y-80113476D01*
X100031329Y-80113474D01*
X100156903Y-79925538D01*
X100156904Y-79925537D01*
X100201000Y-79703852D01*
X100201000Y-79703848D01*
X100215888Y-79629001D01*
X100201000Y-79554154D01*
X100201000Y-79383178D01*
X100511625Y-79175625D01*
X100523816Y-79157381D01*
X100532843Y-79202765D01*
X100673191Y-79412809D01*
X100883235Y-79553157D01*
X101131000Y-79602440D01*
X102831000Y-79602440D01*
X103078765Y-79553157D01*
X103288809Y-79412809D01*
X103429157Y-79202765D01*
X103478440Y-78955000D01*
X103478440Y-77255000D01*
X103429157Y-77007235D01*
X103288809Y-76797191D01*
X103078765Y-76656843D01*
X102831000Y-76607560D01*
X101131000Y-76607560D01*
X100883235Y-76656843D01*
X100673191Y-76797191D01*
X100532843Y-77007235D01*
X100523816Y-77052619D01*
X100511625Y-77034375D01*
X100020418Y-76706161D01*
X99587256Y-76620000D01*
X99294744Y-76620000D01*
X98861582Y-76706161D01*
X98370375Y-77034375D01*
X98042161Y-77525582D01*
X97926908Y-78105000D01*
X98042161Y-78684418D01*
X98370375Y-79175625D01*
X98639650Y-79355548D01*
X98448527Y-79546672D01*
X98385072Y-79589071D01*
X98342672Y-79652527D01*
X98342671Y-79652528D01*
X98217097Y-79840463D01*
X98158112Y-80137000D01*
X98173001Y-80211851D01*
X98173000Y-81332153D01*
X98158112Y-81407000D01*
X98173000Y-81481847D01*
X98173000Y-81481851D01*
X98183373Y-81533999D01*
X98173000Y-81586149D01*
X98173000Y-81586153D01*
X98158112Y-81661000D01*
X98173000Y-81735847D01*
X98173001Y-83500148D01*
X98158112Y-83575000D01*
X98173001Y-83649852D01*
X98195109Y-83760998D01*
X98173000Y-83872149D01*
X98173000Y-83872153D01*
X98158112Y-83947000D01*
X98173000Y-84021847D01*
X98173001Y-85142149D01*
X98158112Y-85217000D01*
X98173001Y-85291852D01*
X98217097Y-85513537D01*
X98385072Y-85764929D01*
X98448528Y-85807329D01*
X98977671Y-86336473D01*
X99020071Y-86399929D01*
X99271463Y-86567904D01*
X99493148Y-86612000D01*
X99493152Y-86612000D01*
X99568000Y-86626888D01*
X99642848Y-86612000D01*
X106478153Y-86612000D01*
X106553000Y-86626888D01*
X106627847Y-86612000D01*
X106627852Y-86612000D01*
X106849537Y-86567904D01*
X107100929Y-86399929D01*
X107143331Y-86336470D01*
X109534802Y-83945000D01*
X127955199Y-83945000D01*
X131045000Y-87034802D01*
X131045000Y-87200874D01*
X131202569Y-87581280D01*
X131493720Y-87872431D01*
X131874126Y-88030000D01*
X132285874Y-88030000D01*
X132590001Y-87904027D01*
X132590000Y-88261392D01*
X132518728Y-88290914D01*
X132105914Y-88703728D01*
X132080000Y-88766290D01*
X132054086Y-88703728D01*
X131641272Y-88290914D01*
X131101904Y-88067500D01*
X130518096Y-88067500D01*
X129978728Y-88290914D01*
X129565914Y-88703728D01*
X129540000Y-88766290D01*
X129514086Y-88703728D01*
X129101272Y-88290914D01*
X128561904Y-88067500D01*
X127978096Y-88067500D01*
X127906824Y-88097022D01*
X126955331Y-87145530D01*
X126912929Y-87082071D01*
X126661537Y-86914096D01*
X126439852Y-86870000D01*
X126439847Y-86870000D01*
X126365000Y-86855112D01*
X126290153Y-86870000D01*
X105611846Y-86870000D01*
X105536999Y-86855112D01*
X105462152Y-86870000D01*
X105462148Y-86870000D01*
X105240463Y-86914096D01*
X104989071Y-87082071D01*
X104946671Y-87145527D01*
X96670528Y-95421671D01*
X96607072Y-95464071D01*
X96564672Y-95527527D01*
X96564671Y-95527528D01*
X96439097Y-95715463D01*
X96380112Y-96012000D01*
X95754484Y-96012000D01*
X95663478Y-66435000D01*
X97537560Y-66435000D01*
X97537560Y-68185000D01*
X97586843Y-68432765D01*
X97727191Y-68642809D01*
X97937235Y-68783157D01*
X98185000Y-68832440D01*
X99935000Y-68832440D01*
X100182765Y-68783157D01*
X100392809Y-68642809D01*
X100533157Y-68432765D01*
X100582440Y-68185000D01*
X100582440Y-66435000D01*
X100533157Y-66187235D01*
X100392809Y-65977191D01*
X100182765Y-65836843D01*
X99935000Y-65787560D01*
X98185000Y-65787560D01*
X97937235Y-65836843D01*
X97727191Y-65977191D01*
X97586843Y-66187235D01*
X97537560Y-66435000D01*
X95663478Y-66435000D01*
X95657417Y-64465159D01*
X102425000Y-64465159D01*
X102425000Y-65254841D01*
X102727199Y-65984412D01*
X103285588Y-66542801D01*
X104015159Y-66845000D01*
X104804841Y-66845000D01*
X105534412Y-66542801D01*
X106092801Y-65984412D01*
X106395000Y-65254841D01*
X106395000Y-64465159D01*
X106092801Y-63735588D01*
X105534412Y-63177199D01*
X104804841Y-62875000D01*
X104015159Y-62875000D01*
X103285588Y-63177199D01*
X102727199Y-63735588D01*
X102425000Y-64465159D01*
X95657417Y-64465159D01*
X95644287Y-60198000D01*
X98561908Y-60198000D01*
X98677161Y-60777418D01*
X99005375Y-61268625D01*
X99496582Y-61596839D01*
X99929744Y-61683000D01*
X100222256Y-61683000D01*
X100655418Y-61596839D01*
X101146625Y-61268625D01*
X101158816Y-61250381D01*
X101167843Y-61295765D01*
X101308191Y-61505809D01*
X101518235Y-61646157D01*
X101766000Y-61695440D01*
X103466000Y-61695440D01*
X103713765Y-61646157D01*
X103923809Y-61505809D01*
X104064157Y-61295765D01*
X104113440Y-61048000D01*
X104113440Y-60483750D01*
X106741000Y-60483750D01*
X106741000Y-60619309D01*
X106837673Y-60852698D01*
X107016301Y-61031327D01*
X107249690Y-61128000D01*
X107410250Y-61128000D01*
X107569000Y-60969250D01*
X107569000Y-60325000D01*
X107823000Y-60325000D01*
X107823000Y-60969250D01*
X107981750Y-61128000D01*
X108142310Y-61128000D01*
X108375699Y-61031327D01*
X108554327Y-60852698D01*
X108651000Y-60619309D01*
X108651000Y-60488550D01*
X109077800Y-60488550D01*
X109077800Y-60624109D01*
X109174473Y-60857498D01*
X109353101Y-61036127D01*
X109586490Y-61132800D01*
X109747050Y-61132800D01*
X109905800Y-60974050D01*
X109905800Y-60329800D01*
X110159800Y-60329800D01*
X110159800Y-60974050D01*
X110318550Y-61132800D01*
X110479110Y-61132800D01*
X110712499Y-61036127D01*
X110891127Y-60857498D01*
X110987800Y-60624109D01*
X110987800Y-60488550D01*
X110829050Y-60329800D01*
X110159800Y-60329800D01*
X109905800Y-60329800D01*
X109236550Y-60329800D01*
X109077800Y-60488550D01*
X108651000Y-60488550D01*
X108651000Y-60483750D01*
X108492250Y-60325000D01*
X107823000Y-60325000D01*
X107569000Y-60325000D01*
X106899750Y-60325000D01*
X106741000Y-60483750D01*
X104113440Y-60483750D01*
X104113440Y-59348000D01*
X104064157Y-59100235D01*
X103947736Y-58926000D01*
X106759292Y-58926000D01*
X106728560Y-59080500D01*
X106728560Y-59375500D01*
X106786508Y-59666825D01*
X106741000Y-59776691D01*
X106741000Y-59912250D01*
X106899750Y-60071000D01*
X107161029Y-60071000D01*
X107219290Y-60109929D01*
X107523500Y-60170440D01*
X107868500Y-60170440D01*
X108172710Y-60109929D01*
X108230971Y-60071000D01*
X108492250Y-60071000D01*
X108575250Y-59988000D01*
X109148750Y-59988000D01*
X109236550Y-60075800D01*
X109497829Y-60075800D01*
X109556090Y-60114729D01*
X109860300Y-60175240D01*
X110205300Y-60175240D01*
X110509510Y-60114729D01*
X110567771Y-60075800D01*
X110829050Y-60075800D01*
X110987800Y-59917050D01*
X110987800Y-59781491D01*
X110942292Y-59671625D01*
X111000240Y-59380300D01*
X111000240Y-59085300D01*
X110968553Y-58926000D01*
X111445199Y-58926000D01*
X133860000Y-81340802D01*
X133860001Y-82481288D01*
X133742569Y-82598720D01*
X133585000Y-82979126D01*
X133585000Y-83390874D01*
X133742569Y-83771280D01*
X134033720Y-84062431D01*
X134414126Y-84220000D01*
X134825874Y-84220000D01*
X135206280Y-84062431D01*
X135497431Y-83771280D01*
X135655000Y-83390874D01*
X135655000Y-82979126D01*
X135497431Y-82598720D01*
X135380000Y-82481289D01*
X135380000Y-81100846D01*
X135394888Y-81025999D01*
X135380000Y-80951152D01*
X135380000Y-80951148D01*
X135335904Y-80729463D01*
X135167929Y-80478071D01*
X135104473Y-80435671D01*
X113882552Y-59213750D01*
X126728000Y-59213750D01*
X126728000Y-59374310D01*
X126824673Y-59607699D01*
X127003302Y-59786327D01*
X127236691Y-59883000D01*
X127372250Y-59883000D01*
X127531000Y-59724250D01*
X127531000Y-59055000D01*
X126886750Y-59055000D01*
X126728000Y-59213750D01*
X113882552Y-59213750D01*
X113150492Y-58481690D01*
X126728000Y-58481690D01*
X126728000Y-58642250D01*
X126886750Y-58801000D01*
X127531000Y-58801000D01*
X127531000Y-58755500D01*
X127685560Y-58755500D01*
X127685560Y-59100500D01*
X127746071Y-59404710D01*
X127785000Y-59462971D01*
X127785000Y-59724250D01*
X127943750Y-59883000D01*
X128079309Y-59883000D01*
X128189175Y-59837492D01*
X128480500Y-59895440D01*
X128775500Y-59895440D01*
X129079710Y-59834929D01*
X129299604Y-59688000D01*
X130024560Y-59688000D01*
X130024560Y-59828000D01*
X130073843Y-60075765D01*
X130214191Y-60285809D01*
X130424235Y-60426157D01*
X130672000Y-60475440D01*
X132472000Y-60475440D01*
X132719765Y-60426157D01*
X132929809Y-60285809D01*
X133070157Y-60075765D01*
X133073275Y-60060092D01*
X133242493Y-60229310D01*
X133806670Y-60463000D01*
X134417330Y-60463000D01*
X134981507Y-60229310D01*
X135413310Y-59797507D01*
X135647000Y-59233330D01*
X135647000Y-59213750D01*
X136761000Y-59213750D01*
X136761000Y-59374310D01*
X136857673Y-59607699D01*
X137036302Y-59786327D01*
X137269691Y-59883000D01*
X137405250Y-59883000D01*
X137564000Y-59724250D01*
X137564000Y-59055000D01*
X136919750Y-59055000D01*
X136761000Y-59213750D01*
X135647000Y-59213750D01*
X135647000Y-58622670D01*
X135588605Y-58481690D01*
X136761000Y-58481690D01*
X136761000Y-58642250D01*
X136919750Y-58801000D01*
X137564000Y-58801000D01*
X137564000Y-58755500D01*
X137718560Y-58755500D01*
X137718560Y-59100500D01*
X137779071Y-59404710D01*
X137818000Y-59462971D01*
X137818000Y-59724250D01*
X137976750Y-59883000D01*
X138112309Y-59883000D01*
X138222175Y-59837492D01*
X138513500Y-59895440D01*
X138808500Y-59895440D01*
X139112710Y-59834929D01*
X139200561Y-59776229D01*
X139200561Y-59879001D01*
X139249844Y-60126766D01*
X139390192Y-60336810D01*
X139600236Y-60477158D01*
X139848001Y-60526441D01*
X141648001Y-60526441D01*
X141895766Y-60477158D01*
X142105810Y-60336810D01*
X142246158Y-60126766D01*
X142249276Y-60111093D01*
X142418494Y-60280311D01*
X142982671Y-60514001D01*
X143593331Y-60514001D01*
X143702840Y-60468641D01*
X146447502Y-63213304D01*
X146447501Y-74494790D01*
X146330070Y-74612221D01*
X146172501Y-74992627D01*
X146172501Y-75404375D01*
X146330070Y-75784781D01*
X146621221Y-76075932D01*
X147001627Y-76233501D01*
X147413375Y-76233501D01*
X147793781Y-76075932D01*
X148084932Y-75784781D01*
X148242501Y-75404375D01*
X148242501Y-74992627D01*
X148084932Y-74612221D01*
X147967501Y-74494790D01*
X147967501Y-72865159D01*
X166425000Y-72865159D01*
X166425000Y-73654841D01*
X166727199Y-74384412D01*
X167285588Y-74942801D01*
X168015159Y-75245000D01*
X168804841Y-75245000D01*
X169534412Y-74942801D01*
X170092801Y-74384412D01*
X170395000Y-73654841D01*
X170395000Y-72865159D01*
X170092801Y-72135588D01*
X169534412Y-71577199D01*
X168804841Y-71275000D01*
X168015159Y-71275000D01*
X167285588Y-71577199D01*
X166727199Y-72135588D01*
X166425000Y-72865159D01*
X147967501Y-72865159D01*
X147967501Y-68372060D01*
X171677545Y-68372060D01*
X171760884Y-68625953D01*
X172325306Y-68831590D01*
X172925458Y-68805579D01*
X173359116Y-68625953D01*
X173442455Y-68372060D01*
X172560000Y-67489605D01*
X171677545Y-68372060D01*
X147967501Y-68372060D01*
X147967501Y-67075306D01*
X171038410Y-67075306D01*
X171064421Y-67675458D01*
X171244047Y-68109116D01*
X171497940Y-68192455D01*
X172380395Y-67310000D01*
X172739605Y-67310000D01*
X173622060Y-68192455D01*
X173875953Y-68109116D01*
X174081590Y-67544694D01*
X174055579Y-66944542D01*
X173875953Y-66510884D01*
X173622060Y-66427545D01*
X172739605Y-67310000D01*
X172380395Y-67310000D01*
X171497940Y-66427545D01*
X171244047Y-66510884D01*
X171038410Y-67075306D01*
X147967501Y-67075306D01*
X147967501Y-64465159D01*
X165225000Y-64465159D01*
X165225000Y-65254841D01*
X165527199Y-65984412D01*
X166085588Y-66542801D01*
X166815159Y-66845000D01*
X167604841Y-66845000D01*
X168334412Y-66542801D01*
X168629273Y-66247940D01*
X171677545Y-66247940D01*
X172560000Y-67130395D01*
X173419059Y-66271336D01*
X180437542Y-66271336D01*
X180463161Y-66881460D01*
X180647357Y-67326148D01*
X180903841Y-67412554D01*
X181804395Y-66512000D01*
X182163605Y-66512000D01*
X183064159Y-67412554D01*
X183320643Y-67326148D01*
X183530458Y-66752664D01*
X183504839Y-66142540D01*
X183320643Y-65697852D01*
X183064159Y-65611446D01*
X182163605Y-66512000D01*
X181804395Y-66512000D01*
X180903841Y-65611446D01*
X180647357Y-65697852D01*
X180437542Y-66271336D01*
X173419059Y-66271336D01*
X173442455Y-66247940D01*
X173359116Y-65994047D01*
X172794694Y-65788410D01*
X172194542Y-65814421D01*
X171760884Y-65994047D01*
X171677545Y-66247940D01*
X168629273Y-66247940D01*
X168892801Y-65984412D01*
X169121684Y-65431841D01*
X181083446Y-65431841D01*
X181984000Y-66332395D01*
X182884554Y-65431841D01*
X182798148Y-65175357D01*
X182224664Y-64965542D01*
X181614540Y-64991161D01*
X181169852Y-65175357D01*
X181083446Y-65431841D01*
X169121684Y-65431841D01*
X169195000Y-65254841D01*
X169195000Y-64465159D01*
X168892801Y-63735588D01*
X168334412Y-63177199D01*
X167604841Y-62875000D01*
X166815159Y-62875000D01*
X166085588Y-63177199D01*
X165527199Y-63735588D01*
X165225000Y-64465159D01*
X147967501Y-64465159D01*
X147967501Y-62973347D01*
X147982389Y-62898500D01*
X147967501Y-62823653D01*
X147967501Y-62823649D01*
X147923405Y-62601964D01*
X147755430Y-62350572D01*
X147691974Y-62308172D01*
X144777641Y-59393840D01*
X144823001Y-59284331D01*
X144823001Y-58673671D01*
X144589311Y-58109494D01*
X144157508Y-57677691D01*
X143593331Y-57444001D01*
X142982671Y-57444001D01*
X142418494Y-57677691D01*
X142249276Y-57846909D01*
X142246158Y-57831236D01*
X142105810Y-57621192D01*
X141895766Y-57480844D01*
X141648001Y-57431561D01*
X139848001Y-57431561D01*
X139600236Y-57480844D01*
X139390192Y-57621192D01*
X139249844Y-57831236D01*
X139200561Y-58079001D01*
X139200561Y-58079771D01*
X139112710Y-58021071D01*
X138808500Y-57960560D01*
X138513500Y-57960560D01*
X138222175Y-58018508D01*
X138112309Y-57973000D01*
X137976750Y-57973000D01*
X137818000Y-58131750D01*
X137818000Y-58393029D01*
X137779071Y-58451290D01*
X137718560Y-58755500D01*
X137564000Y-58755500D01*
X137564000Y-58131750D01*
X137405250Y-57973000D01*
X137269691Y-57973000D01*
X137036302Y-58069673D01*
X136857673Y-58248301D01*
X136761000Y-58481690D01*
X135588605Y-58481690D01*
X135413310Y-58058493D01*
X134981507Y-57626690D01*
X134417330Y-57393000D01*
X133806670Y-57393000D01*
X133242493Y-57626690D01*
X133073275Y-57795908D01*
X133070157Y-57780235D01*
X132929809Y-57570191D01*
X132719765Y-57429843D01*
X132472000Y-57380560D01*
X130672000Y-57380560D01*
X130424235Y-57429843D01*
X130214191Y-57570191D01*
X130073843Y-57780235D01*
X130024560Y-58028000D01*
X130024560Y-58168000D01*
X129299604Y-58168000D01*
X129079710Y-58021071D01*
X128775500Y-57960560D01*
X128480500Y-57960560D01*
X128189175Y-58018508D01*
X128079309Y-57973000D01*
X127943750Y-57973000D01*
X127785000Y-58131750D01*
X127785000Y-58393029D01*
X127746071Y-58451290D01*
X127685560Y-58755500D01*
X127531000Y-58755500D01*
X127531000Y-58131750D01*
X127372250Y-57973000D01*
X127236691Y-57973000D01*
X127003302Y-58069673D01*
X126824673Y-58248301D01*
X126728000Y-58481690D01*
X113150492Y-58481690D01*
X112350331Y-57681530D01*
X112307929Y-57618071D01*
X112056537Y-57450096D01*
X111834852Y-57406000D01*
X111834847Y-57406000D01*
X111760000Y-57391112D01*
X111685153Y-57406000D01*
X110412446Y-57406000D01*
X110337599Y-57391112D01*
X110262752Y-57406000D01*
X110262748Y-57406000D01*
X110041063Y-57450096D01*
X109789671Y-57618071D01*
X109747270Y-57681528D01*
X109548327Y-57880472D01*
X109484872Y-57922871D01*
X109442472Y-57986327D01*
X109442471Y-57986328D01*
X109414627Y-58028000D01*
X109316897Y-58174263D01*
X109272800Y-58395948D01*
X109272800Y-58395953D01*
X109258469Y-58468000D01*
X108455175Y-58468000D01*
X108411904Y-58250463D01*
X108243929Y-57999071D01*
X108180473Y-57956671D01*
X107905331Y-57681529D01*
X107862929Y-57618071D01*
X107611537Y-57450096D01*
X107389852Y-57406000D01*
X107389847Y-57406000D01*
X107315000Y-57391112D01*
X107240153Y-57406000D01*
X102182847Y-57406000D01*
X102108000Y-57391112D01*
X102033153Y-57406000D01*
X102033148Y-57406000D01*
X101811463Y-57450096D01*
X101560071Y-57618071D01*
X101517671Y-57681527D01*
X100442408Y-58756791D01*
X100222256Y-58713000D01*
X99929744Y-58713000D01*
X99496582Y-58799161D01*
X99005375Y-59127375D01*
X98677161Y-59618582D01*
X98561908Y-60198000D01*
X95644287Y-60198000D01*
X95631391Y-56007000D01*
X186563000Y-56007000D01*
X186563000Y-138303000D01*
G04 #@! TD*
M02*
