M48
INCH,TZ
T1C0.0157
T2C0.0354
T3C0.0394
T4C0.0437
T5C0.0472
T6C0.0669
T7C0.1000
%
G90
G05
T1
X43950Y-50700
X45500Y-39000
X52000Y-34250
X53000Y-32750
X57956Y-29606
T2
X55413Y-23220
X56413Y-23220
X51800Y-23200
X52800Y-23200
T3
X71647Y-50186
X71647Y-51170
X71647Y-52154
X39400Y-42700
X40400Y-42700
X39400Y-23700
X40400Y-23700
X39200Y-48350
X40200Y-48350
X71647Y-38346
X71647Y-39330
X71647Y-40314
X71647Y-26186
X71647Y-27170
X71647Y-28154
X50500Y-45500
X51500Y-45500
X39150Y-30750
X40150Y-30750
T4
X46500Y-35250
X47500Y-35250
X48500Y-35250
X49500Y-35250
X50500Y-35250
X50500Y-43250
X51500Y-35250
X51500Y-43250
X52500Y-35250
X52500Y-43250
X53500Y-35250
X53500Y-43250
X54500Y-35250
X54500Y-43250
X55500Y-35250
X55500Y-43250
X56500Y-35250
X56500Y-43250
X57500Y-35250
X57500Y-43250
X58500Y-35250
X58500Y-43250
X59500Y-35250
X59500Y-43250
X60500Y-35250
X60500Y-43250
X61500Y-35250
X61500Y-43250
T5
X39000Y-50500
X39000Y-51878
X67937Y-50500
X39000Y-26500
X39000Y-27878
X67937Y-26500
X39000Y-38500
X39000Y-39878
X67937Y-38500
T6
X40634Y-52843
X41106Y-49535
X65831Y-49535
X66303Y-52843
X40634Y-28843
X41106Y-25535
X65831Y-25535
X66303Y-28843
X40634Y-40843
X41106Y-37535
X65831Y-37535
X66303Y-40843
T7
X45000Y-35750
X45000Y-42750
X63000Y-35750
X63000Y-42750
T0
M30
