G04 #@! TF.GenerationSoftware,KiCad,Pcbnew,5.0.1-33cea8e~68~ubuntu16.04.1*
G04 #@! TF.CreationDate,2018-11-29T12:11:28+01:00*
G04 #@! TF.ProjectId,midi_controller_pcb,6D6964695F636F6E74726F6C6C65725F,rev?*
G04 #@! TF.SameCoordinates,Original*
G04 #@! TF.FileFunction,Soldermask,Bot*
G04 #@! TF.FilePolarity,Negative*
%FSLAX46Y46*%
G04 Gerber Fmt 4.6, Leading zero omitted, Abs format (unit mm)*
G04 Created by KiCad (PCBNEW 5.0.1-33cea8e~68~ubuntu16.04.1) date Do 29 Nov 2018 12:11:28 CET*
%MOMM*%
%LPD*%
G01*
G04 APERTURE LIST*
%ADD10C,0.100000*%
G04 APERTURE END LIST*
D10*
G36*
X190082252Y-132749818D02*
X190082254Y-132749819D01*
X190082255Y-132749819D01*
X190455513Y-132904427D01*
X190715627Y-133078230D01*
X190791439Y-133128886D01*
X191077114Y-133414561D01*
X191077116Y-133414564D01*
X191301573Y-133750487D01*
X191456181Y-134123745D01*
X191456182Y-134123748D01*
X191535000Y-134519993D01*
X191535000Y-134924007D01*
X191458574Y-135308228D01*
X191456181Y-135320255D01*
X191301573Y-135693513D01*
X191301572Y-135693514D01*
X191077114Y-136029439D01*
X190791439Y-136315114D01*
X190791436Y-136315116D01*
X190455513Y-136539573D01*
X190082255Y-136694181D01*
X190082254Y-136694181D01*
X190082252Y-136694182D01*
X189686007Y-136773000D01*
X189281993Y-136773000D01*
X188885748Y-136694182D01*
X188885746Y-136694181D01*
X188885745Y-136694181D01*
X188512487Y-136539573D01*
X188176564Y-136315116D01*
X188176561Y-136315114D01*
X187890886Y-136029439D01*
X187666428Y-135693514D01*
X187666427Y-135693513D01*
X187511819Y-135320255D01*
X187509427Y-135308228D01*
X187433000Y-134924007D01*
X187433000Y-134519993D01*
X187511818Y-134123748D01*
X187511819Y-134123745D01*
X187666427Y-133750487D01*
X187890884Y-133414564D01*
X187890886Y-133414561D01*
X188176561Y-133128886D01*
X188252373Y-133078230D01*
X188512487Y-132904427D01*
X188885745Y-132749819D01*
X188885746Y-132749819D01*
X188885748Y-132749818D01*
X189281993Y-132671000D01*
X189686007Y-132671000D01*
X190082252Y-132749818D01*
X190082252Y-132749818D01*
G37*
G36*
X168728433Y-132854893D02*
X168818657Y-132872839D01*
X168894916Y-132904427D01*
X169073621Y-132978449D01*
X169303089Y-133131774D01*
X169498226Y-133326911D01*
X169651551Y-133556379D01*
X169757161Y-133811344D01*
X169811000Y-134082012D01*
X169811000Y-134357988D01*
X169757161Y-134628656D01*
X169651551Y-134883621D01*
X169498226Y-135113089D01*
X169303089Y-135308226D01*
X169073621Y-135461551D01*
X168924267Y-135523415D01*
X168818657Y-135567161D01*
X168728433Y-135585107D01*
X168547988Y-135621000D01*
X168272012Y-135621000D01*
X168091567Y-135585107D01*
X168001343Y-135567161D01*
X167895733Y-135523415D01*
X167746379Y-135461551D01*
X167516911Y-135308226D01*
X167321774Y-135113089D01*
X167168449Y-134883621D01*
X167062839Y-134628656D01*
X167009000Y-134357988D01*
X167009000Y-134082012D01*
X167062839Y-133811344D01*
X167168449Y-133556379D01*
X167321774Y-133326911D01*
X167516911Y-133131774D01*
X167746379Y-132978449D01*
X167925084Y-132904427D01*
X168001343Y-132872839D01*
X168091567Y-132854893D01*
X168272012Y-132819000D01*
X168547988Y-132819000D01*
X168728433Y-132854893D01*
X168728433Y-132854893D01*
G37*
G36*
X103528433Y-132854893D02*
X103618657Y-132872839D01*
X103694916Y-132904427D01*
X103873621Y-132978449D01*
X104103089Y-133131774D01*
X104298226Y-133326911D01*
X104451551Y-133556379D01*
X104557161Y-133811344D01*
X104611000Y-134082012D01*
X104611000Y-134357988D01*
X104557161Y-134628656D01*
X104451551Y-134883621D01*
X104298226Y-135113089D01*
X104103089Y-135308226D01*
X103873621Y-135461551D01*
X103724267Y-135523415D01*
X103618657Y-135567161D01*
X103528433Y-135585107D01*
X103347988Y-135621000D01*
X103072012Y-135621000D01*
X102891567Y-135585107D01*
X102801343Y-135567161D01*
X102695733Y-135523415D01*
X102546379Y-135461551D01*
X102316911Y-135308226D01*
X102121774Y-135113089D01*
X101968449Y-134883621D01*
X101862839Y-134628656D01*
X101809000Y-134357988D01*
X101809000Y-134082012D01*
X101862839Y-133811344D01*
X101968449Y-133556379D01*
X102121774Y-133326911D01*
X102316911Y-133131774D01*
X102546379Y-132978449D01*
X102725084Y-132904427D01*
X102801343Y-132872839D01*
X102891567Y-132854893D01*
X103072012Y-132819000D01*
X103347988Y-132819000D01*
X103528433Y-132854893D01*
X103528433Y-132854893D01*
G37*
G36*
X182261396Y-131557546D02*
X182434466Y-131629234D01*
X182590230Y-131733312D01*
X182722688Y-131865770D01*
X182826766Y-132021534D01*
X182898454Y-132194604D01*
X182935000Y-132378333D01*
X182935000Y-132565667D01*
X182898454Y-132749396D01*
X182826766Y-132922466D01*
X182722688Y-133078230D01*
X182590230Y-133210688D01*
X182434466Y-133314766D01*
X182261396Y-133386454D01*
X182077667Y-133423000D01*
X181890333Y-133423000D01*
X181706604Y-133386454D01*
X181533534Y-133314766D01*
X181377770Y-133210688D01*
X181245312Y-133078230D01*
X181141234Y-132922466D01*
X181069546Y-132749396D01*
X181033000Y-132565667D01*
X181033000Y-132378333D01*
X181069546Y-132194604D01*
X181141234Y-132021534D01*
X181245312Y-131865770D01*
X181377770Y-131733312D01*
X181533534Y-131629234D01*
X181706604Y-131557546D01*
X181890333Y-131521000D01*
X182077667Y-131521000D01*
X182261396Y-131557546D01*
X182261396Y-131557546D01*
G37*
G36*
X99330104Y-130879585D02*
X99498626Y-130949389D01*
X99650291Y-131050728D01*
X99779272Y-131179709D01*
X99880611Y-131331374D01*
X99950415Y-131499896D01*
X99986000Y-131678797D01*
X99986000Y-131861203D01*
X99950415Y-132040104D01*
X99880611Y-132208626D01*
X99779272Y-132360291D01*
X99650291Y-132489272D01*
X99498626Y-132590611D01*
X99330104Y-132660415D01*
X99151203Y-132696000D01*
X98968797Y-132696000D01*
X98789896Y-132660415D01*
X98621374Y-132590611D01*
X98469709Y-132489272D01*
X98340728Y-132360291D01*
X98239389Y-132208626D01*
X98169585Y-132040104D01*
X98134000Y-131861203D01*
X98134000Y-131678797D01*
X98169585Y-131499896D01*
X98239389Y-131331374D01*
X98340728Y-131179709D01*
X98469709Y-131050728D01*
X98621374Y-130949389D01*
X98789896Y-130879585D01*
X98968797Y-130844000D01*
X99151203Y-130844000D01*
X99330104Y-130879585D01*
X99330104Y-130879585D01*
G37*
G36*
X182261396Y-129057546D02*
X182434466Y-129129234D01*
X182590230Y-129233312D01*
X182722688Y-129365770D01*
X182826766Y-129521534D01*
X182898454Y-129694604D01*
X182935000Y-129878333D01*
X182935000Y-130065667D01*
X182898454Y-130249396D01*
X182826766Y-130422466D01*
X182722688Y-130578230D01*
X182590230Y-130710688D01*
X182434466Y-130814766D01*
X182261396Y-130886454D01*
X182077667Y-130923000D01*
X181890333Y-130923000D01*
X181706604Y-130886454D01*
X181533534Y-130814766D01*
X181377770Y-130710688D01*
X181245312Y-130578230D01*
X181141234Y-130422466D01*
X181069546Y-130249396D01*
X181033000Y-130065667D01*
X181033000Y-129878333D01*
X181069546Y-129694604D01*
X181141234Y-129521534D01*
X181245312Y-129365770D01*
X181377770Y-129233312D01*
X181533534Y-129129234D01*
X181706604Y-129057546D01*
X181890333Y-129021000D01*
X182077667Y-129021000D01*
X182261396Y-129057546D01*
X182261396Y-129057546D01*
G37*
G36*
X172830104Y-127379585D02*
X172998626Y-127449389D01*
X173150291Y-127550728D01*
X173279272Y-127679709D01*
X173380611Y-127831374D01*
X173450415Y-127999896D01*
X173486000Y-128178797D01*
X173486000Y-128361203D01*
X173450415Y-128540104D01*
X173380611Y-128708626D01*
X173279272Y-128860291D01*
X173150291Y-128989272D01*
X172998626Y-129090611D01*
X172830104Y-129160415D01*
X172651203Y-129196000D01*
X172468797Y-129196000D01*
X172289896Y-129160415D01*
X172121374Y-129090611D01*
X171969709Y-128989272D01*
X171840728Y-128860291D01*
X171739389Y-128708626D01*
X171669585Y-128540104D01*
X171634000Y-128361203D01*
X171634000Y-128178797D01*
X171669585Y-127999896D01*
X171739389Y-127831374D01*
X171840728Y-127679709D01*
X171969709Y-127550728D01*
X172121374Y-127449389D01*
X172289896Y-127379585D01*
X172468797Y-127344000D01*
X172651203Y-127344000D01*
X172830104Y-127379585D01*
X172830104Y-127379585D01*
G37*
G36*
X99986000Y-129196000D02*
X98134000Y-129196000D01*
X98134000Y-127344000D01*
X99986000Y-127344000D01*
X99986000Y-129196000D01*
X99986000Y-129196000D01*
G37*
G36*
X182261396Y-126557546D02*
X182434466Y-126629234D01*
X182590230Y-126733312D01*
X182722688Y-126865770D01*
X182826766Y-127021534D01*
X182898454Y-127194604D01*
X182935000Y-127378333D01*
X182935000Y-127565667D01*
X182898454Y-127749396D01*
X182826766Y-127922466D01*
X182722688Y-128078230D01*
X182590230Y-128210688D01*
X182434466Y-128314766D01*
X182261396Y-128386454D01*
X182077667Y-128423000D01*
X181890333Y-128423000D01*
X181706604Y-128386454D01*
X181533534Y-128314766D01*
X181377770Y-128210688D01*
X181245312Y-128078230D01*
X181141234Y-127922466D01*
X181069546Y-127749396D01*
X181033000Y-127565667D01*
X181033000Y-127378333D01*
X181069546Y-127194604D01*
X181141234Y-127021534D01*
X181245312Y-126865770D01*
X181377770Y-126733312D01*
X181533534Y-126629234D01*
X181706604Y-126557546D01*
X181890333Y-126521000D01*
X182077667Y-126521000D01*
X182261396Y-126557546D01*
X182261396Y-126557546D01*
G37*
G36*
X190082252Y-123249818D02*
X190082254Y-123249819D01*
X190082255Y-123249819D01*
X190455513Y-123404427D01*
X190455514Y-123404428D01*
X190791439Y-123628886D01*
X191077114Y-123914561D01*
X191077116Y-123914564D01*
X191301573Y-124250487D01*
X191371373Y-124419000D01*
X191456182Y-124623748D01*
X191535000Y-125019993D01*
X191535000Y-125424007D01*
X191483680Y-125682012D01*
X191456181Y-125820255D01*
X191301573Y-126193513D01*
X191301572Y-126193514D01*
X191077114Y-126529439D01*
X190791439Y-126815114D01*
X190791436Y-126815116D01*
X190455513Y-127039573D01*
X190082255Y-127194181D01*
X190082254Y-127194181D01*
X190082252Y-127194182D01*
X189686007Y-127273000D01*
X189281993Y-127273000D01*
X188885748Y-127194182D01*
X188885746Y-127194181D01*
X188885745Y-127194181D01*
X188512487Y-127039573D01*
X188176564Y-126815116D01*
X188176561Y-126815114D01*
X187890886Y-126529439D01*
X187666428Y-126193514D01*
X187666427Y-126193513D01*
X187511819Y-125820255D01*
X187484321Y-125682012D01*
X187433000Y-125424007D01*
X187433000Y-125019993D01*
X187511818Y-124623748D01*
X187596627Y-124419000D01*
X187666427Y-124250487D01*
X187890884Y-123914564D01*
X187890886Y-123914561D01*
X188176561Y-123628886D01*
X188512486Y-123404428D01*
X188512487Y-123404427D01*
X188885745Y-123249819D01*
X188885746Y-123249819D01*
X188885748Y-123249818D01*
X189281993Y-123171000D01*
X189686007Y-123171000D01*
X190082252Y-123249818D01*
X190082252Y-123249818D01*
G37*
G36*
X104728433Y-124454893D02*
X104818657Y-124472839D01*
X104924267Y-124516585D01*
X105073621Y-124578449D01*
X105303089Y-124731774D01*
X105498226Y-124926911D01*
X105651551Y-125156379D01*
X105757161Y-125411344D01*
X105811000Y-125682012D01*
X105811000Y-125957988D01*
X105757161Y-126228656D01*
X105651551Y-126483621D01*
X105498226Y-126713089D01*
X105303089Y-126908226D01*
X105073621Y-127061551D01*
X104924267Y-127123415D01*
X104818657Y-127167161D01*
X104728433Y-127185107D01*
X104547988Y-127221000D01*
X104272012Y-127221000D01*
X104091567Y-127185107D01*
X104001343Y-127167161D01*
X103895733Y-127123415D01*
X103746379Y-127061551D01*
X103516911Y-126908226D01*
X103321774Y-126713089D01*
X103168449Y-126483621D01*
X103062839Y-126228656D01*
X103009000Y-125957988D01*
X103009000Y-125682012D01*
X103062839Y-125411344D01*
X103168449Y-125156379D01*
X103321774Y-124926911D01*
X103516911Y-124731774D01*
X103746379Y-124578449D01*
X103895733Y-124516585D01*
X104001343Y-124472839D01*
X104091567Y-124454893D01*
X104272012Y-124419000D01*
X104547988Y-124419000D01*
X104728433Y-124454893D01*
X104728433Y-124454893D01*
G37*
G36*
X167528433Y-124454893D02*
X167618657Y-124472839D01*
X167724267Y-124516585D01*
X167873621Y-124578449D01*
X168103089Y-124731774D01*
X168298226Y-124926911D01*
X168451551Y-125156379D01*
X168557161Y-125411344D01*
X168611000Y-125682012D01*
X168611000Y-125957988D01*
X168557161Y-126228656D01*
X168451551Y-126483621D01*
X168298226Y-126713089D01*
X168103089Y-126908226D01*
X167873621Y-127061551D01*
X167724267Y-127123415D01*
X167618657Y-127167161D01*
X167528433Y-127185107D01*
X167347988Y-127221000D01*
X167072012Y-127221000D01*
X166891567Y-127185107D01*
X166801343Y-127167161D01*
X166695733Y-127123415D01*
X166546379Y-127061551D01*
X166316911Y-126908226D01*
X166121774Y-126713089D01*
X165968449Y-126483621D01*
X165862839Y-126228656D01*
X165809000Y-125957988D01*
X165809000Y-125682012D01*
X165862839Y-125411344D01*
X165968449Y-125156379D01*
X166121774Y-124926911D01*
X166316911Y-124731774D01*
X166546379Y-124578449D01*
X166695733Y-124516585D01*
X166801343Y-124472839D01*
X166891567Y-124454893D01*
X167072012Y-124419000D01*
X167347988Y-124419000D01*
X167528433Y-124454893D01*
X167528433Y-124454893D01*
G37*
G36*
X103009000Y-123710000D02*
X101207000Y-123710000D01*
X101207000Y-121908000D01*
X103009000Y-121908000D01*
X103009000Y-123710000D01*
X103009000Y-123710000D01*
G37*
G36*
X99678442Y-121914518D02*
X99744627Y-121921037D01*
X99857853Y-121955384D01*
X99914467Y-121972557D01*
X100053087Y-122046652D01*
X100070991Y-122056222D01*
X100106729Y-122085552D01*
X100208186Y-122168814D01*
X100291448Y-122270271D01*
X100320778Y-122306009D01*
X100320779Y-122306011D01*
X100404443Y-122462533D01*
X100404443Y-122462534D01*
X100455963Y-122632373D01*
X100473359Y-122809000D01*
X100455963Y-122985627D01*
X100421616Y-123098853D01*
X100404443Y-123155467D01*
X100354010Y-123249819D01*
X100320778Y-123311991D01*
X100291448Y-123347729D01*
X100208186Y-123449186D01*
X100106729Y-123532448D01*
X100070991Y-123561778D01*
X100070989Y-123561779D01*
X99914467Y-123645443D01*
X99857853Y-123662616D01*
X99744627Y-123696963D01*
X99678442Y-123703482D01*
X99612260Y-123710000D01*
X99523740Y-123710000D01*
X99457558Y-123703482D01*
X99391373Y-123696963D01*
X99278147Y-123662616D01*
X99221533Y-123645443D01*
X99065011Y-123561779D01*
X99065009Y-123561778D01*
X99029271Y-123532448D01*
X98927814Y-123449186D01*
X98844552Y-123347729D01*
X98815222Y-123311991D01*
X98781990Y-123249819D01*
X98731557Y-123155467D01*
X98714384Y-123098853D01*
X98680037Y-122985627D01*
X98662641Y-122809000D01*
X98680037Y-122632373D01*
X98731557Y-122462534D01*
X98731557Y-122462533D01*
X98815221Y-122306011D01*
X98815222Y-122306009D01*
X98844552Y-122270271D01*
X98927814Y-122168814D01*
X99029271Y-122085552D01*
X99065009Y-122056222D01*
X99082913Y-122046652D01*
X99221533Y-121972557D01*
X99278147Y-121955384D01*
X99391373Y-121921037D01*
X99457558Y-121914518D01*
X99523740Y-121908000D01*
X99612260Y-121908000D01*
X99678442Y-121914518D01*
X99678442Y-121914518D01*
G37*
G36*
X128380443Y-114675519D02*
X128446627Y-114682037D01*
X128559853Y-114716384D01*
X128616467Y-114733557D01*
X128755087Y-114807652D01*
X128772991Y-114817222D01*
X128808729Y-114846552D01*
X128910186Y-114929814D01*
X128993448Y-115031271D01*
X129022778Y-115067009D01*
X129022779Y-115067011D01*
X129106443Y-115223533D01*
X129106443Y-115223534D01*
X129157963Y-115393373D01*
X129175359Y-115570000D01*
X129157963Y-115746627D01*
X129123616Y-115859853D01*
X129106443Y-115916467D01*
X129032348Y-116055087D01*
X129022778Y-116072991D01*
X128993448Y-116108729D01*
X128910186Y-116210186D01*
X128808729Y-116293448D01*
X128772991Y-116322778D01*
X128772989Y-116322779D01*
X128616467Y-116406443D01*
X128559853Y-116423616D01*
X128446627Y-116457963D01*
X128380442Y-116464482D01*
X128314260Y-116471000D01*
X128225740Y-116471000D01*
X128159558Y-116464482D01*
X128093373Y-116457963D01*
X127980147Y-116423616D01*
X127923533Y-116406443D01*
X127767011Y-116322779D01*
X127767009Y-116322778D01*
X127731271Y-116293448D01*
X127629814Y-116210186D01*
X127546552Y-116108729D01*
X127517222Y-116072991D01*
X127507652Y-116055087D01*
X127433557Y-115916467D01*
X127416384Y-115859853D01*
X127382037Y-115746627D01*
X127364641Y-115570000D01*
X127382037Y-115393373D01*
X127433557Y-115223534D01*
X127433557Y-115223533D01*
X127517221Y-115067011D01*
X127517222Y-115067009D01*
X127546552Y-115031271D01*
X127629814Y-114929814D01*
X127731271Y-114846552D01*
X127767009Y-114817222D01*
X127784913Y-114807652D01*
X127923533Y-114733557D01*
X127980147Y-114716384D01*
X128093373Y-114682037D01*
X128159557Y-114675519D01*
X128225740Y-114669000D01*
X128314260Y-114669000D01*
X128380443Y-114675519D01*
X128380443Y-114675519D01*
G37*
G36*
X131711000Y-116471000D02*
X129909000Y-116471000D01*
X129909000Y-114669000D01*
X131711000Y-114669000D01*
X131711000Y-116471000D01*
X131711000Y-116471000D01*
G37*
G36*
X129153500Y-110738500D02*
X127386500Y-110738500D01*
X127386500Y-108971500D01*
X129153500Y-108971500D01*
X129153500Y-110738500D01*
X129153500Y-110738500D01*
G37*
G36*
X130982362Y-108988476D02*
X131067707Y-109005452D01*
X131228494Y-109072052D01*
X131228495Y-109072053D01*
X131373201Y-109168743D01*
X131496257Y-109291799D01*
X131496259Y-109291802D01*
X131592948Y-109436506D01*
X131659548Y-109597293D01*
X131693500Y-109767983D01*
X131693500Y-109942017D01*
X131659548Y-110112707D01*
X131592948Y-110273494D01*
X131497566Y-110416242D01*
X131496257Y-110418201D01*
X131373201Y-110541257D01*
X131373198Y-110541259D01*
X131228494Y-110637948D01*
X131067707Y-110704548D01*
X130982362Y-110721524D01*
X130897019Y-110738500D01*
X130722981Y-110738500D01*
X130637638Y-110721524D01*
X130552293Y-110704548D01*
X130391506Y-110637948D01*
X130246802Y-110541259D01*
X130246799Y-110541257D01*
X130123743Y-110418201D01*
X130122434Y-110416242D01*
X130027052Y-110273494D01*
X129960452Y-110112707D01*
X129926500Y-109942017D01*
X129926500Y-109767983D01*
X129960452Y-109597293D01*
X130027052Y-109436506D01*
X130123741Y-109291802D01*
X130123743Y-109291799D01*
X130246799Y-109168743D01*
X130391505Y-109072053D01*
X130391506Y-109072052D01*
X130552293Y-109005452D01*
X130637638Y-108988476D01*
X130722981Y-108971500D01*
X130897019Y-108971500D01*
X130982362Y-108988476D01*
X130982362Y-108988476D01*
G37*
G36*
X133522362Y-108988476D02*
X133607707Y-109005452D01*
X133768494Y-109072052D01*
X133768495Y-109072053D01*
X133913201Y-109168743D01*
X134036257Y-109291799D01*
X134036259Y-109291802D01*
X134132948Y-109436506D01*
X134199548Y-109597293D01*
X134233500Y-109767983D01*
X134233500Y-109942017D01*
X134199548Y-110112707D01*
X134132948Y-110273494D01*
X134037566Y-110416242D01*
X134036257Y-110418201D01*
X133913201Y-110541257D01*
X133913198Y-110541259D01*
X133768494Y-110637948D01*
X133607707Y-110704548D01*
X133522362Y-110721524D01*
X133437019Y-110738500D01*
X133262981Y-110738500D01*
X133177638Y-110721524D01*
X133092293Y-110704548D01*
X132931506Y-110637948D01*
X132786802Y-110541259D01*
X132786799Y-110541257D01*
X132663743Y-110418201D01*
X132662434Y-110416242D01*
X132567052Y-110273494D01*
X132500452Y-110112707D01*
X132466500Y-109942017D01*
X132466500Y-109767983D01*
X132500452Y-109597293D01*
X132567052Y-109436506D01*
X132663741Y-109291802D01*
X132663743Y-109291799D01*
X132786799Y-109168743D01*
X132931505Y-109072053D01*
X132931506Y-109072052D01*
X133092293Y-109005452D01*
X133177638Y-108988476D01*
X133262981Y-108971500D01*
X133437019Y-108971500D01*
X133522362Y-108988476D01*
X133522362Y-108988476D01*
G37*
G36*
X136062362Y-108988476D02*
X136147707Y-109005452D01*
X136308494Y-109072052D01*
X136308495Y-109072053D01*
X136453201Y-109168743D01*
X136576257Y-109291799D01*
X136576259Y-109291802D01*
X136672948Y-109436506D01*
X136739548Y-109597293D01*
X136773500Y-109767983D01*
X136773500Y-109942017D01*
X136739548Y-110112707D01*
X136672948Y-110273494D01*
X136577566Y-110416242D01*
X136576257Y-110418201D01*
X136453201Y-110541257D01*
X136453198Y-110541259D01*
X136308494Y-110637948D01*
X136147707Y-110704548D01*
X136062362Y-110721524D01*
X135977019Y-110738500D01*
X135802981Y-110738500D01*
X135717638Y-110721524D01*
X135632293Y-110704548D01*
X135471506Y-110637948D01*
X135326802Y-110541259D01*
X135326799Y-110541257D01*
X135203743Y-110418201D01*
X135202434Y-110416242D01*
X135107052Y-110273494D01*
X135040452Y-110112707D01*
X135006500Y-109942017D01*
X135006500Y-109767983D01*
X135040452Y-109597293D01*
X135107052Y-109436506D01*
X135203741Y-109291802D01*
X135203743Y-109291799D01*
X135326799Y-109168743D01*
X135471505Y-109072053D01*
X135471506Y-109072052D01*
X135632293Y-109005452D01*
X135717638Y-108988476D01*
X135802981Y-108971500D01*
X135977019Y-108971500D01*
X136062362Y-108988476D01*
X136062362Y-108988476D01*
G37*
G36*
X138602362Y-108988476D02*
X138687707Y-109005452D01*
X138848494Y-109072052D01*
X138848495Y-109072053D01*
X138993201Y-109168743D01*
X139116257Y-109291799D01*
X139116259Y-109291802D01*
X139212948Y-109436506D01*
X139279548Y-109597293D01*
X139313500Y-109767983D01*
X139313500Y-109942017D01*
X139279548Y-110112707D01*
X139212948Y-110273494D01*
X139117566Y-110416242D01*
X139116257Y-110418201D01*
X138993201Y-110541257D01*
X138993198Y-110541259D01*
X138848494Y-110637948D01*
X138687707Y-110704548D01*
X138602362Y-110721524D01*
X138517019Y-110738500D01*
X138342981Y-110738500D01*
X138257638Y-110721524D01*
X138172293Y-110704548D01*
X138011506Y-110637948D01*
X137866802Y-110541259D01*
X137866799Y-110541257D01*
X137743743Y-110418201D01*
X137742434Y-110416242D01*
X137647052Y-110273494D01*
X137580452Y-110112707D01*
X137546500Y-109942017D01*
X137546500Y-109767983D01*
X137580452Y-109597293D01*
X137647052Y-109436506D01*
X137743741Y-109291802D01*
X137743743Y-109291799D01*
X137866799Y-109168743D01*
X138011505Y-109072053D01*
X138011506Y-109072052D01*
X138172293Y-109005452D01*
X138257638Y-108988476D01*
X138342981Y-108971500D01*
X138517019Y-108971500D01*
X138602362Y-108988476D01*
X138602362Y-108988476D01*
G37*
G36*
X141142362Y-108988476D02*
X141227707Y-109005452D01*
X141388494Y-109072052D01*
X141388495Y-109072053D01*
X141533201Y-109168743D01*
X141656257Y-109291799D01*
X141656259Y-109291802D01*
X141752948Y-109436506D01*
X141819548Y-109597293D01*
X141853500Y-109767983D01*
X141853500Y-109942017D01*
X141819548Y-110112707D01*
X141752948Y-110273494D01*
X141657566Y-110416242D01*
X141656257Y-110418201D01*
X141533201Y-110541257D01*
X141533198Y-110541259D01*
X141388494Y-110637948D01*
X141227707Y-110704548D01*
X141142362Y-110721524D01*
X141057019Y-110738500D01*
X140882981Y-110738500D01*
X140797638Y-110721524D01*
X140712293Y-110704548D01*
X140551506Y-110637948D01*
X140406802Y-110541259D01*
X140406799Y-110541257D01*
X140283743Y-110418201D01*
X140282434Y-110416242D01*
X140187052Y-110273494D01*
X140120452Y-110112707D01*
X140086500Y-109942017D01*
X140086500Y-109767983D01*
X140120452Y-109597293D01*
X140187052Y-109436506D01*
X140283741Y-109291802D01*
X140283743Y-109291799D01*
X140406799Y-109168743D01*
X140551505Y-109072053D01*
X140551506Y-109072052D01*
X140712293Y-109005452D01*
X140797638Y-108988476D01*
X140882981Y-108971500D01*
X141057019Y-108971500D01*
X141142362Y-108988476D01*
X141142362Y-108988476D01*
G37*
G36*
X146222362Y-108988476D02*
X146307707Y-109005452D01*
X146468494Y-109072052D01*
X146468495Y-109072053D01*
X146613201Y-109168743D01*
X146736257Y-109291799D01*
X146736259Y-109291802D01*
X146832948Y-109436506D01*
X146899548Y-109597293D01*
X146933500Y-109767983D01*
X146933500Y-109942017D01*
X146899548Y-110112707D01*
X146832948Y-110273494D01*
X146737566Y-110416242D01*
X146736257Y-110418201D01*
X146613201Y-110541257D01*
X146613198Y-110541259D01*
X146468494Y-110637948D01*
X146307707Y-110704548D01*
X146222362Y-110721524D01*
X146137019Y-110738500D01*
X145962981Y-110738500D01*
X145877638Y-110721524D01*
X145792293Y-110704548D01*
X145631506Y-110637948D01*
X145486802Y-110541259D01*
X145486799Y-110541257D01*
X145363743Y-110418201D01*
X145362434Y-110416242D01*
X145267052Y-110273494D01*
X145200452Y-110112707D01*
X145166500Y-109942017D01*
X145166500Y-109767983D01*
X145200452Y-109597293D01*
X145267052Y-109436506D01*
X145363741Y-109291802D01*
X145363743Y-109291799D01*
X145486799Y-109168743D01*
X145631505Y-109072053D01*
X145631506Y-109072052D01*
X145792293Y-109005452D01*
X145877638Y-108988476D01*
X145962981Y-108971500D01*
X146137019Y-108971500D01*
X146222362Y-108988476D01*
X146222362Y-108988476D01*
G37*
G36*
X148762362Y-108988476D02*
X148847707Y-109005452D01*
X149008494Y-109072052D01*
X149008495Y-109072053D01*
X149153201Y-109168743D01*
X149276257Y-109291799D01*
X149276259Y-109291802D01*
X149372948Y-109436506D01*
X149439548Y-109597293D01*
X149473500Y-109767983D01*
X149473500Y-109942017D01*
X149439548Y-110112707D01*
X149372948Y-110273494D01*
X149277566Y-110416242D01*
X149276257Y-110418201D01*
X149153201Y-110541257D01*
X149153198Y-110541259D01*
X149008494Y-110637948D01*
X148847707Y-110704548D01*
X148762362Y-110721524D01*
X148677019Y-110738500D01*
X148502981Y-110738500D01*
X148417638Y-110721524D01*
X148332293Y-110704548D01*
X148171506Y-110637948D01*
X148026802Y-110541259D01*
X148026799Y-110541257D01*
X147903743Y-110418201D01*
X147902434Y-110416242D01*
X147807052Y-110273494D01*
X147740452Y-110112707D01*
X147706500Y-109942017D01*
X147706500Y-109767983D01*
X147740452Y-109597293D01*
X147807052Y-109436506D01*
X147903741Y-109291802D01*
X147903743Y-109291799D01*
X148026799Y-109168743D01*
X148171505Y-109072053D01*
X148171506Y-109072052D01*
X148332293Y-109005452D01*
X148417638Y-108988476D01*
X148502981Y-108971500D01*
X148677019Y-108971500D01*
X148762362Y-108988476D01*
X148762362Y-108988476D01*
G37*
G36*
X151302362Y-108988476D02*
X151387707Y-109005452D01*
X151548494Y-109072052D01*
X151548495Y-109072053D01*
X151693201Y-109168743D01*
X151816257Y-109291799D01*
X151816259Y-109291802D01*
X151912948Y-109436506D01*
X151979548Y-109597293D01*
X152013500Y-109767983D01*
X152013500Y-109942017D01*
X151979548Y-110112707D01*
X151912948Y-110273494D01*
X151817566Y-110416242D01*
X151816257Y-110418201D01*
X151693201Y-110541257D01*
X151693198Y-110541259D01*
X151548494Y-110637948D01*
X151387707Y-110704548D01*
X151302362Y-110721524D01*
X151217019Y-110738500D01*
X151042981Y-110738500D01*
X150957638Y-110721524D01*
X150872293Y-110704548D01*
X150711506Y-110637948D01*
X150566802Y-110541259D01*
X150566799Y-110541257D01*
X150443743Y-110418201D01*
X150442434Y-110416242D01*
X150347052Y-110273494D01*
X150280452Y-110112707D01*
X150246500Y-109942017D01*
X150246500Y-109767983D01*
X150280452Y-109597293D01*
X150347052Y-109436506D01*
X150443741Y-109291802D01*
X150443743Y-109291799D01*
X150566799Y-109168743D01*
X150711505Y-109072053D01*
X150711506Y-109072052D01*
X150872293Y-109005452D01*
X150957638Y-108988476D01*
X151042981Y-108971500D01*
X151217019Y-108971500D01*
X151302362Y-108988476D01*
X151302362Y-108988476D01*
G37*
G36*
X153842362Y-108988476D02*
X153927707Y-109005452D01*
X154088494Y-109072052D01*
X154088495Y-109072053D01*
X154233201Y-109168743D01*
X154356257Y-109291799D01*
X154356259Y-109291802D01*
X154452948Y-109436506D01*
X154519548Y-109597293D01*
X154553500Y-109767983D01*
X154553500Y-109942017D01*
X154519548Y-110112707D01*
X154452948Y-110273494D01*
X154357566Y-110416242D01*
X154356257Y-110418201D01*
X154233201Y-110541257D01*
X154233198Y-110541259D01*
X154088494Y-110637948D01*
X153927707Y-110704548D01*
X153842362Y-110721524D01*
X153757019Y-110738500D01*
X153582981Y-110738500D01*
X153497638Y-110721524D01*
X153412293Y-110704548D01*
X153251506Y-110637948D01*
X153106802Y-110541259D01*
X153106799Y-110541257D01*
X152983743Y-110418201D01*
X152982434Y-110416242D01*
X152887052Y-110273494D01*
X152820452Y-110112707D01*
X152786500Y-109942017D01*
X152786500Y-109767983D01*
X152820452Y-109597293D01*
X152887052Y-109436506D01*
X152983741Y-109291802D01*
X152983743Y-109291799D01*
X153106799Y-109168743D01*
X153251505Y-109072053D01*
X153251506Y-109072052D01*
X153412293Y-109005452D01*
X153497638Y-108988476D01*
X153582981Y-108971500D01*
X153757019Y-108971500D01*
X153842362Y-108988476D01*
X153842362Y-108988476D01*
G37*
G36*
X156382362Y-108988476D02*
X156467707Y-109005452D01*
X156628494Y-109072052D01*
X156628495Y-109072053D01*
X156773201Y-109168743D01*
X156896257Y-109291799D01*
X156896259Y-109291802D01*
X156992948Y-109436506D01*
X157059548Y-109597293D01*
X157093500Y-109767983D01*
X157093500Y-109942017D01*
X157059548Y-110112707D01*
X156992948Y-110273494D01*
X156897566Y-110416242D01*
X156896257Y-110418201D01*
X156773201Y-110541257D01*
X156773198Y-110541259D01*
X156628494Y-110637948D01*
X156467707Y-110704548D01*
X156382362Y-110721524D01*
X156297019Y-110738500D01*
X156122981Y-110738500D01*
X156037638Y-110721524D01*
X155952293Y-110704548D01*
X155791506Y-110637948D01*
X155646802Y-110541259D01*
X155646799Y-110541257D01*
X155523743Y-110418201D01*
X155522434Y-110416242D01*
X155427052Y-110273494D01*
X155360452Y-110112707D01*
X155326500Y-109942017D01*
X155326500Y-109767983D01*
X155360452Y-109597293D01*
X155427052Y-109436506D01*
X155523741Y-109291802D01*
X155523743Y-109291799D01*
X155646799Y-109168743D01*
X155791505Y-109072053D01*
X155791506Y-109072052D01*
X155952293Y-109005452D01*
X156037638Y-108988476D01*
X156122981Y-108971500D01*
X156297019Y-108971500D01*
X156382362Y-108988476D01*
X156382362Y-108988476D01*
G37*
G36*
X143682362Y-108988476D02*
X143767707Y-109005452D01*
X143928494Y-109072052D01*
X143928495Y-109072053D01*
X144073201Y-109168743D01*
X144196257Y-109291799D01*
X144196259Y-109291802D01*
X144292948Y-109436506D01*
X144359548Y-109597293D01*
X144393500Y-109767983D01*
X144393500Y-109942017D01*
X144359548Y-110112707D01*
X144292948Y-110273494D01*
X144197566Y-110416242D01*
X144196257Y-110418201D01*
X144073201Y-110541257D01*
X144073198Y-110541259D01*
X143928494Y-110637948D01*
X143767707Y-110704548D01*
X143682362Y-110721524D01*
X143597019Y-110738500D01*
X143422981Y-110738500D01*
X143337638Y-110721524D01*
X143252293Y-110704548D01*
X143091506Y-110637948D01*
X142946802Y-110541259D01*
X142946799Y-110541257D01*
X142823743Y-110418201D01*
X142822434Y-110416242D01*
X142727052Y-110273494D01*
X142660452Y-110112707D01*
X142626500Y-109942017D01*
X142626500Y-109767983D01*
X142660452Y-109597293D01*
X142727052Y-109436506D01*
X142823741Y-109291802D01*
X142823743Y-109291799D01*
X142946799Y-109168743D01*
X143091505Y-109072053D01*
X143091506Y-109072052D01*
X143252293Y-109005452D01*
X143337638Y-108988476D01*
X143422981Y-108971500D01*
X143597019Y-108971500D01*
X143682362Y-108988476D01*
X143682362Y-108988476D01*
G37*
G36*
X160464579Y-106679112D02*
X160590544Y-106704168D01*
X160737991Y-106765243D01*
X160946512Y-106851615D01*
X161266880Y-107065678D01*
X161539322Y-107338120D01*
X161753385Y-107658488D01*
X161900832Y-108014457D01*
X161976000Y-108392349D01*
X161976000Y-108777651D01*
X161939531Y-108960991D01*
X161900832Y-109155544D01*
X161877953Y-109210778D01*
X161753385Y-109511512D01*
X161539322Y-109831880D01*
X161266880Y-110104322D01*
X160946512Y-110318385D01*
X160737991Y-110404757D01*
X160590544Y-110465832D01*
X160464579Y-110490888D01*
X160212651Y-110541000D01*
X159827349Y-110541000D01*
X159575421Y-110490888D01*
X159449456Y-110465832D01*
X159302009Y-110404757D01*
X159093488Y-110318385D01*
X158773120Y-110104322D01*
X158500678Y-109831880D01*
X158286615Y-109511512D01*
X158162047Y-109210778D01*
X158139168Y-109155544D01*
X158100469Y-108960991D01*
X158064000Y-108777651D01*
X158064000Y-108392349D01*
X158139168Y-108014457D01*
X158286615Y-107658488D01*
X158500678Y-107338120D01*
X158773120Y-107065678D01*
X159093488Y-106851615D01*
X159302009Y-106765243D01*
X159449456Y-106704168D01*
X159575421Y-106679112D01*
X159827349Y-106629000D01*
X160212651Y-106629000D01*
X160464579Y-106679112D01*
X160464579Y-106679112D01*
G37*
G36*
X114744579Y-106679112D02*
X114870544Y-106704168D01*
X115017991Y-106765243D01*
X115226512Y-106851615D01*
X115546880Y-107065678D01*
X115819322Y-107338120D01*
X116033385Y-107658488D01*
X116180832Y-108014457D01*
X116256000Y-108392349D01*
X116256000Y-108777651D01*
X116219531Y-108960991D01*
X116180832Y-109155544D01*
X116157953Y-109210778D01*
X116033385Y-109511512D01*
X115819322Y-109831880D01*
X115546880Y-110104322D01*
X115226512Y-110318385D01*
X115017991Y-110404757D01*
X114870544Y-110465832D01*
X114744579Y-110490888D01*
X114492651Y-110541000D01*
X114107349Y-110541000D01*
X113855421Y-110490888D01*
X113729456Y-110465832D01*
X113582009Y-110404757D01*
X113373488Y-110318385D01*
X113053120Y-110104322D01*
X112780678Y-109831880D01*
X112566615Y-109511512D01*
X112442047Y-109210778D01*
X112419168Y-109155544D01*
X112380469Y-108960991D01*
X112344000Y-108777651D01*
X112344000Y-108392349D01*
X112419168Y-108014457D01*
X112566615Y-107658488D01*
X112780678Y-107338120D01*
X113053120Y-107065678D01*
X113373488Y-106851615D01*
X113582009Y-106765243D01*
X113729456Y-106704168D01*
X113855421Y-106679112D01*
X114107349Y-106629000D01*
X114492651Y-106629000D01*
X114744579Y-106679112D01*
X114744579Y-106679112D01*
G37*
G36*
X100186443Y-107563519D02*
X100252627Y-107570037D01*
X100365853Y-107604384D01*
X100422467Y-107621557D01*
X100491557Y-107658487D01*
X100578991Y-107705222D01*
X100614729Y-107734552D01*
X100716186Y-107817814D01*
X100799448Y-107919271D01*
X100828778Y-107955009D01*
X100828779Y-107955011D01*
X100912443Y-108111533D01*
X100912443Y-108111534D01*
X100963963Y-108281373D01*
X100981359Y-108458000D01*
X100963963Y-108634627D01*
X100929616Y-108747853D01*
X100912443Y-108804467D01*
X100838348Y-108943087D01*
X100828778Y-108960991D01*
X100820153Y-108971500D01*
X100716186Y-109098186D01*
X100614729Y-109181448D01*
X100578991Y-109210778D01*
X100578989Y-109210779D01*
X100422467Y-109294443D01*
X100365853Y-109311616D01*
X100252627Y-109345963D01*
X100186443Y-109352481D01*
X100120260Y-109359000D01*
X100031740Y-109359000D01*
X99965557Y-109352481D01*
X99899373Y-109345963D01*
X99786147Y-109311616D01*
X99729533Y-109294443D01*
X99573011Y-109210779D01*
X99573009Y-109210778D01*
X99537271Y-109181448D01*
X99435814Y-109098186D01*
X99331847Y-108971500D01*
X99323222Y-108960991D01*
X99313652Y-108943087D01*
X99239557Y-108804467D01*
X99222384Y-108747853D01*
X99188037Y-108634627D01*
X99170641Y-108458000D01*
X99188037Y-108281373D01*
X99239557Y-108111534D01*
X99239557Y-108111533D01*
X99323221Y-107955011D01*
X99323222Y-107955009D01*
X99352552Y-107919271D01*
X99435814Y-107817814D01*
X99537271Y-107734552D01*
X99573009Y-107705222D01*
X99660443Y-107658487D01*
X99729533Y-107621557D01*
X99786147Y-107604384D01*
X99899373Y-107570037D01*
X99965557Y-107563519D01*
X100031740Y-107557000D01*
X100120260Y-107557000D01*
X100186443Y-107563519D01*
X100186443Y-107563519D01*
G37*
G36*
X103517000Y-109359000D02*
X101715000Y-109359000D01*
X101715000Y-107557000D01*
X103517000Y-107557000D01*
X103517000Y-109359000D01*
X103517000Y-109359000D01*
G37*
G36*
X190082252Y-102675818D02*
X190082254Y-102675819D01*
X190082255Y-102675819D01*
X190455513Y-102830427D01*
X190715627Y-103004230D01*
X190791439Y-103054886D01*
X191077114Y-103340561D01*
X191077116Y-103340564D01*
X191301573Y-103676487D01*
X191385036Y-103877986D01*
X191456182Y-104049748D01*
X191526572Y-104403622D01*
X191535000Y-104445994D01*
X191535000Y-104850006D01*
X191456181Y-105246255D01*
X191301573Y-105619513D01*
X191301572Y-105619514D01*
X191077114Y-105955439D01*
X190791439Y-106241114D01*
X190791436Y-106241116D01*
X190455513Y-106465573D01*
X190082255Y-106620181D01*
X190082254Y-106620181D01*
X190082252Y-106620182D01*
X189686007Y-106699000D01*
X189281993Y-106699000D01*
X188885748Y-106620182D01*
X188885746Y-106620181D01*
X188885745Y-106620181D01*
X188512487Y-106465573D01*
X188176564Y-106241116D01*
X188176561Y-106241114D01*
X187890886Y-105955439D01*
X187666428Y-105619514D01*
X187666427Y-105619513D01*
X187511819Y-105246255D01*
X187433000Y-104850006D01*
X187433000Y-104445994D01*
X187441428Y-104403622D01*
X187511818Y-104049748D01*
X187582964Y-103877986D01*
X187666427Y-103676487D01*
X187890884Y-103340564D01*
X187890886Y-103340561D01*
X188176561Y-103054886D01*
X188252373Y-103004230D01*
X188512487Y-102830427D01*
X188885745Y-102675819D01*
X188885746Y-102675819D01*
X188885748Y-102675818D01*
X189281993Y-102597000D01*
X189686007Y-102597000D01*
X190082252Y-102675818D01*
X190082252Y-102675818D01*
G37*
G36*
X168728433Y-102374893D02*
X168818657Y-102392839D01*
X168924267Y-102436585D01*
X169073621Y-102498449D01*
X169303089Y-102651774D01*
X169498226Y-102846911D01*
X169651551Y-103076379D01*
X169713415Y-103225733D01*
X169757161Y-103331343D01*
X169758995Y-103340564D01*
X169811000Y-103602012D01*
X169811000Y-103877988D01*
X169757161Y-104148656D01*
X169651551Y-104403621D01*
X169498226Y-104633089D01*
X169303089Y-104828226D01*
X169073621Y-104981551D01*
X168924267Y-105043415D01*
X168818657Y-105087161D01*
X168728433Y-105105107D01*
X168547988Y-105141000D01*
X168272012Y-105141000D01*
X168091567Y-105105107D01*
X168001343Y-105087161D01*
X167895733Y-105043415D01*
X167746379Y-104981551D01*
X167516911Y-104828226D01*
X167321774Y-104633089D01*
X167168449Y-104403621D01*
X167062839Y-104148656D01*
X167009000Y-103877988D01*
X167009000Y-103602012D01*
X167061005Y-103340564D01*
X167062839Y-103331343D01*
X167106585Y-103225733D01*
X167168449Y-103076379D01*
X167321774Y-102846911D01*
X167516911Y-102651774D01*
X167746379Y-102498449D01*
X167895733Y-102436585D01*
X168001343Y-102392839D01*
X168091567Y-102374893D01*
X168272012Y-102339000D01*
X168547988Y-102339000D01*
X168728433Y-102374893D01*
X168728433Y-102374893D01*
G37*
G36*
X103528433Y-102374893D02*
X103618657Y-102392839D01*
X103724267Y-102436585D01*
X103873621Y-102498449D01*
X104103089Y-102651774D01*
X104298226Y-102846911D01*
X104451551Y-103076379D01*
X104513415Y-103225733D01*
X104557161Y-103331343D01*
X104558995Y-103340564D01*
X104611000Y-103602012D01*
X104611000Y-103877988D01*
X104557161Y-104148656D01*
X104451551Y-104403621D01*
X104298226Y-104633089D01*
X104103089Y-104828226D01*
X103873621Y-104981551D01*
X103724267Y-105043415D01*
X103618657Y-105087161D01*
X103528433Y-105105107D01*
X103347988Y-105141000D01*
X103072012Y-105141000D01*
X102891567Y-105105107D01*
X102801343Y-105087161D01*
X102695733Y-105043415D01*
X102546379Y-104981551D01*
X102316911Y-104828226D01*
X102121774Y-104633089D01*
X101968449Y-104403621D01*
X101862839Y-104148656D01*
X101809000Y-103877988D01*
X101809000Y-103602012D01*
X101861005Y-103340564D01*
X101862839Y-103331343D01*
X101906585Y-103225733D01*
X101968449Y-103076379D01*
X102121774Y-102846911D01*
X102316911Y-102651774D01*
X102546379Y-102498449D01*
X102695733Y-102436585D01*
X102801343Y-102392839D01*
X102891567Y-102374893D01*
X103072012Y-102339000D01*
X103347988Y-102339000D01*
X103528433Y-102374893D01*
X103528433Y-102374893D01*
G37*
G36*
X182261396Y-101483546D02*
X182434466Y-101555234D01*
X182590230Y-101659312D01*
X182722688Y-101791770D01*
X182826766Y-101947534D01*
X182898454Y-102120604D01*
X182935000Y-102304333D01*
X182935000Y-102491667D01*
X182898454Y-102675396D01*
X182826766Y-102848466D01*
X182722688Y-103004230D01*
X182590230Y-103136688D01*
X182434466Y-103240766D01*
X182261396Y-103312454D01*
X182077667Y-103349000D01*
X181890333Y-103349000D01*
X181706604Y-103312454D01*
X181533534Y-103240766D01*
X181377770Y-103136688D01*
X181245312Y-103004230D01*
X181141234Y-102848466D01*
X181069546Y-102675396D01*
X181033000Y-102491667D01*
X181033000Y-102304333D01*
X181069546Y-102120604D01*
X181141234Y-101947534D01*
X181245312Y-101791770D01*
X181377770Y-101659312D01*
X181533534Y-101555234D01*
X181706604Y-101483546D01*
X181890333Y-101447000D01*
X182077667Y-101447000D01*
X182261396Y-101483546D01*
X182261396Y-101483546D01*
G37*
G36*
X99330104Y-100399585D02*
X99498626Y-100469389D01*
X99650291Y-100570728D01*
X99779272Y-100699709D01*
X99880611Y-100851374D01*
X99950415Y-101019896D01*
X99986000Y-101198797D01*
X99986000Y-101381203D01*
X99950415Y-101560104D01*
X99880611Y-101728626D01*
X99779272Y-101880291D01*
X99650291Y-102009272D01*
X99498626Y-102110611D01*
X99330104Y-102180415D01*
X99151203Y-102216000D01*
X98968797Y-102216000D01*
X98789896Y-102180415D01*
X98621374Y-102110611D01*
X98469709Y-102009272D01*
X98340728Y-101880291D01*
X98239389Y-101728626D01*
X98169585Y-101560104D01*
X98134000Y-101381203D01*
X98134000Y-101198797D01*
X98169585Y-101019896D01*
X98239389Y-100851374D01*
X98340728Y-100699709D01*
X98469709Y-100570728D01*
X98621374Y-100469389D01*
X98789896Y-100399585D01*
X98968797Y-100364000D01*
X99151203Y-100364000D01*
X99330104Y-100399585D01*
X99330104Y-100399585D01*
G37*
G36*
X182261396Y-98983546D02*
X182434466Y-99055234D01*
X182590230Y-99159312D01*
X182722688Y-99291770D01*
X182826766Y-99447534D01*
X182898454Y-99620604D01*
X182935000Y-99804333D01*
X182935000Y-99991667D01*
X182898454Y-100175396D01*
X182826766Y-100348466D01*
X182722688Y-100504230D01*
X182590230Y-100636688D01*
X182434466Y-100740766D01*
X182261396Y-100812454D01*
X182077667Y-100849000D01*
X181890333Y-100849000D01*
X181706604Y-100812454D01*
X181533534Y-100740766D01*
X181377770Y-100636688D01*
X181245312Y-100504230D01*
X181141234Y-100348466D01*
X181069546Y-100175396D01*
X181033000Y-99991667D01*
X181033000Y-99804333D01*
X181069546Y-99620604D01*
X181141234Y-99447534D01*
X181245312Y-99291770D01*
X181377770Y-99159312D01*
X181533534Y-99055234D01*
X181706604Y-98983546D01*
X181890333Y-98947000D01*
X182077667Y-98947000D01*
X182261396Y-98983546D01*
X182261396Y-98983546D01*
G37*
G36*
X99986000Y-98716000D02*
X98134000Y-98716000D01*
X98134000Y-96864000D01*
X99986000Y-96864000D01*
X99986000Y-98716000D01*
X99986000Y-98716000D01*
G37*
G36*
X172830104Y-96899585D02*
X172998626Y-96969389D01*
X173150291Y-97070728D01*
X173279272Y-97199709D01*
X173380611Y-97351374D01*
X173450415Y-97519896D01*
X173486000Y-97698797D01*
X173486000Y-97881203D01*
X173450415Y-98060104D01*
X173380611Y-98228626D01*
X173279272Y-98380291D01*
X173150291Y-98509272D01*
X172998626Y-98610611D01*
X172830104Y-98680415D01*
X172651203Y-98716000D01*
X172468797Y-98716000D01*
X172289896Y-98680415D01*
X172121374Y-98610611D01*
X171969709Y-98509272D01*
X171840728Y-98380291D01*
X171739389Y-98228626D01*
X171669585Y-98060104D01*
X171634000Y-97881203D01*
X171634000Y-97698797D01*
X171669585Y-97519896D01*
X171739389Y-97351374D01*
X171840728Y-97199709D01*
X171969709Y-97070728D01*
X172121374Y-96969389D01*
X172289896Y-96899585D01*
X172468797Y-96864000D01*
X172651203Y-96864000D01*
X172830104Y-96899585D01*
X172830104Y-96899585D01*
G37*
G36*
X182261396Y-96483546D02*
X182434466Y-96555234D01*
X182590230Y-96659312D01*
X182722688Y-96791770D01*
X182826766Y-96947534D01*
X182898454Y-97120604D01*
X182935000Y-97304333D01*
X182935000Y-97491667D01*
X182898454Y-97675396D01*
X182826766Y-97848466D01*
X182722688Y-98004230D01*
X182590230Y-98136688D01*
X182434466Y-98240766D01*
X182261396Y-98312454D01*
X182077667Y-98349000D01*
X181890333Y-98349000D01*
X181706604Y-98312454D01*
X181533534Y-98240766D01*
X181377770Y-98136688D01*
X181245312Y-98004230D01*
X181141234Y-97848466D01*
X181069546Y-97675396D01*
X181033000Y-97491667D01*
X181033000Y-97304333D01*
X181069546Y-97120604D01*
X181141234Y-96947534D01*
X181245312Y-96791770D01*
X181377770Y-96659312D01*
X181533534Y-96555234D01*
X181706604Y-96483546D01*
X181890333Y-96447000D01*
X182077667Y-96447000D01*
X182261396Y-96483546D01*
X182261396Y-96483546D01*
G37*
G36*
X190082252Y-93175818D02*
X190082254Y-93175819D01*
X190082255Y-93175819D01*
X190455513Y-93330427D01*
X190455514Y-93330428D01*
X190791439Y-93554886D01*
X191077114Y-93840561D01*
X191077116Y-93840564D01*
X191301573Y-94176487D01*
X191456181Y-94549745D01*
X191535000Y-94945994D01*
X191535000Y-95350006D01*
X191456181Y-95746255D01*
X191301573Y-96119513D01*
X191301572Y-96119514D01*
X191077114Y-96455439D01*
X190791439Y-96741114D01*
X190791436Y-96741116D01*
X190455513Y-96965573D01*
X190082255Y-97120181D01*
X190082254Y-97120181D01*
X190082252Y-97120182D01*
X189686007Y-97199000D01*
X189281993Y-97199000D01*
X188885748Y-97120182D01*
X188885746Y-97120181D01*
X188885745Y-97120181D01*
X188512487Y-96965573D01*
X188176564Y-96741116D01*
X188176561Y-96741114D01*
X187890886Y-96455439D01*
X187666428Y-96119514D01*
X187666427Y-96119513D01*
X187511819Y-95746255D01*
X187433000Y-95350006D01*
X187433000Y-94945994D01*
X187511819Y-94549745D01*
X187666427Y-94176487D01*
X187890884Y-93840564D01*
X187890886Y-93840561D01*
X188176561Y-93554886D01*
X188512486Y-93330428D01*
X188512487Y-93330427D01*
X188885745Y-93175819D01*
X188885746Y-93175819D01*
X188885748Y-93175818D01*
X189281993Y-93097000D01*
X189686007Y-93097000D01*
X190082252Y-93175818D01*
X190082252Y-93175818D01*
G37*
G36*
X167528433Y-93974893D02*
X167618657Y-93992839D01*
X167724267Y-94036585D01*
X167873621Y-94098449D01*
X168103089Y-94251774D01*
X168298226Y-94446911D01*
X168451551Y-94676379D01*
X168557161Y-94931344D01*
X168611000Y-95202012D01*
X168611000Y-95477988D01*
X168557161Y-95748656D01*
X168451551Y-96003621D01*
X168298226Y-96233089D01*
X168103089Y-96428226D01*
X167873621Y-96581551D01*
X167724267Y-96643415D01*
X167618657Y-96687161D01*
X167528433Y-96705107D01*
X167347988Y-96741000D01*
X167072012Y-96741000D01*
X166891567Y-96705107D01*
X166801343Y-96687161D01*
X166695733Y-96643415D01*
X166546379Y-96581551D01*
X166316911Y-96428226D01*
X166121774Y-96233089D01*
X165968449Y-96003621D01*
X165862839Y-95748656D01*
X165809000Y-95477988D01*
X165809000Y-95202012D01*
X165862839Y-94931344D01*
X165968449Y-94676379D01*
X166121774Y-94446911D01*
X166316911Y-94251774D01*
X166546379Y-94098449D01*
X166695733Y-94036585D01*
X166801343Y-93992839D01*
X166891567Y-93974893D01*
X167072012Y-93939000D01*
X167347988Y-93939000D01*
X167528433Y-93974893D01*
X167528433Y-93974893D01*
G37*
G36*
X104728433Y-93974893D02*
X104818657Y-93992839D01*
X104924267Y-94036585D01*
X105073621Y-94098449D01*
X105303089Y-94251774D01*
X105498226Y-94446911D01*
X105651551Y-94676379D01*
X105757161Y-94931344D01*
X105811000Y-95202012D01*
X105811000Y-95477988D01*
X105757161Y-95748656D01*
X105651551Y-96003621D01*
X105498226Y-96233089D01*
X105303089Y-96428226D01*
X105073621Y-96581551D01*
X104924267Y-96643415D01*
X104818657Y-96687161D01*
X104728433Y-96705107D01*
X104547988Y-96741000D01*
X104272012Y-96741000D01*
X104091567Y-96705107D01*
X104001343Y-96687161D01*
X103895733Y-96643415D01*
X103746379Y-96581551D01*
X103516911Y-96428226D01*
X103321774Y-96233089D01*
X103168449Y-96003621D01*
X103062839Y-95748656D01*
X103009000Y-95477988D01*
X103009000Y-95202012D01*
X103062839Y-94931344D01*
X103168449Y-94676379D01*
X103321774Y-94446911D01*
X103516911Y-94251774D01*
X103746379Y-94098449D01*
X103895733Y-94036585D01*
X104001343Y-93992839D01*
X104091567Y-93974893D01*
X104272012Y-93939000D01*
X104547988Y-93939000D01*
X104728433Y-93974893D01*
X104728433Y-93974893D01*
G37*
G36*
X114744579Y-88899112D02*
X114870544Y-88924168D01*
X114985535Y-88971799D01*
X115226512Y-89071615D01*
X115546880Y-89285678D01*
X115819322Y-89558120D01*
X116033385Y-89878488D01*
X116064453Y-89953494D01*
X116175366Y-90221259D01*
X116180832Y-90234457D01*
X116256000Y-90612349D01*
X116256000Y-90997651D01*
X116180832Y-91375543D01*
X116033385Y-91731512D01*
X115819322Y-92051880D01*
X115546880Y-92324322D01*
X115226512Y-92538385D01*
X115017991Y-92624757D01*
X114870544Y-92685832D01*
X114744579Y-92710888D01*
X114492651Y-92761000D01*
X114107349Y-92761000D01*
X113855421Y-92710888D01*
X113729456Y-92685832D01*
X113582009Y-92624757D01*
X113373488Y-92538385D01*
X113053120Y-92324322D01*
X112780678Y-92051880D01*
X112566615Y-91731512D01*
X112419168Y-91375543D01*
X112344000Y-90997651D01*
X112344000Y-90612349D01*
X112419168Y-90234457D01*
X112424635Y-90221259D01*
X112535547Y-89953494D01*
X112566615Y-89878488D01*
X112780678Y-89558120D01*
X113053120Y-89285678D01*
X113373488Y-89071615D01*
X113614465Y-88971799D01*
X113729456Y-88924168D01*
X113855421Y-88899112D01*
X114107349Y-88849000D01*
X114492651Y-88849000D01*
X114744579Y-88899112D01*
X114744579Y-88899112D01*
G37*
G36*
X160464579Y-88899112D02*
X160590544Y-88924168D01*
X160705535Y-88971799D01*
X160946512Y-89071615D01*
X161266880Y-89285678D01*
X161539322Y-89558120D01*
X161753385Y-89878488D01*
X161784453Y-89953494D01*
X161895366Y-90221259D01*
X161900832Y-90234457D01*
X161976000Y-90612349D01*
X161976000Y-90997651D01*
X161900832Y-91375543D01*
X161753385Y-91731512D01*
X161539322Y-92051880D01*
X161266880Y-92324322D01*
X160946512Y-92538385D01*
X160737991Y-92624757D01*
X160590544Y-92685832D01*
X160464579Y-92710888D01*
X160212651Y-92761000D01*
X159827349Y-92761000D01*
X159575421Y-92710888D01*
X159449456Y-92685832D01*
X159302009Y-92624757D01*
X159093488Y-92538385D01*
X158773120Y-92324322D01*
X158500678Y-92051880D01*
X158286615Y-91731512D01*
X158139168Y-91375543D01*
X158064000Y-90997651D01*
X158064000Y-90612349D01*
X158139168Y-90234457D01*
X158144635Y-90221259D01*
X158255547Y-89953494D01*
X158286615Y-89878488D01*
X158500678Y-89558120D01*
X158773120Y-89285678D01*
X159093488Y-89071615D01*
X159334465Y-88971799D01*
X159449456Y-88924168D01*
X159575421Y-88899112D01*
X159827349Y-88849000D01*
X160212651Y-88849000D01*
X160464579Y-88899112D01*
X160464579Y-88899112D01*
G37*
G36*
X148762362Y-88668476D02*
X148847707Y-88685452D01*
X149008494Y-88752052D01*
X149008495Y-88752053D01*
X149153201Y-88848743D01*
X149276257Y-88971799D01*
X149276259Y-88971802D01*
X149372948Y-89116506D01*
X149439548Y-89277293D01*
X149473500Y-89447983D01*
X149473500Y-89622017D01*
X149439548Y-89792707D01*
X149372948Y-89953494D01*
X149372947Y-89953495D01*
X149276257Y-90098201D01*
X149153201Y-90221257D01*
X149153198Y-90221259D01*
X149008494Y-90317948D01*
X148847707Y-90384548D01*
X148762362Y-90401524D01*
X148677019Y-90418500D01*
X148502981Y-90418500D01*
X148417638Y-90401524D01*
X148332293Y-90384548D01*
X148171506Y-90317948D01*
X148026802Y-90221259D01*
X148026799Y-90221257D01*
X147903743Y-90098201D01*
X147807053Y-89953495D01*
X147807052Y-89953494D01*
X147740452Y-89792707D01*
X147706500Y-89622017D01*
X147706500Y-89447983D01*
X147740452Y-89277293D01*
X147807052Y-89116506D01*
X147903741Y-88971802D01*
X147903743Y-88971799D01*
X148026799Y-88848743D01*
X148171505Y-88752053D01*
X148171506Y-88752052D01*
X148332293Y-88685452D01*
X148417638Y-88668476D01*
X148502981Y-88651500D01*
X148677019Y-88651500D01*
X148762362Y-88668476D01*
X148762362Y-88668476D01*
G37*
G36*
X125902362Y-88668476D02*
X125987707Y-88685452D01*
X126148494Y-88752052D01*
X126148495Y-88752053D01*
X126293201Y-88848743D01*
X126416257Y-88971799D01*
X126416259Y-88971802D01*
X126512948Y-89116506D01*
X126579548Y-89277293D01*
X126613500Y-89447983D01*
X126613500Y-89622017D01*
X126579548Y-89792707D01*
X126512948Y-89953494D01*
X126512947Y-89953495D01*
X126416257Y-90098201D01*
X126293201Y-90221257D01*
X126293198Y-90221259D01*
X126148494Y-90317948D01*
X125987707Y-90384548D01*
X125902362Y-90401524D01*
X125817019Y-90418500D01*
X125642981Y-90418500D01*
X125557638Y-90401524D01*
X125472293Y-90384548D01*
X125311506Y-90317948D01*
X125166802Y-90221259D01*
X125166799Y-90221257D01*
X125043743Y-90098201D01*
X124947053Y-89953495D01*
X124947052Y-89953494D01*
X124880452Y-89792707D01*
X124846500Y-89622017D01*
X124846500Y-89447983D01*
X124880452Y-89277293D01*
X124947052Y-89116506D01*
X125043741Y-88971802D01*
X125043743Y-88971799D01*
X125166799Y-88848743D01*
X125311505Y-88752053D01*
X125311506Y-88752052D01*
X125472293Y-88685452D01*
X125557638Y-88668476D01*
X125642981Y-88651500D01*
X125817019Y-88651500D01*
X125902362Y-88668476D01*
X125902362Y-88668476D01*
G37*
G36*
X130982362Y-88668476D02*
X131067707Y-88685452D01*
X131228494Y-88752052D01*
X131228495Y-88752053D01*
X131373201Y-88848743D01*
X131496257Y-88971799D01*
X131496259Y-88971802D01*
X131592948Y-89116506D01*
X131659548Y-89277293D01*
X131693500Y-89447983D01*
X131693500Y-89622017D01*
X131659548Y-89792707D01*
X131592948Y-89953494D01*
X131592947Y-89953495D01*
X131496257Y-90098201D01*
X131373201Y-90221257D01*
X131373198Y-90221259D01*
X131228494Y-90317948D01*
X131067707Y-90384548D01*
X130982362Y-90401524D01*
X130897019Y-90418500D01*
X130722981Y-90418500D01*
X130637638Y-90401524D01*
X130552293Y-90384548D01*
X130391506Y-90317948D01*
X130246802Y-90221259D01*
X130246799Y-90221257D01*
X130123743Y-90098201D01*
X130027053Y-89953495D01*
X130027052Y-89953494D01*
X129960452Y-89792707D01*
X129926500Y-89622017D01*
X129926500Y-89447983D01*
X129960452Y-89277293D01*
X130027052Y-89116506D01*
X130123741Y-88971802D01*
X130123743Y-88971799D01*
X130246799Y-88848743D01*
X130391505Y-88752053D01*
X130391506Y-88752052D01*
X130552293Y-88685452D01*
X130637638Y-88668476D01*
X130722981Y-88651500D01*
X130897019Y-88651500D01*
X130982362Y-88668476D01*
X130982362Y-88668476D01*
G37*
G36*
X123362362Y-88668476D02*
X123447707Y-88685452D01*
X123608494Y-88752052D01*
X123608495Y-88752053D01*
X123753201Y-88848743D01*
X123876257Y-88971799D01*
X123876259Y-88971802D01*
X123972948Y-89116506D01*
X124039548Y-89277293D01*
X124073500Y-89447983D01*
X124073500Y-89622017D01*
X124039548Y-89792707D01*
X123972948Y-89953494D01*
X123972947Y-89953495D01*
X123876257Y-90098201D01*
X123753201Y-90221257D01*
X123753198Y-90221259D01*
X123608494Y-90317948D01*
X123447707Y-90384548D01*
X123362362Y-90401524D01*
X123277019Y-90418500D01*
X123102981Y-90418500D01*
X123017638Y-90401524D01*
X122932293Y-90384548D01*
X122771506Y-90317948D01*
X122626802Y-90221259D01*
X122626799Y-90221257D01*
X122503743Y-90098201D01*
X122407053Y-89953495D01*
X122407052Y-89953494D01*
X122340452Y-89792707D01*
X122306500Y-89622017D01*
X122306500Y-89447983D01*
X122340452Y-89277293D01*
X122407052Y-89116506D01*
X122503741Y-88971802D01*
X122503743Y-88971799D01*
X122626799Y-88848743D01*
X122771505Y-88752053D01*
X122771506Y-88752052D01*
X122932293Y-88685452D01*
X123017638Y-88668476D01*
X123102981Y-88651500D01*
X123277019Y-88651500D01*
X123362362Y-88668476D01*
X123362362Y-88668476D01*
G37*
G36*
X118282362Y-88668476D02*
X118367707Y-88685452D01*
X118528494Y-88752052D01*
X118528495Y-88752053D01*
X118673201Y-88848743D01*
X118796257Y-88971799D01*
X118796259Y-88971802D01*
X118892948Y-89116506D01*
X118959548Y-89277293D01*
X118993500Y-89447983D01*
X118993500Y-89622017D01*
X118959548Y-89792707D01*
X118892948Y-89953494D01*
X118892947Y-89953495D01*
X118796257Y-90098201D01*
X118673201Y-90221257D01*
X118673198Y-90221259D01*
X118528494Y-90317948D01*
X118367707Y-90384548D01*
X118282362Y-90401524D01*
X118197019Y-90418500D01*
X118022981Y-90418500D01*
X117937638Y-90401524D01*
X117852293Y-90384548D01*
X117691506Y-90317948D01*
X117546802Y-90221259D01*
X117546799Y-90221257D01*
X117423743Y-90098201D01*
X117327053Y-89953495D01*
X117327052Y-89953494D01*
X117260452Y-89792707D01*
X117226500Y-89622017D01*
X117226500Y-89447983D01*
X117260452Y-89277293D01*
X117327052Y-89116506D01*
X117423741Y-88971802D01*
X117423743Y-88971799D01*
X117546799Y-88848743D01*
X117691505Y-88752053D01*
X117691506Y-88752052D01*
X117852293Y-88685452D01*
X117937638Y-88668476D01*
X118022981Y-88651500D01*
X118197019Y-88651500D01*
X118282362Y-88668476D01*
X118282362Y-88668476D01*
G37*
G36*
X128442362Y-88668476D02*
X128527707Y-88685452D01*
X128688494Y-88752052D01*
X128688495Y-88752053D01*
X128833201Y-88848743D01*
X128956257Y-88971799D01*
X128956259Y-88971802D01*
X129052948Y-89116506D01*
X129119548Y-89277293D01*
X129153500Y-89447983D01*
X129153500Y-89622017D01*
X129119548Y-89792707D01*
X129052948Y-89953494D01*
X129052947Y-89953495D01*
X128956257Y-90098201D01*
X128833201Y-90221257D01*
X128833198Y-90221259D01*
X128688494Y-90317948D01*
X128527707Y-90384548D01*
X128442362Y-90401524D01*
X128357019Y-90418500D01*
X128182981Y-90418500D01*
X128097638Y-90401524D01*
X128012293Y-90384548D01*
X127851506Y-90317948D01*
X127706802Y-90221259D01*
X127706799Y-90221257D01*
X127583743Y-90098201D01*
X127487053Y-89953495D01*
X127487052Y-89953494D01*
X127420452Y-89792707D01*
X127386500Y-89622017D01*
X127386500Y-89447983D01*
X127420452Y-89277293D01*
X127487052Y-89116506D01*
X127583741Y-88971802D01*
X127583743Y-88971799D01*
X127706799Y-88848743D01*
X127851505Y-88752053D01*
X127851506Y-88752052D01*
X128012293Y-88685452D01*
X128097638Y-88668476D01*
X128182981Y-88651500D01*
X128357019Y-88651500D01*
X128442362Y-88668476D01*
X128442362Y-88668476D01*
G37*
G36*
X157093500Y-90418500D02*
X155326500Y-90418500D01*
X155326500Y-88651500D01*
X157093500Y-88651500D01*
X157093500Y-90418500D01*
X157093500Y-90418500D01*
G37*
G36*
X153842362Y-88668476D02*
X153927707Y-88685452D01*
X154088494Y-88752052D01*
X154088495Y-88752053D01*
X154233201Y-88848743D01*
X154356257Y-88971799D01*
X154356259Y-88971802D01*
X154452948Y-89116506D01*
X154519548Y-89277293D01*
X154553500Y-89447983D01*
X154553500Y-89622017D01*
X154519548Y-89792707D01*
X154452948Y-89953494D01*
X154452947Y-89953495D01*
X154356257Y-90098201D01*
X154233201Y-90221257D01*
X154233198Y-90221259D01*
X154088494Y-90317948D01*
X153927707Y-90384548D01*
X153842362Y-90401524D01*
X153757019Y-90418500D01*
X153582981Y-90418500D01*
X153497638Y-90401524D01*
X153412293Y-90384548D01*
X153251506Y-90317948D01*
X153106802Y-90221259D01*
X153106799Y-90221257D01*
X152983743Y-90098201D01*
X152887053Y-89953495D01*
X152887052Y-89953494D01*
X152820452Y-89792707D01*
X152786500Y-89622017D01*
X152786500Y-89447983D01*
X152820452Y-89277293D01*
X152887052Y-89116506D01*
X152983741Y-88971802D01*
X152983743Y-88971799D01*
X153106799Y-88848743D01*
X153251505Y-88752053D01*
X153251506Y-88752052D01*
X153412293Y-88685452D01*
X153497638Y-88668476D01*
X153582981Y-88651500D01*
X153757019Y-88651500D01*
X153842362Y-88668476D01*
X153842362Y-88668476D01*
G37*
G36*
X151302362Y-88668476D02*
X151387707Y-88685452D01*
X151548494Y-88752052D01*
X151548495Y-88752053D01*
X151693201Y-88848743D01*
X151816257Y-88971799D01*
X151816259Y-88971802D01*
X151912948Y-89116506D01*
X151979548Y-89277293D01*
X152013500Y-89447983D01*
X152013500Y-89622017D01*
X151979548Y-89792707D01*
X151912948Y-89953494D01*
X151912947Y-89953495D01*
X151816257Y-90098201D01*
X151693201Y-90221257D01*
X151693198Y-90221259D01*
X151548494Y-90317948D01*
X151387707Y-90384548D01*
X151302362Y-90401524D01*
X151217019Y-90418500D01*
X151042981Y-90418500D01*
X150957638Y-90401524D01*
X150872293Y-90384548D01*
X150711506Y-90317948D01*
X150566802Y-90221259D01*
X150566799Y-90221257D01*
X150443743Y-90098201D01*
X150347053Y-89953495D01*
X150347052Y-89953494D01*
X150280452Y-89792707D01*
X150246500Y-89622017D01*
X150246500Y-89447983D01*
X150280452Y-89277293D01*
X150347052Y-89116506D01*
X150443741Y-88971802D01*
X150443743Y-88971799D01*
X150566799Y-88848743D01*
X150711505Y-88752053D01*
X150711506Y-88752052D01*
X150872293Y-88685452D01*
X150957638Y-88668476D01*
X151042981Y-88651500D01*
X151217019Y-88651500D01*
X151302362Y-88668476D01*
X151302362Y-88668476D01*
G37*
G36*
X146222362Y-88668476D02*
X146307707Y-88685452D01*
X146468494Y-88752052D01*
X146468495Y-88752053D01*
X146613201Y-88848743D01*
X146736257Y-88971799D01*
X146736259Y-88971802D01*
X146832948Y-89116506D01*
X146899548Y-89277293D01*
X146933500Y-89447983D01*
X146933500Y-89622017D01*
X146899548Y-89792707D01*
X146832948Y-89953494D01*
X146832947Y-89953495D01*
X146736257Y-90098201D01*
X146613201Y-90221257D01*
X146613198Y-90221259D01*
X146468494Y-90317948D01*
X146307707Y-90384548D01*
X146222362Y-90401524D01*
X146137019Y-90418500D01*
X145962981Y-90418500D01*
X145877638Y-90401524D01*
X145792293Y-90384548D01*
X145631506Y-90317948D01*
X145486802Y-90221259D01*
X145486799Y-90221257D01*
X145363743Y-90098201D01*
X145267053Y-89953495D01*
X145267052Y-89953494D01*
X145200452Y-89792707D01*
X145166500Y-89622017D01*
X145166500Y-89447983D01*
X145200452Y-89277293D01*
X145267052Y-89116506D01*
X145363741Y-88971802D01*
X145363743Y-88971799D01*
X145486799Y-88848743D01*
X145631505Y-88752053D01*
X145631506Y-88752052D01*
X145792293Y-88685452D01*
X145877638Y-88668476D01*
X145962981Y-88651500D01*
X146137019Y-88651500D01*
X146222362Y-88668476D01*
X146222362Y-88668476D01*
G37*
G36*
X143682362Y-88668476D02*
X143767707Y-88685452D01*
X143928494Y-88752052D01*
X143928495Y-88752053D01*
X144073201Y-88848743D01*
X144196257Y-88971799D01*
X144196259Y-88971802D01*
X144292948Y-89116506D01*
X144359548Y-89277293D01*
X144393500Y-89447983D01*
X144393500Y-89622017D01*
X144359548Y-89792707D01*
X144292948Y-89953494D01*
X144292947Y-89953495D01*
X144196257Y-90098201D01*
X144073201Y-90221257D01*
X144073198Y-90221259D01*
X143928494Y-90317948D01*
X143767707Y-90384548D01*
X143682362Y-90401524D01*
X143597019Y-90418500D01*
X143422981Y-90418500D01*
X143337638Y-90401524D01*
X143252293Y-90384548D01*
X143091506Y-90317948D01*
X142946802Y-90221259D01*
X142946799Y-90221257D01*
X142823743Y-90098201D01*
X142727053Y-89953495D01*
X142727052Y-89953494D01*
X142660452Y-89792707D01*
X142626500Y-89622017D01*
X142626500Y-89447983D01*
X142660452Y-89277293D01*
X142727052Y-89116506D01*
X142823741Y-88971802D01*
X142823743Y-88971799D01*
X142946799Y-88848743D01*
X143091505Y-88752053D01*
X143091506Y-88752052D01*
X143252293Y-88685452D01*
X143337638Y-88668476D01*
X143422981Y-88651500D01*
X143597019Y-88651500D01*
X143682362Y-88668476D01*
X143682362Y-88668476D01*
G37*
G36*
X141142362Y-88668476D02*
X141227707Y-88685452D01*
X141388494Y-88752052D01*
X141388495Y-88752053D01*
X141533201Y-88848743D01*
X141656257Y-88971799D01*
X141656259Y-88971802D01*
X141752948Y-89116506D01*
X141819548Y-89277293D01*
X141853500Y-89447983D01*
X141853500Y-89622017D01*
X141819548Y-89792707D01*
X141752948Y-89953494D01*
X141752947Y-89953495D01*
X141656257Y-90098201D01*
X141533201Y-90221257D01*
X141533198Y-90221259D01*
X141388494Y-90317948D01*
X141227707Y-90384548D01*
X141142362Y-90401524D01*
X141057019Y-90418500D01*
X140882981Y-90418500D01*
X140797638Y-90401524D01*
X140712293Y-90384548D01*
X140551506Y-90317948D01*
X140406802Y-90221259D01*
X140406799Y-90221257D01*
X140283743Y-90098201D01*
X140187053Y-89953495D01*
X140187052Y-89953494D01*
X140120452Y-89792707D01*
X140086500Y-89622017D01*
X140086500Y-89447983D01*
X140120452Y-89277293D01*
X140187052Y-89116506D01*
X140283741Y-88971802D01*
X140283743Y-88971799D01*
X140406799Y-88848743D01*
X140551505Y-88752053D01*
X140551506Y-88752052D01*
X140712293Y-88685452D01*
X140797638Y-88668476D01*
X140882981Y-88651500D01*
X141057019Y-88651500D01*
X141142362Y-88668476D01*
X141142362Y-88668476D01*
G37*
G36*
X138602362Y-88668476D02*
X138687707Y-88685452D01*
X138848494Y-88752052D01*
X138848495Y-88752053D01*
X138993201Y-88848743D01*
X139116257Y-88971799D01*
X139116259Y-88971802D01*
X139212948Y-89116506D01*
X139279548Y-89277293D01*
X139313500Y-89447983D01*
X139313500Y-89622017D01*
X139279548Y-89792707D01*
X139212948Y-89953494D01*
X139212947Y-89953495D01*
X139116257Y-90098201D01*
X138993201Y-90221257D01*
X138993198Y-90221259D01*
X138848494Y-90317948D01*
X138687707Y-90384548D01*
X138602362Y-90401524D01*
X138517019Y-90418500D01*
X138342981Y-90418500D01*
X138257638Y-90401524D01*
X138172293Y-90384548D01*
X138011506Y-90317948D01*
X137866802Y-90221259D01*
X137866799Y-90221257D01*
X137743743Y-90098201D01*
X137647053Y-89953495D01*
X137647052Y-89953494D01*
X137580452Y-89792707D01*
X137546500Y-89622017D01*
X137546500Y-89447983D01*
X137580452Y-89277293D01*
X137647052Y-89116506D01*
X137743741Y-88971802D01*
X137743743Y-88971799D01*
X137866799Y-88848743D01*
X138011505Y-88752053D01*
X138011506Y-88752052D01*
X138172293Y-88685452D01*
X138257638Y-88668476D01*
X138342981Y-88651500D01*
X138517019Y-88651500D01*
X138602362Y-88668476D01*
X138602362Y-88668476D01*
G37*
G36*
X136062362Y-88668476D02*
X136147707Y-88685452D01*
X136308494Y-88752052D01*
X136308495Y-88752053D01*
X136453201Y-88848743D01*
X136576257Y-88971799D01*
X136576259Y-88971802D01*
X136672948Y-89116506D01*
X136739548Y-89277293D01*
X136773500Y-89447983D01*
X136773500Y-89622017D01*
X136739548Y-89792707D01*
X136672948Y-89953494D01*
X136672947Y-89953495D01*
X136576257Y-90098201D01*
X136453201Y-90221257D01*
X136453198Y-90221259D01*
X136308494Y-90317948D01*
X136147707Y-90384548D01*
X136062362Y-90401524D01*
X135977019Y-90418500D01*
X135802981Y-90418500D01*
X135717638Y-90401524D01*
X135632293Y-90384548D01*
X135471506Y-90317948D01*
X135326802Y-90221259D01*
X135326799Y-90221257D01*
X135203743Y-90098201D01*
X135107053Y-89953495D01*
X135107052Y-89953494D01*
X135040452Y-89792707D01*
X135006500Y-89622017D01*
X135006500Y-89447983D01*
X135040452Y-89277293D01*
X135107052Y-89116506D01*
X135203741Y-88971802D01*
X135203743Y-88971799D01*
X135326799Y-88848743D01*
X135471505Y-88752053D01*
X135471506Y-88752052D01*
X135632293Y-88685452D01*
X135717638Y-88668476D01*
X135802981Y-88651500D01*
X135977019Y-88651500D01*
X136062362Y-88668476D01*
X136062362Y-88668476D01*
G37*
G36*
X120822362Y-88668476D02*
X120907707Y-88685452D01*
X121068494Y-88752052D01*
X121068495Y-88752053D01*
X121213201Y-88848743D01*
X121336257Y-88971799D01*
X121336259Y-88971802D01*
X121432948Y-89116506D01*
X121499548Y-89277293D01*
X121533500Y-89447983D01*
X121533500Y-89622017D01*
X121499548Y-89792707D01*
X121432948Y-89953494D01*
X121432947Y-89953495D01*
X121336257Y-90098201D01*
X121213201Y-90221257D01*
X121213198Y-90221259D01*
X121068494Y-90317948D01*
X120907707Y-90384548D01*
X120822362Y-90401524D01*
X120737019Y-90418500D01*
X120562981Y-90418500D01*
X120477638Y-90401524D01*
X120392293Y-90384548D01*
X120231506Y-90317948D01*
X120086802Y-90221259D01*
X120086799Y-90221257D01*
X119963743Y-90098201D01*
X119867053Y-89953495D01*
X119867052Y-89953494D01*
X119800452Y-89792707D01*
X119766500Y-89622017D01*
X119766500Y-89447983D01*
X119800452Y-89277293D01*
X119867052Y-89116506D01*
X119963741Y-88971802D01*
X119963743Y-88971799D01*
X120086799Y-88848743D01*
X120231505Y-88752053D01*
X120231506Y-88752052D01*
X120392293Y-88685452D01*
X120477638Y-88668476D01*
X120562981Y-88651500D01*
X120737019Y-88651500D01*
X120822362Y-88668476D01*
X120822362Y-88668476D01*
G37*
G36*
X133522362Y-88668476D02*
X133607707Y-88685452D01*
X133768494Y-88752052D01*
X133768495Y-88752053D01*
X133913201Y-88848743D01*
X134036257Y-88971799D01*
X134036259Y-88971802D01*
X134132948Y-89116506D01*
X134199548Y-89277293D01*
X134233500Y-89447983D01*
X134233500Y-89622017D01*
X134199548Y-89792707D01*
X134132948Y-89953494D01*
X134132947Y-89953495D01*
X134036257Y-90098201D01*
X133913201Y-90221257D01*
X133913198Y-90221259D01*
X133768494Y-90317948D01*
X133607707Y-90384548D01*
X133522362Y-90401524D01*
X133437019Y-90418500D01*
X133262981Y-90418500D01*
X133177638Y-90401524D01*
X133092293Y-90384548D01*
X132931506Y-90317948D01*
X132786802Y-90221259D01*
X132786799Y-90221257D01*
X132663743Y-90098201D01*
X132567053Y-89953495D01*
X132567052Y-89953494D01*
X132500452Y-89792707D01*
X132466500Y-89622017D01*
X132466500Y-89447983D01*
X132500452Y-89277293D01*
X132567052Y-89116506D01*
X132663741Y-88971802D01*
X132663743Y-88971799D01*
X132786799Y-88848743D01*
X132931505Y-88752053D01*
X132931506Y-88752052D01*
X133092293Y-88685452D01*
X133177638Y-88668476D01*
X133262981Y-88651500D01*
X133437019Y-88651500D01*
X133522362Y-88668476D01*
X133522362Y-88668476D01*
G37*
G36*
X102882000Y-79006000D02*
X101080000Y-79006000D01*
X101080000Y-77204000D01*
X102882000Y-77204000D01*
X102882000Y-79006000D01*
X102882000Y-79006000D01*
G37*
G36*
X99551443Y-77210519D02*
X99617627Y-77217037D01*
X99730853Y-77251384D01*
X99787467Y-77268557D01*
X99926087Y-77342652D01*
X99943991Y-77352222D01*
X99979729Y-77381552D01*
X100081186Y-77464814D01*
X100164448Y-77566271D01*
X100193778Y-77602009D01*
X100193779Y-77602011D01*
X100277443Y-77758533D01*
X100277443Y-77758534D01*
X100328963Y-77928373D01*
X100346359Y-78105000D01*
X100328963Y-78281627D01*
X100294616Y-78394853D01*
X100277443Y-78451467D01*
X100203348Y-78590087D01*
X100193778Y-78607991D01*
X100164448Y-78643729D01*
X100081186Y-78745186D01*
X99979729Y-78828448D01*
X99943991Y-78857778D01*
X99943989Y-78857779D01*
X99787467Y-78941443D01*
X99730853Y-78958616D01*
X99617627Y-78992963D01*
X99551443Y-78999481D01*
X99485260Y-79006000D01*
X99396740Y-79006000D01*
X99330557Y-78999481D01*
X99264373Y-78992963D01*
X99151147Y-78958616D01*
X99094533Y-78941443D01*
X98938011Y-78857779D01*
X98938009Y-78857778D01*
X98902271Y-78828448D01*
X98800814Y-78745186D01*
X98717552Y-78643729D01*
X98688222Y-78607991D01*
X98678652Y-78590087D01*
X98604557Y-78451467D01*
X98587384Y-78394853D01*
X98553037Y-78281627D01*
X98535641Y-78105000D01*
X98553037Y-77928373D01*
X98604557Y-77758534D01*
X98604557Y-77758533D01*
X98688221Y-77602011D01*
X98688222Y-77602009D01*
X98717552Y-77566271D01*
X98800814Y-77464814D01*
X98902271Y-77381552D01*
X98938009Y-77352222D01*
X98955913Y-77342652D01*
X99094533Y-77268557D01*
X99151147Y-77251384D01*
X99264373Y-77217037D01*
X99330557Y-77210519D01*
X99396740Y-77204000D01*
X99485260Y-77204000D01*
X99551443Y-77210519D01*
X99551443Y-77210519D01*
G37*
G36*
X190082252Y-71789818D02*
X190082254Y-71789819D01*
X190082255Y-71789819D01*
X190455513Y-71944427D01*
X190715627Y-72118230D01*
X190791439Y-72168886D01*
X191077114Y-72454561D01*
X191077116Y-72454564D01*
X191301573Y-72790487D01*
X191456181Y-73163745D01*
X191456182Y-73163748D01*
X191535000Y-73559993D01*
X191535000Y-73964007D01*
X191458574Y-74348228D01*
X191456181Y-74360255D01*
X191301573Y-74733513D01*
X191301572Y-74733514D01*
X191077114Y-75069439D01*
X190791439Y-75355114D01*
X190791436Y-75355116D01*
X190455513Y-75579573D01*
X190082255Y-75734181D01*
X190082254Y-75734181D01*
X190082252Y-75734182D01*
X189686007Y-75813000D01*
X189281993Y-75813000D01*
X188885748Y-75734182D01*
X188885746Y-75734181D01*
X188885745Y-75734181D01*
X188512487Y-75579573D01*
X188176564Y-75355116D01*
X188176561Y-75355114D01*
X187890886Y-75069439D01*
X187666428Y-74733514D01*
X187666427Y-74733513D01*
X187511819Y-74360255D01*
X187509427Y-74348228D01*
X187433000Y-73964007D01*
X187433000Y-73559993D01*
X187511818Y-73163748D01*
X187511819Y-73163745D01*
X187666427Y-72790487D01*
X187890884Y-72454564D01*
X187890886Y-72454561D01*
X188176561Y-72168886D01*
X188252373Y-72118230D01*
X188512487Y-71944427D01*
X188885745Y-71789819D01*
X188885746Y-71789819D01*
X188885748Y-71789818D01*
X189281993Y-71711000D01*
X189686007Y-71711000D01*
X190082252Y-71789818D01*
X190082252Y-71789818D01*
G37*
G36*
X103528433Y-71894893D02*
X103618657Y-71912839D01*
X103694916Y-71944427D01*
X103873621Y-72018449D01*
X104103089Y-72171774D01*
X104298226Y-72366911D01*
X104451551Y-72596379D01*
X104557161Y-72851344D01*
X104611000Y-73122012D01*
X104611000Y-73397988D01*
X104557161Y-73668656D01*
X104451551Y-73923621D01*
X104298226Y-74153089D01*
X104103089Y-74348226D01*
X103873621Y-74501551D01*
X103724267Y-74563415D01*
X103618657Y-74607161D01*
X103528433Y-74625107D01*
X103347988Y-74661000D01*
X103072012Y-74661000D01*
X102891567Y-74625107D01*
X102801343Y-74607161D01*
X102695733Y-74563415D01*
X102546379Y-74501551D01*
X102316911Y-74348226D01*
X102121774Y-74153089D01*
X101968449Y-73923621D01*
X101862839Y-73668656D01*
X101809000Y-73397988D01*
X101809000Y-73122012D01*
X101862839Y-72851344D01*
X101968449Y-72596379D01*
X102121774Y-72366911D01*
X102316911Y-72171774D01*
X102546379Y-72018449D01*
X102725084Y-71944427D01*
X102801343Y-71912839D01*
X102891567Y-71894893D01*
X103072012Y-71859000D01*
X103347988Y-71859000D01*
X103528433Y-71894893D01*
X103528433Y-71894893D01*
G37*
G36*
X168728433Y-71894893D02*
X168818657Y-71912839D01*
X168894916Y-71944427D01*
X169073621Y-72018449D01*
X169303089Y-72171774D01*
X169498226Y-72366911D01*
X169651551Y-72596379D01*
X169757161Y-72851344D01*
X169811000Y-73122012D01*
X169811000Y-73397988D01*
X169757161Y-73668656D01*
X169651551Y-73923621D01*
X169498226Y-74153089D01*
X169303089Y-74348226D01*
X169073621Y-74501551D01*
X168924267Y-74563415D01*
X168818657Y-74607161D01*
X168728433Y-74625107D01*
X168547988Y-74661000D01*
X168272012Y-74661000D01*
X168091567Y-74625107D01*
X168001343Y-74607161D01*
X167895733Y-74563415D01*
X167746379Y-74501551D01*
X167516911Y-74348226D01*
X167321774Y-74153089D01*
X167168449Y-73923621D01*
X167062839Y-73668656D01*
X167009000Y-73397988D01*
X167009000Y-73122012D01*
X167062839Y-72851344D01*
X167168449Y-72596379D01*
X167321774Y-72366911D01*
X167516911Y-72171774D01*
X167746379Y-72018449D01*
X167925084Y-71944427D01*
X168001343Y-71912839D01*
X168091567Y-71894893D01*
X168272012Y-71859000D01*
X168547988Y-71859000D01*
X168728433Y-71894893D01*
X168728433Y-71894893D01*
G37*
G36*
X182261396Y-70597546D02*
X182434466Y-70669234D01*
X182590230Y-70773312D01*
X182722688Y-70905770D01*
X182826766Y-71061534D01*
X182898454Y-71234604D01*
X182935000Y-71418333D01*
X182935000Y-71605667D01*
X182898454Y-71789396D01*
X182826766Y-71962466D01*
X182722688Y-72118230D01*
X182590230Y-72250688D01*
X182434466Y-72354766D01*
X182261396Y-72426454D01*
X182077667Y-72463000D01*
X181890333Y-72463000D01*
X181706604Y-72426454D01*
X181533534Y-72354766D01*
X181377770Y-72250688D01*
X181245312Y-72118230D01*
X181141234Y-71962466D01*
X181069546Y-71789396D01*
X181033000Y-71605667D01*
X181033000Y-71418333D01*
X181069546Y-71234604D01*
X181141234Y-71061534D01*
X181245312Y-70905770D01*
X181377770Y-70773312D01*
X181533534Y-70669234D01*
X181706604Y-70597546D01*
X181890333Y-70561000D01*
X182077667Y-70561000D01*
X182261396Y-70597546D01*
X182261396Y-70597546D01*
G37*
G36*
X99330104Y-69919585D02*
X99498626Y-69989389D01*
X99650291Y-70090728D01*
X99779272Y-70219709D01*
X99880611Y-70371374D01*
X99950415Y-70539896D01*
X99986000Y-70718797D01*
X99986000Y-70901203D01*
X99950415Y-71080104D01*
X99880611Y-71248626D01*
X99779272Y-71400291D01*
X99650291Y-71529272D01*
X99498626Y-71630611D01*
X99330104Y-71700415D01*
X99151203Y-71736000D01*
X98968797Y-71736000D01*
X98789896Y-71700415D01*
X98621374Y-71630611D01*
X98469709Y-71529272D01*
X98340728Y-71400291D01*
X98239389Y-71248626D01*
X98169585Y-71080104D01*
X98134000Y-70901203D01*
X98134000Y-70718797D01*
X98169585Y-70539896D01*
X98239389Y-70371374D01*
X98340728Y-70219709D01*
X98469709Y-70090728D01*
X98621374Y-69989389D01*
X98789896Y-69919585D01*
X98968797Y-69884000D01*
X99151203Y-69884000D01*
X99330104Y-69919585D01*
X99330104Y-69919585D01*
G37*
G36*
X182261396Y-68097546D02*
X182434466Y-68169234D01*
X182590230Y-68273312D01*
X182722688Y-68405770D01*
X182826766Y-68561534D01*
X182898454Y-68734604D01*
X182935000Y-68918333D01*
X182935000Y-69105667D01*
X182898454Y-69289396D01*
X182826766Y-69462466D01*
X182722688Y-69618230D01*
X182590230Y-69750688D01*
X182434466Y-69854766D01*
X182261396Y-69926454D01*
X182077667Y-69963000D01*
X181890333Y-69963000D01*
X181706604Y-69926454D01*
X181533534Y-69854766D01*
X181377770Y-69750688D01*
X181245312Y-69618230D01*
X181141234Y-69462466D01*
X181069546Y-69289396D01*
X181033000Y-69105667D01*
X181033000Y-68918333D01*
X181069546Y-68734604D01*
X181141234Y-68561534D01*
X181245312Y-68405770D01*
X181377770Y-68273312D01*
X181533534Y-68169234D01*
X181706604Y-68097546D01*
X181890333Y-68061000D01*
X182077667Y-68061000D01*
X182261396Y-68097546D01*
X182261396Y-68097546D01*
G37*
G36*
X172830104Y-66419585D02*
X172998626Y-66489389D01*
X173150291Y-66590728D01*
X173279272Y-66719709D01*
X173380611Y-66871374D01*
X173450415Y-67039896D01*
X173486000Y-67218797D01*
X173486000Y-67401203D01*
X173450415Y-67580104D01*
X173380611Y-67748626D01*
X173279272Y-67900291D01*
X173150291Y-68029272D01*
X172998626Y-68130611D01*
X172830104Y-68200415D01*
X172651203Y-68236000D01*
X172468797Y-68236000D01*
X172289896Y-68200415D01*
X172121374Y-68130611D01*
X171969709Y-68029272D01*
X171840728Y-67900291D01*
X171739389Y-67748626D01*
X171669585Y-67580104D01*
X171634000Y-67401203D01*
X171634000Y-67218797D01*
X171669585Y-67039896D01*
X171739389Y-66871374D01*
X171840728Y-66719709D01*
X171969709Y-66590728D01*
X172121374Y-66489389D01*
X172289896Y-66419585D01*
X172468797Y-66384000D01*
X172651203Y-66384000D01*
X172830104Y-66419585D01*
X172830104Y-66419585D01*
G37*
G36*
X99986000Y-68236000D02*
X98134000Y-68236000D01*
X98134000Y-66384000D01*
X99986000Y-66384000D01*
X99986000Y-68236000D01*
X99986000Y-68236000D01*
G37*
G36*
X182261396Y-65597546D02*
X182434466Y-65669234D01*
X182590230Y-65773312D01*
X182722688Y-65905770D01*
X182826766Y-66061534D01*
X182898454Y-66234604D01*
X182935000Y-66418333D01*
X182935000Y-66605667D01*
X182898454Y-66789396D01*
X182826766Y-66962466D01*
X182722688Y-67118230D01*
X182590230Y-67250688D01*
X182434466Y-67354766D01*
X182261396Y-67426454D01*
X182077667Y-67463000D01*
X181890333Y-67463000D01*
X181706604Y-67426454D01*
X181533534Y-67354766D01*
X181377770Y-67250688D01*
X181245312Y-67118230D01*
X181141234Y-66962466D01*
X181069546Y-66789396D01*
X181033000Y-66605667D01*
X181033000Y-66418333D01*
X181069546Y-66234604D01*
X181141234Y-66061534D01*
X181245312Y-65905770D01*
X181377770Y-65773312D01*
X181533534Y-65669234D01*
X181706604Y-65597546D01*
X181890333Y-65561000D01*
X182077667Y-65561000D01*
X182261396Y-65597546D01*
X182261396Y-65597546D01*
G37*
G36*
X190082252Y-62289818D02*
X190082254Y-62289819D01*
X190082255Y-62289819D01*
X190455513Y-62444427D01*
X190455514Y-62444428D01*
X190791439Y-62668886D01*
X191077114Y-62954561D01*
X191077116Y-62954564D01*
X191301573Y-63290487D01*
X191371373Y-63459000D01*
X191456182Y-63663748D01*
X191535000Y-64059993D01*
X191535000Y-64464007D01*
X191483680Y-64722012D01*
X191456181Y-64860255D01*
X191301573Y-65233513D01*
X191301572Y-65233514D01*
X191077114Y-65569439D01*
X190791439Y-65855114D01*
X190791436Y-65855116D01*
X190455513Y-66079573D01*
X190082255Y-66234181D01*
X190082254Y-66234181D01*
X190082252Y-66234182D01*
X189686007Y-66313000D01*
X189281993Y-66313000D01*
X188885748Y-66234182D01*
X188885746Y-66234181D01*
X188885745Y-66234181D01*
X188512487Y-66079573D01*
X188176564Y-65855116D01*
X188176561Y-65855114D01*
X187890886Y-65569439D01*
X187666428Y-65233514D01*
X187666427Y-65233513D01*
X187511819Y-64860255D01*
X187484321Y-64722012D01*
X187433000Y-64464007D01*
X187433000Y-64059993D01*
X187511818Y-63663748D01*
X187596627Y-63459000D01*
X187666427Y-63290487D01*
X187890884Y-62954564D01*
X187890886Y-62954561D01*
X188176561Y-62668886D01*
X188512486Y-62444428D01*
X188512487Y-62444427D01*
X188885745Y-62289819D01*
X188885746Y-62289819D01*
X188885748Y-62289818D01*
X189281993Y-62211000D01*
X189686007Y-62211000D01*
X190082252Y-62289818D01*
X190082252Y-62289818D01*
G37*
G36*
X104728433Y-63494893D02*
X104818657Y-63512839D01*
X104924267Y-63556585D01*
X105073621Y-63618449D01*
X105303089Y-63771774D01*
X105498226Y-63966911D01*
X105651551Y-64196379D01*
X105757161Y-64451344D01*
X105811000Y-64722012D01*
X105811000Y-64997988D01*
X105757161Y-65268656D01*
X105651551Y-65523621D01*
X105498226Y-65753089D01*
X105303089Y-65948226D01*
X105073621Y-66101551D01*
X104924267Y-66163415D01*
X104818657Y-66207161D01*
X104728433Y-66225107D01*
X104547988Y-66261000D01*
X104272012Y-66261000D01*
X104091567Y-66225107D01*
X104001343Y-66207161D01*
X103895733Y-66163415D01*
X103746379Y-66101551D01*
X103516911Y-65948226D01*
X103321774Y-65753089D01*
X103168449Y-65523621D01*
X103062839Y-65268656D01*
X103009000Y-64997988D01*
X103009000Y-64722012D01*
X103062839Y-64451344D01*
X103168449Y-64196379D01*
X103321774Y-63966911D01*
X103516911Y-63771774D01*
X103746379Y-63618449D01*
X103895733Y-63556585D01*
X104001343Y-63512839D01*
X104091567Y-63494893D01*
X104272012Y-63459000D01*
X104547988Y-63459000D01*
X104728433Y-63494893D01*
X104728433Y-63494893D01*
G37*
G36*
X167528433Y-63494893D02*
X167618657Y-63512839D01*
X167724267Y-63556585D01*
X167873621Y-63618449D01*
X168103089Y-63771774D01*
X168298226Y-63966911D01*
X168451551Y-64196379D01*
X168557161Y-64451344D01*
X168611000Y-64722012D01*
X168611000Y-64997988D01*
X168557161Y-65268656D01*
X168451551Y-65523621D01*
X168298226Y-65753089D01*
X168103089Y-65948226D01*
X167873621Y-66101551D01*
X167724267Y-66163415D01*
X167618657Y-66207161D01*
X167528433Y-66225107D01*
X167347988Y-66261000D01*
X167072012Y-66261000D01*
X166891567Y-66225107D01*
X166801343Y-66207161D01*
X166695733Y-66163415D01*
X166546379Y-66101551D01*
X166316911Y-65948226D01*
X166121774Y-65753089D01*
X165968449Y-65523621D01*
X165862839Y-65268656D01*
X165809000Y-64997988D01*
X165809000Y-64722012D01*
X165862839Y-64451344D01*
X165968449Y-64196379D01*
X166121774Y-63966911D01*
X166316911Y-63771774D01*
X166546379Y-63618449D01*
X166695733Y-63556585D01*
X166801343Y-63512839D01*
X166891567Y-63494893D01*
X167072012Y-63459000D01*
X167347988Y-63459000D01*
X167528433Y-63494893D01*
X167528433Y-63494893D01*
G37*
G36*
X100186442Y-59303518D02*
X100252627Y-59310037D01*
X100365853Y-59344384D01*
X100422467Y-59361557D01*
X100549516Y-59429467D01*
X100578991Y-59445222D01*
X100614729Y-59474552D01*
X100716186Y-59557814D01*
X100799448Y-59659271D01*
X100828778Y-59695009D01*
X100828779Y-59695011D01*
X100912443Y-59851533D01*
X100912443Y-59851534D01*
X100963963Y-60021373D01*
X100981359Y-60198000D01*
X100963963Y-60374627D01*
X100929616Y-60487853D01*
X100912443Y-60544467D01*
X100838348Y-60683087D01*
X100828778Y-60700991D01*
X100799448Y-60736729D01*
X100716186Y-60838186D01*
X100614729Y-60921448D01*
X100578991Y-60950778D01*
X100578989Y-60950779D01*
X100422467Y-61034443D01*
X100365853Y-61051616D01*
X100252627Y-61085963D01*
X100186442Y-61092482D01*
X100120260Y-61099000D01*
X100031740Y-61099000D01*
X99965558Y-61092482D01*
X99899373Y-61085963D01*
X99786147Y-61051616D01*
X99729533Y-61034443D01*
X99573011Y-60950779D01*
X99573009Y-60950778D01*
X99537271Y-60921448D01*
X99435814Y-60838186D01*
X99352552Y-60736729D01*
X99323222Y-60700991D01*
X99313652Y-60683087D01*
X99239557Y-60544467D01*
X99222384Y-60487853D01*
X99188037Y-60374627D01*
X99170641Y-60198000D01*
X99188037Y-60021373D01*
X99239557Y-59851534D01*
X99239557Y-59851533D01*
X99323221Y-59695011D01*
X99323222Y-59695009D01*
X99352552Y-59659271D01*
X99435814Y-59557814D01*
X99537271Y-59474552D01*
X99573009Y-59445222D01*
X99602484Y-59429467D01*
X99729533Y-59361557D01*
X99786147Y-59344384D01*
X99899373Y-59310037D01*
X99965558Y-59303518D01*
X100031740Y-59297000D01*
X100120260Y-59297000D01*
X100186442Y-59303518D01*
X100186442Y-59303518D01*
G37*
G36*
X103517000Y-61099000D02*
X101715000Y-61099000D01*
X101715000Y-59297000D01*
X103517000Y-59297000D01*
X103517000Y-61099000D01*
X103517000Y-61099000D01*
G37*
G36*
X141699001Y-59930001D02*
X139797001Y-59930001D01*
X139797001Y-58028001D01*
X141699001Y-58028001D01*
X141699001Y-59930001D01*
X141699001Y-59930001D01*
G37*
G36*
X143565397Y-58064547D02*
X143738467Y-58136235D01*
X143894231Y-58240313D01*
X144026689Y-58372771D01*
X144130767Y-58528535D01*
X144202455Y-58701605D01*
X144239001Y-58885334D01*
X144239001Y-59072668D01*
X144202455Y-59256397D01*
X144130767Y-59429467D01*
X144026689Y-59585231D01*
X143894231Y-59717689D01*
X143738467Y-59821767D01*
X143565397Y-59893455D01*
X143381668Y-59930001D01*
X143194334Y-59930001D01*
X143010605Y-59893455D01*
X142837535Y-59821767D01*
X142681771Y-59717689D01*
X142549313Y-59585231D01*
X142445235Y-59429467D01*
X142373547Y-59256397D01*
X142337001Y-59072668D01*
X142337001Y-58885334D01*
X142373547Y-58701605D01*
X142445235Y-58528535D01*
X142549313Y-58372771D01*
X142681771Y-58240313D01*
X142837535Y-58136235D01*
X143010605Y-58064547D01*
X143194334Y-58028001D01*
X143381668Y-58028001D01*
X143565397Y-58064547D01*
X143565397Y-58064547D01*
G37*
G36*
X134389396Y-58013546D02*
X134562466Y-58085234D01*
X134718230Y-58189312D01*
X134850688Y-58321770D01*
X134954766Y-58477534D01*
X135026454Y-58650604D01*
X135063000Y-58834333D01*
X135063000Y-59021667D01*
X135026454Y-59205396D01*
X134954766Y-59378466D01*
X134850688Y-59534230D01*
X134718230Y-59666688D01*
X134562466Y-59770766D01*
X134389396Y-59842454D01*
X134205667Y-59879000D01*
X134018333Y-59879000D01*
X133834604Y-59842454D01*
X133661534Y-59770766D01*
X133505770Y-59666688D01*
X133373312Y-59534230D01*
X133269234Y-59378466D01*
X133197546Y-59205396D01*
X133161000Y-59021667D01*
X133161000Y-58834333D01*
X133197546Y-58650604D01*
X133269234Y-58477534D01*
X133373312Y-58321770D01*
X133505770Y-58189312D01*
X133661534Y-58085234D01*
X133834604Y-58013546D01*
X134018333Y-57977000D01*
X134205667Y-57977000D01*
X134389396Y-58013546D01*
X134389396Y-58013546D01*
G37*
G36*
X132523000Y-59879000D02*
X130621000Y-59879000D01*
X130621000Y-57977000D01*
X132523000Y-57977000D01*
X132523000Y-59879000D01*
X132523000Y-59879000D01*
G37*
M02*
