G04 #@! TF.GenerationSoftware,KiCad,Pcbnew,5.0.1-33cea8e~68~ubuntu16.04.1*
G04 #@! TF.CreationDate,2018-11-29T12:11:28+01:00*
G04 #@! TF.ProjectId,midi_controller_pcb,6D6964695F636F6E74726F6C6C65725F,rev?*
G04 #@! TF.SameCoordinates,Original*
G04 #@! TF.FileFunction,Legend,Bot*
G04 #@! TF.FilePolarity,Positive*
%FSLAX46Y46*%
G04 Gerber Fmt 4.6, Leading zero omitted, Abs format (unit mm)*
G04 Created by KiCad (PCBNEW 5.0.1-33cea8e~68~ubuntu16.04.1) date Do 29 Nov 2018 12:11:28 CET*
%MOMM*%
%LPD*%
G01*
G04 APERTURE LIST*
%ADD10C,0.100000*%
%ADD11C,0.200000*%
%ADD12C,0.254000*%
G04 APERTURE END LIST*
D10*
G04 #@! TO.C,IC1*
X111760000Y-111125000D02*
X162560000Y-111125000D01*
X162560000Y-111125000D02*
X162560000Y-88265000D01*
X162560000Y-88265000D02*
X111760000Y-88265000D01*
X111760000Y-88265000D02*
X111760000Y-111125000D01*
D11*
X156160000Y-87795000D02*
X156160000Y-87795000D01*
X156360000Y-87795000D02*
X156360000Y-87795000D01*
X156360000Y-87795000D02*
G75*
G02X156160000Y-87795000I-100000J0D01*
G01*
X156160000Y-87795000D02*
G75*
G02X156360000Y-87795000I100000J0D01*
G01*
D12*
X138399761Y-99984523D02*
X138399761Y-98714523D01*
X137069285Y-99863571D02*
X137129761Y-99924047D01*
X137311190Y-99984523D01*
X137432142Y-99984523D01*
X137613571Y-99924047D01*
X137734523Y-99803095D01*
X137795000Y-99682142D01*
X137855476Y-99440238D01*
X137855476Y-99258809D01*
X137795000Y-99016904D01*
X137734523Y-98895952D01*
X137613571Y-98775000D01*
X137432142Y-98714523D01*
X137311190Y-98714523D01*
X137129761Y-98775000D01*
X137069285Y-98835476D01*
X135859761Y-99984523D02*
X136585476Y-99984523D01*
X136222619Y-99984523D02*
X136222619Y-98714523D01*
X136343571Y-98895952D01*
X136464523Y-99016904D01*
X136585476Y-99077380D01*
G04 #@! TD*
M02*
